<svg width="16" height="16" viewBox="0 0 16 16" fill="none" xmlns="http://www.w3.org/2000/svg">
<path d="M9.91683 5.33335C9.91683 6.3919 9.05871 7.25002 8.00016 7.25002C6.94162 7.25002 6.0835 6.3919 6.0835 5.33335C6.0835 4.27481 6.94162 3.41669 8.00016 3.41669C9.05871 3.41669 9.91683 4.27481 9.91683 5.33335Z" stroke="#3B8363" stroke-width="1.5"/>
<path d="M12.5832 12.6667V13.25H3.4165V12.6667C3.4165 11.8047 3.75891 10.9781 4.36841 10.3686C4.9779 9.7591 5.80455 9.41669 6.6665 9.41669H9.33317C10.1951 9.41669 11.0218 9.7591 11.6313 10.3686L12.1498 9.85005L11.6313 10.3686C12.2408 10.9781 12.5832 11.8047 12.5832 12.6667Z" stroke="#3B8363" stroke-width="1.5"/>
</svg>
