<svg width="16" height="16" viewBox="0 0 16 16" fill="none" xmlns="http://www.w3.org/2000/svg">
<path d="M9.91634 5.33335C9.91634 6.3919 9.05822 7.25002 7.99967 7.25002C6.94113 7.25002 6.08301 6.3919 6.08301 5.33335C6.08301 4.27481 6.94113 3.41669 7.99967 3.41669C9.05822 3.41669 9.91634 4.27481 9.91634 5.33335Z" stroke="#B2EACD" stroke-width="1.5"/>
<path d="M12.5837 12.6667V13.25H3.41699V12.6667C3.41699 11.8047 3.7594 10.9781 4.3689 10.3686C4.97839 9.7591 5.80504 9.41669 6.66699 9.41669H9.33366C10.1956 9.41669 11.0223 9.7591 11.6318 10.3686L12.1503 9.85005L11.6318 10.3686C12.2413 10.9781 12.5837 11.8047 12.5837 12.6667Z" stroke="#B2EACD" stroke-width="1.5"/>
</svg>
