<svg width="16" height="16" viewBox="0 0 16 16" fill="none" xmlns="http://www.w3.org/2000/svg">
<path d="M8.00016 8.00002C9.47292 8.00002 10.6668 6.80611 10.6668 5.33335C10.6668 3.86059 9.47292 2.66669 8.00016 2.66669C6.5274 2.66669 5.3335 3.86059 5.3335 5.33335C5.3335 6.80611 6.5274 8.00002 8.00016 8.00002Z" fill="#193737"/>
<path d="M13.3332 12.6667V13.3334C13.3332 13.5102 13.2629 13.6797 13.1379 13.8048C13.0129 13.9298 12.8433 14 12.6665 14H3.33317C3.15636 14 2.98679 13.9298 2.86177 13.8048C2.73674 13.6797 2.6665 13.5102 2.6665 13.3334V12.6667C2.6665 11.6058 3.08793 10.5884 3.83808 9.83826C4.58822 9.08811 5.60564 8.66669 6.6665 8.66669H9.33317C10.394 8.66669 11.4115 9.08811 12.1616 9.83826C12.9117 10.5884 13.3332 11.6058 13.3332 12.6667Z" fill="#193737"/>
</svg>
