<svg width="16" height="16" viewBox="0 0 16 16" fill="none" xmlns="http://www.w3.org/2000/svg">
<path d="M7.99967 8.00002C9.47243 8.00002 10.6663 6.80611 10.6663 5.33335C10.6663 3.86059 9.47243 2.66669 7.99967 2.66669C6.52692 2.66669 5.33301 3.86059 5.33301 5.33335C5.33301 6.80611 6.52692 8.00002 7.99967 8.00002Z" fill="white"/>
<path d="M13.3337 12.6667V13.3334C13.3337 13.5102 13.2634 13.6797 13.1384 13.8048C13.0134 13.9298 12.8438 14 12.667 14H3.33366C3.15685 14 2.98728 13.9298 2.86225 13.8048C2.73723 13.6797 2.66699 13.5102 2.66699 13.3334V12.6667C2.66699 11.6058 3.08842 10.5884 3.83857 9.83826C4.58871 9.08811 5.60613 8.66669 6.66699 8.66669H9.33366C10.3945 8.66669 11.4119 9.08811 12.1621 9.83826C12.9122 10.5884 13.3337 11.6058 13.3337 12.6667Z" fill="white"/>
</svg>
