<svg width="828" height="828" viewBox="0 0 828 828" fill="none" xmlns="http://www.w3.org/2000/svg">
<path d="M192.593 723.258C192.593 723.258 217.805 618.682 391.934 616.487C568.546 614.252 607.214 674.82 613.217 723.258H192.593Z" fill="#3B8363"/>
<path d="M406.258 723.258C406.258 723.258 405.886 694.03 406.258 687.281C406.258 687.281 384.813 684.508 376.575 684.632C377.871 688.85 378.718 693.194 379.1 697.59C379.1 697.59 342.502 703.469 335.092 709.016C331.2 712.08 331.2 723.258 331.2 723.258H406.258Z" fill="#FCCAC2"/>
<path d="M357.572 514.147C357.572 514.147 358.483 559.687 363.078 573.1C367.673 586.514 370.985 602.743 387.918 611.726C388.131 618.944 387.295 626.154 385.434 633.13C388.063 636.213 391.302 638.718 394.947 640.487C398.591 642.256 402.563 643.252 406.611 643.412C410.66 643.571 414.697 642.891 418.47 641.413C422.242 639.936 425.668 637.694 428.531 634.828C427.191 626.493 426.885 618.025 427.621 609.615C434.003 605.822 439.428 600.612 443.477 594.388C447.526 588.165 450.089 581.094 450.97 573.721C454.655 547.763 455.4 517.955 453.578 511.083C445.671 510.853 437.928 508.768 430.974 504.997C421.204 499.036 416.525 473.161 393.714 471.877C393.714 471.877 393.341 486.491 387.504 494.73C381.667 502.969 362.747 500.94 357.572 514.147Z" fill="#FCCAC2"/>
<path d="M612.72 312.777C610.816 309.796 616.529 284.17 616.86 278.581C616.86 278.581 590.157 277.877 575.46 258.502C575.46 258.502 555.878 269.1 535.964 261.027C535.964 261.027 527.395 300.109 525.035 311.369C522.675 322.63 517.997 355.667 541.843 367.922C541.843 367.922 540.767 377.609 539.276 386.221C528.512 356.206 493.322 276.966 424.35 284.542C422.915 277.593 422.719 270.445 423.77 263.428C423.77 263.428 447.948 257.963 454.572 223.146C458.421 199.405 458.7 175.223 455.4 151.4C447.471 150.601 439.482 150.601 431.554 151.4C419.423 152.807 415.325 158.272 405.223 158.521C395.122 158.769 388.663 153.925 377.113 154.877C365.562 155.83 356.413 169.533 355.046 182.574C355.046 182.574 330.869 185.265 332.608 198.761C334.346 212.258 351.362 212.009 351.362 212.009C351.362 212.009 358.772 247.034 378.644 261.689C383.364 265.208 384.689 261.689 380.59 285.163C380.59 285.163 335.506 272.743 278.332 341.633L277.297 342.875C277.297 336.292 277.297 329.171 276.552 321.388C273.447 276.304 259.992 275.848 259.992 275.848C247.903 284.749 201.08 290.752 197.437 293.733C193.793 296.714 193.297 324.99 193.297 324.99C185.927 322.837 169.699 324.659 169.16 337.41C168.622 350.161 185.72 355.295 185.72 355.295C185.688 363.563 187.659 371.716 191.466 379.056C195.273 386.396 200.802 392.704 207.58 397.44C208.49 402.491 203.44 426.172 203.44 426.172C203.44 426.172 217.102 439.295 229.066 439.544C239.333 439.751 250.139 426.461 249.559 424.309C262.419 421.825 275.714 422.943 287.978 427.538C287.978 427.538 312.818 400.421 315.054 401.414C317.29 402.408 308.471 441.2 308.471 441.2C316.784 450.06 323.922 459.953 329.71 470.635C327.064 472.179 324.78 474.271 323.009 476.77C321.238 479.269 320.022 482.118 319.442 485.125C313.398 505.411 327.722 515.016 328.426 528.637C328.84 538.366 322.63 548.219 326.77 558.486C334.305 577.199 362.664 572.769 362.664 572.769C361.588 568.629 356.413 526.07 357.779 513.981C359.145 501.892 377.195 503.424 384.689 498.083C386.221 497.007 394.045 488.479 394.045 471.877C394.045 471.877 408.742 467.737 428.614 503.755C431.885 509.675 453.827 510.917 453.827 510.917C456.601 528.181 450.308 577.571 450.308 577.571C470.345 583.036 473.409 564.323 479.702 556.871C483.842 551.738 497.421 550.661 497.669 532.901C497.669 519.322 491.956 509.51 490.507 500.029C489.058 490.549 492.163 475.769 484.007 465.833C475.852 455.897 449.48 433.085 449.852 432.713C471.629 411.764 500.816 394.459 536.792 396.736C536.565 397.464 536.245 398.16 535.84 398.806C540.745 403.807 547.323 406.821 554.314 407.272C561.304 407.722 568.214 405.578 573.721 401.249C573.721 401.249 574.052 377.734 576.081 373.676C576.081 373.676 597.816 365.396 608.953 336.416C608.953 336.416 630.149 338.859 630.191 328.468C630.191 314.35 614.459 315.758 612.72 312.777Z" fill="white"/>
<path d="M311.038 603.198C312.13 600.798 314.068 598.885 316.481 597.823C318.894 596.762 321.614 596.626 324.121 597.443C324.121 597.443 329.379 590.861 338.652 596.864C338.652 596.864 346.684 593.759 351.072 598.768C355.46 603.778 356.785 605.351 359.642 606.634C362.499 607.918 372.807 606.841 369.868 619.054C366.514 632.799 357.448 631.474 358.731 622.615C359.849 615.618 346.021 617.274 345.442 620.131C345.111 621.828 343.454 641.245 339.853 641.534C336.251 641.824 335.423 637.394 335.423 637.394C335.423 637.394 330.786 649.028 326.439 637.974C326.439 637.974 318.739 649.897 314.309 637.394C314.309 637.394 306.029 650.021 301.889 631.102C297.749 612.182 300.399 597.236 311.038 603.198Z" fill="white"/>
<path d="M770.744 681.651C767.361 680.909 763.893 680.63 760.435 680.823C760.435 680.823 761.222 651.843 760.187 650.849C755.607 650.079 750.956 649.815 746.318 650.063C747.849 616.943 735.098 626.506 735.098 626.506C730.13 616.529 723.63 621.58 723.63 621.58C719.49 614.252 710.548 622.076 710.548 622.076C701.647 615.204 695.023 634.993 692.663 635.2C690.909 635.232 689.18 635.626 687.585 636.359C685.991 637.092 684.566 638.146 683.399 639.457C682.232 640.768 681.349 642.306 680.806 643.974C680.263 645.643 680.072 647.406 680.243 649.152C666.623 649.152 617.564 649.566 617.067 650.228C616.048 660.268 615.703 670.365 616.032 680.45C616.032 680.45 598.395 680.036 597.94 682.231C597.485 684.425 597.029 723.175 597.029 723.175H770.909C770.909 723.175 771.986 682.686 770.744 681.651Z" fill="white"/>
<path d="M86.1947 703.22C86.1947 703.22 91.5768 693.284 98.2008 697.673C98.2008 697.673 102.341 690.759 111.159 697.3C111.159 697.3 116.624 693.45 122.751 700.281C128.878 707.112 128.506 708.561 131.031 709.43C132.545 709.534 134.023 709.94 135.377 710.625C136.731 711.31 137.934 712.26 138.914 713.418C139.895 714.576 140.633 715.919 141.085 717.367C141.537 718.816 141.694 720.34 141.547 721.85C141.547 733.111 139.684 734.684 137.407 734.85C131.818 735.347 132.314 724.169 129.913 723.092C125.777 722.5 121.568 722.668 117.493 723.589C117.493 723.589 115.796 740.563 112.401 740.812C111.479 740.939 110.542 740.716 109.776 740.187C109.01 739.659 108.469 738.862 108.261 737.955C108.261 737.955 104.742 746.235 99.981 737.955C99.981 737.955 93.8124 748.843 89.0928 736.672C89.0928 736.672 84.9528 745.738 79.7778 733.898C74.6028 722.057 74.5199 696.265 86.1947 703.22Z" fill="white"/>
<path d="M630.191 650.228H650.518V680.492H630.191V650.228Z" fill="#3B8363"/>
<path d="M748.222 652.091V681.071H728.847V671.301C732.656 672.336 735.554 667.575 735.761 667.161C736.255 667.917 736.943 668.526 737.753 668.925C738.563 669.324 739.465 669.499 740.366 669.432C741.266 669.364 742.132 669.056 742.873 668.54C743.614 668.025 744.203 667.32 744.579 666.499C746.737 661.985 747.975 657.088 748.222 652.091Z" fill="#3B8363"/>
<path d="M168.581 219.834C168.581 219.834 159.763 217.847 162.785 230.143C165.807 242.438 178.434 256.142 182.16 254.237C185.886 252.333 183.278 246.247 183.278 246.247C183.278 246.247 186.466 249.808 189.985 248.359C193.504 246.91 215.239 240.575 221.325 235.069C221.325 235.069 193.876 172.597 192.096 169.906C190.316 167.215 188.618 162.992 183.278 163.861C177.937 164.731 180.918 173.093 181.58 174.667C182.243 176.24 194.994 203.854 194.58 204.64C194.166 205.427 186.921 209.691 186.3 208.78C185.679 207.869 173.011 180.463 170.982 176.695C168.953 172.928 158.065 169.74 161.46 183.319C164.855 196.898 177.813 216.191 177.813 216.191C177.813 216.191 170.775 213.872 168.581 219.834Z" fill="white"/>
<path d="M709.017 292.532C710.856 290.008 713.556 288.244 716.606 287.573C719.657 286.902 722.847 287.37 725.577 288.889C726.987 289.693 728.611 290.041 730.227 289.886C731.843 289.73 733.371 289.078 734.602 288.02C736.732 285.63 739.687 284.134 742.875 283.835C746.062 283.535 749.245 284.454 751.783 286.405C753.044 287.611 754.716 288.292 756.461 288.31C759.731 288.31 761.677 288.061 764.368 283.093C765.403 281.23 768.508 282.762 767.349 284.708C766.567 286.891 765.091 288.758 763.147 290.021C761.203 291.285 758.898 291.876 756.585 291.704C754.059 291.709 751.617 290.797 749.713 289.138C747.813 287.763 745.477 287.13 743.143 287.359C740.81 287.587 738.64 288.662 737.044 290.38C735.345 292.087 733.112 293.162 730.717 293.425C728.322 293.689 725.909 293.126 723.879 291.829C721.908 290.63 719.555 290.223 717.295 290.692C715.036 291.161 713.039 292.47 711.707 294.354C711.425 294.584 711.075 294.716 710.711 294.732C710.347 294.748 709.988 294.646 709.686 294.442C709.384 294.238 709.156 293.942 709.035 293.598C708.915 293.254 708.908 292.88 709.017 292.532Z" fill="#193737"/>
<path d="M111.242 378.686C110.581 376.996 109.59 375.454 108.327 374.151C107.064 372.848 105.554 371.809 103.885 371.096C102.216 370.383 100.422 370.01 98.6074 369.998C96.7927 369.986 94.9937 370.336 93.3157 371.027C90.2445 372.342 86.7973 372.482 83.6295 371.421C80.4617 370.36 77.7944 368.171 76.1347 365.272C74.7395 362.858 72.4458 361.093 69.7542 360.364C67.0627 359.635 64.1919 360 61.7689 361.381C61.4456 361.601 61.0632 361.719 60.6718 361.719C60.2803 361.719 59.898 361.601 59.5747 361.381C59.3454 361.19 59.1704 360.943 59.0671 360.663C58.9638 360.384 58.936 360.082 58.9863 359.788C59.0367 359.494 59.1635 359.219 59.354 358.99C59.5444 358.761 59.7919 358.586 60.0715 358.483C62.1461 357.481 64.407 356.923 66.7095 356.844C69.0121 356.766 71.3057 357.169 73.4437 358.027C75.8021 359.281 77.7442 361.194 79.0327 363.533C80.3798 365.695 82.4577 367.301 84.8886 368.061C87.3196 368.821 89.9425 368.683 92.2807 367.673C95.6824 366.349 99.4029 366.075 102.962 366.887C105.648 367.527 108.123 368.851 110.147 370.73C112.171 372.608 113.674 374.978 114.512 377.609C114.655 378.043 114.62 378.516 114.414 378.923C114.208 379.331 113.849 379.64 113.415 379.783C112.982 379.926 112.509 379.89 112.101 379.684C111.694 379.479 111.385 379.12 111.242 378.686Z" fill="#193737"/>
<path d="M563.785 102.175L557.741 113.643L553.228 111.283C552.828 111.075 552.36 111.034 551.93 111.17C551.499 111.305 551.139 111.607 550.931 112.008C550.722 112.408 550.681 112.876 550.817 113.307C550.953 113.738 551.254 114.097 551.655 114.305L556.168 116.665L551.076 126.27C550.972 126.468 550.909 126.685 550.89 126.908C550.87 127.131 550.895 127.356 550.962 127.569C551.029 127.782 551.138 127.98 551.282 128.152C551.426 128.323 551.602 128.464 551.8 128.568C551.999 128.671 552.215 128.734 552.438 128.754C552.661 128.773 552.886 128.749 553.099 128.681C553.312 128.614 553.51 128.505 553.682 128.362C553.853 128.218 553.995 128.042 554.098 127.843L559.149 118.238L563.289 120.391C563.689 120.6 564.157 120.641 564.588 120.505C565.018 120.369 565.378 120.067 565.586 119.667C565.795 119.266 565.836 118.799 565.7 118.368C565.564 117.937 565.263 117.578 564.862 117.369L560.722 115.216L566.808 103.748C566.911 103.55 566.974 103.333 566.994 103.11C567.013 102.887 566.989 102.663 566.921 102.45C566.854 102.236 566.745 102.038 566.602 101.867C566.458 101.695 566.282 101.554 566.083 101.451C565.885 101.347 565.668 101.284 565.445 101.265C565.222 101.245 564.998 101.27 564.784 101.337C564.571 101.404 564.373 101.513 564.201 101.657C564.03 101.801 563.889 101.977 563.785 102.175Z" fill="#3B8363"/>
<path d="M258.212 138.442C256.108 138.442 254.051 137.818 252.301 136.648C250.551 135.479 249.187 133.818 248.382 131.873C247.577 129.929 247.366 127.79 247.777 125.726C248.187 123.662 249.201 121.766 250.689 120.278C252.177 118.79 254.072 117.777 256.136 117.366C258.2 116.956 260.34 117.167 262.284 117.972C264.228 118.777 265.89 120.141 267.059 121.891C268.228 123.64 268.852 125.697 268.852 127.802C268.852 130.624 267.731 133.33 265.736 135.325C263.74 137.321 261.034 138.442 258.212 138.442ZM258.212 120.598C256.777 120.598 255.375 121.024 254.183 121.822C252.99 122.62 252.062 123.754 251.515 125.08C250.968 126.407 250.827 127.865 251.109 129.272C251.392 130.678 252.087 131.969 253.104 132.981C254.121 133.992 255.416 134.679 256.824 134.954C258.232 135.229 259.69 135.079 261.013 134.525C262.337 133.97 263.465 133.035 264.256 131.838C265.047 130.641 265.465 129.236 265.457 127.802C265.446 125.887 264.678 124.055 263.32 122.706C261.963 121.356 260.126 120.598 258.212 120.598Z" fill="#193737"/>
<path d="M87.2298 256.142L76.2588 250.015L79.1568 244.798C79.32 244.414 79.3359 243.983 79.2014 243.588C79.0669 243.192 78.7914 242.861 78.4276 242.656C78.0639 242.451 77.6373 242.387 77.2296 242.477C76.8218 242.567 76.4614 242.803 76.2174 243.142L73.278 248.4C60.3612 241.196 60.0714 241.114 59.9886 241.072C59.5804 240.911 59.1256 240.914 58.7198 241.081C58.3139 241.248 57.9885 241.566 57.8117 241.967C57.635 242.369 57.6207 242.824 57.7718 243.236C57.923 243.648 58.2278 243.985 58.6224 244.177L71.622 251.381L68.5584 256.68C68.3388 257.075 68.2852 257.542 68.4094 257.976C68.5336 258.411 68.8255 258.779 69.2208 258.998C69.616 259.218 70.0824 259.272 70.5171 259.147C70.9519 259.023 71.3196 258.731 71.5392 258.336L74.52 252.995L85.491 259.123C85.8862 259.353 86.3569 259.417 86.7995 259.301C87.242 259.184 87.6202 258.897 87.8508 258.502C88.0813 258.106 88.1454 257.636 88.029 257.193C87.9125 256.751 87.625 256.372 87.2298 256.142Z" fill="#3B8363"/>
<path d="M593.924 203.522C610.794 206.49 626.089 215.28 637.146 228.362C637.746 229.144 638.605 229.686 639.569 229.891C640.532 230.096 641.537 229.95 642.404 229.48C648.572 226.499 660.827 217.598 655.403 195.574C648.324 166.594 615.576 163.737 602.039 174.625C598.198 177.492 595.116 181.254 593.06 185.583C591.004 189.912 590.036 194.677 590.24 199.465C590.317 200.454 590.72 201.39 591.387 202.125C592.054 202.859 592.947 203.351 593.924 203.522Z" fill="#67A67D"/>
<path d="M721.809 409.363C741.971 403.277 747.85 374.67 736.465 351.941C725.494 329.958 696.431 325.197 677.056 322.175C673.692 321.662 670.399 320.759 667.244 319.484C663.959 318.123 661.145 315.83 659.151 312.886C657.157 309.943 656.07 306.479 656.025 302.924C655.155 270.673 657.598 235.235 608.332 211.554C572.438 194.249 542.092 208.325 530.458 218.551C518.825 228.776 509.759 248.814 526.319 261.648C542.879 274.482 574.425 261.027 574.425 261.027C593.842 285.867 616.446 281.727 616.446 281.727C615.743 290.835 612.555 312.487 612.555 312.487C622.739 314.06 630.481 317.911 630.191 328.468C629.901 339.025 609.905 336.748 609.905 336.748C609.905 336.748 598.272 366.349 576.081 373.676L574.135 396.364C574.135 396.364 652.464 407.169 686.909 510.876C696.458 509.608 705.533 505.949 713.291 500.239C721.049 494.529 727.24 486.952 731.29 478.211C737.045 467.17 739.225 454.611 737.526 442.276C735.827 429.94 730.335 418.439 721.809 409.363Z" fill="#67A67D"/>
<path d="M522.261 336.748C511.486 353.17 507.467 373.117 511.042 392.431C519.229 390.889 527.553 390.195 535.882 390.361C538.728 383.124 540.648 375.557 541.595 367.839C536.431 364.24 532.053 359.628 528.729 354.282C525.405 348.937 523.205 342.971 522.261 336.748Z" fill="#67A67D"/>
<path d="M410.191 563.909C409.814 563.906 409.446 563.793 409.132 563.584C408.817 563.375 408.571 563.079 408.421 562.733C408.272 562.386 408.227 562.004 408.291 561.632C408.356 561.26 408.527 560.915 408.784 560.639C411.709 557.598 414.473 554.406 417.064 551.075C413.421 551.075 408.784 551.986 407.293 549.254C405.803 546.521 406.134 532.445 406.176 523.917C406.186 523.408 406.396 522.924 406.76 522.568C407.124 522.212 407.612 522.013 408.121 522.013C408.377 522.007 408.63 522.053 408.867 522.15C409.103 522.246 409.317 522.39 409.496 522.572C409.675 522.754 409.814 522.972 409.905 523.21C409.996 523.449 410.037 523.703 410.026 523.958C409.85 531.734 410.071 539.514 410.688 547.267C412.215 547.435 413.756 547.435 415.284 547.267C418.513 547.267 420.624 546.977 421.576 548.633C422.529 550.289 423.025 551.241 411.475 563.247C411.317 563.439 411.122 563.597 410.901 563.711C410.681 563.825 410.439 563.892 410.191 563.909Z" fill="#193737"/>
<path d="M424.929 541.678C424.659 541.686 424.39 541.635 424.141 541.529C423.892 541.423 423.669 541.264 423.488 541.063C423.307 540.862 423.171 540.624 423.091 540.366C423.011 540.107 422.989 539.834 423.025 539.566C423.522 534.805 426.213 526.898 432.961 527.519C439.709 528.14 441.241 538.573 441.241 538.987C441.297 539.256 441.295 539.534 441.235 539.802C441.176 540.07 441.06 540.323 440.896 540.544C440.732 540.764 440.522 540.947 440.282 541.081C440.042 541.215 439.776 541.296 439.502 541.32C439.229 541.343 438.953 541.308 438.693 541.218C438.434 541.127 438.196 540.982 437.997 540.793C437.797 540.604 437.64 540.375 437.536 540.12C437.431 539.866 437.382 539.593 437.391 539.318C437.391 539.318 436.646 531.7 432.754 531.369C428.862 531.038 427.331 536.585 426.958 539.98C426.906 540.471 426.665 540.922 426.287 541.239C425.908 541.555 425.422 541.713 424.929 541.678Z" fill="#193737"/>
<path d="M375.498 542.05C375.244 542.045 374.994 541.989 374.763 541.886C374.531 541.782 374.322 541.634 374.148 541.449C373.975 541.264 373.84 541.046 373.752 540.808C373.664 540.57 373.624 540.317 373.635 540.063C373.925 530.168 379.597 527.643 382.867 527.643C388.953 527.643 391.147 535.095 391.147 539.525C391.164 539.775 391.131 540.026 391.05 540.263C390.969 540.5 390.843 540.719 390.677 540.908C390.512 541.096 390.311 541.25 390.086 541.361C389.862 541.472 389.617 541.537 389.367 541.553C389.117 541.57 388.866 541.537 388.629 541.456C388.392 541.375 388.173 541.249 387.984 541.083C387.796 540.918 387.642 540.717 387.531 540.493C387.42 540.268 387.355 540.023 387.339 539.773C387.339 539.773 386.552 531.493 382.66 531.493C377.61 531.493 377.278 540.229 377.278 540.311C377.231 540.763 377.028 541.185 376.703 541.503C376.377 541.82 375.951 542.014 375.498 542.05Z" fill="#193737"/>
<path d="M439.503 521.64C439.029 521.636 438.572 521.46 438.219 521.143C436.691 519.739 434.718 518.916 432.645 518.818C430.572 518.719 428.53 519.352 426.876 520.605C426.68 520.767 426.454 520.888 426.21 520.959C425.966 521.03 425.711 521.051 425.459 521.02C425.207 520.989 424.964 520.907 424.745 520.779C424.525 520.65 424.335 520.478 424.185 520.274C424.026 520.079 423.907 519.854 423.836 519.612C423.764 519.371 423.741 519.118 423.768 518.868C423.795 518.618 423.871 518.375 423.993 518.155C424.114 517.934 424.278 517.74 424.474 517.583C426.837 515.75 429.772 514.815 432.759 514.944C435.746 515.073 438.591 516.257 440.786 518.287C441.086 518.542 441.299 518.884 441.396 519.265C441.494 519.647 441.47 520.049 441.33 520.417C441.189 520.785 440.938 521.1 440.61 521.319C440.283 521.538 439.896 521.65 439.503 521.64Z" fill="#193737"/>
<path d="M391.934 519.529C391.468 519.523 391.016 519.363 390.65 519.073C389.007 517.459 386.816 516.524 384.513 516.455C382.211 516.386 379.967 517.188 378.23 518.701C377.835 519.023 377.332 519.182 376.823 519.143C376.314 519.105 375.84 518.872 375.498 518.494C375.315 518.316 375.17 518.104 375.071 517.869C374.972 517.634 374.92 517.382 374.92 517.127C374.92 516.873 374.972 516.62 375.071 516.386C375.17 516.151 375.315 515.939 375.498 515.761C377.942 513.69 381.06 512.585 384.263 512.654C387.466 512.722 390.533 513.96 392.886 516.134C393.185 516.366 393.407 516.682 393.525 517.041C393.644 517.401 393.652 517.787 393.55 518.151C393.448 518.515 393.24 518.841 392.952 519.086C392.664 519.331 392.31 519.485 391.934 519.529Z" fill="#193737"/>
<path d="M407.169 584.609C404.002 584.336 400.989 583.121 398.518 581.122C396.047 579.122 394.229 576.43 393.3 573.39C393.214 572.923 393.301 572.44 393.546 572.033C393.791 571.626 394.176 571.323 394.629 571.18C395.083 571.038 395.572 571.066 396.006 571.259C396.44 571.453 396.788 571.798 396.985 572.231C397.68 574.513 399.033 576.539 400.874 578.055C402.715 579.572 404.962 580.513 407.335 580.759H407.583C414.787 580.759 416.567 572.769 416.608 572.479C416.728 571.989 417.032 571.565 417.458 571.295C417.884 571.026 418.399 570.932 418.892 571.034C419.386 571.136 419.821 571.426 420.105 571.842C420.39 572.258 420.501 572.769 420.417 573.266C419.908 576.418 418.297 579.288 415.871 581.365C413.446 583.442 410.362 584.592 407.169 584.609Z" fill="#193737"/>
<path d="M436.025 558.652C436.025 559.64 436.553 560.588 437.492 561.286C438.432 561.985 439.706 562.378 441.034 562.378C442.363 562.378 443.637 561.985 444.576 561.286C445.516 560.588 446.044 559.64 446.044 558.652C446.044 557.663 445.516 556.716 444.576 556.017C443.637 555.318 442.363 554.926 441.034 554.926C439.706 554.926 438.432 555.318 437.492 556.017C436.553 556.716 436.025 557.663 436.025 558.652Z" fill="#FCCAC2"/>
<path d="M374.67 558.238C374.67 559.226 375.211 560.174 376.174 560.872C377.136 561.571 378.442 561.964 379.804 561.964C381.165 561.964 382.471 561.571 383.434 560.872C384.396 560.174 384.937 559.226 384.937 558.238C384.937 557.249 384.396 556.302 383.434 555.603C382.471 554.904 381.165 554.512 379.804 554.512C378.442 554.512 377.136 554.904 376.174 555.603C375.211 556.302 374.67 557.249 374.67 558.238Z" fill="#FCCAC2"/>
<path d="M589.924 311.204C590.468 311.31 591.032 311.288 591.582 311.141C592.133 310.994 592.66 310.723 593.133 310.345C593.606 309.967 594.015 309.489 594.339 308.938C594.662 308.387 594.893 307.773 595.017 307.133C595.142 306.492 595.158 305.837 595.064 305.205C594.971 304.573 594.77 303.976 594.473 303.448C594.176 302.921 593.789 302.473 593.334 302.13C592.879 301.787 592.364 301.556 591.82 301.45C590.72 301.237 589.566 301.545 588.611 302.309C587.656 303.072 586.978 304.228 586.727 305.521C586.475 306.815 586.671 308.14 587.27 309.206C587.87 310.271 588.825 310.99 589.924 311.204Z" fill="#193737"/>
<path d="M547.885 298.985C548.985 299.198 550.139 298.89 551.094 298.126C552.049 297.363 552.727 296.207 552.979 294.914C553.23 293.62 553.034 292.295 552.435 291.229C551.835 290.164 550.881 289.445 549.781 289.231C548.682 289.018 547.528 289.326 546.572 290.09C545.617 290.853 544.939 292.009 544.688 293.302C544.437 294.596 544.632 295.921 545.232 296.987C545.831 298.052 546.786 298.771 547.885 298.985Z" fill="#193737"/>
<path d="M614.293 329.13C613.868 329.142 613.452 329.012 613.109 328.76C612.767 328.507 612.519 328.148 612.405 327.738C612.29 327.329 612.316 326.893 612.479 326.5C612.641 326.107 612.93 325.779 613.3 325.57C614.832 324.626 616.438 323.809 618.102 323.127C618.336 323.033 618.586 322.987 618.838 322.99C619.089 322.994 619.338 323.047 619.569 323.147C619.8 323.247 620.009 323.392 620.183 323.573C620.358 323.755 620.495 323.969 620.586 324.203C620.686 324.436 620.737 324.687 620.736 324.941C620.736 325.194 620.684 325.445 620.583 325.677C620.482 325.91 620.335 326.119 620.151 326.293C619.966 326.467 619.748 326.601 619.51 326.687C616.156 328.054 615.411 329.13 614.293 329.13Z" fill="#193737"/>
<path d="M556.954 323.168C551.779 324.783 552.814 319.649 553.27 318.283C557.12 304.58 569.83 285.701 570.244 284.915C571.568 282.886 574.839 284.915 573.431 287.026C573.431 287.026 560.68 306.153 556.871 319.277L565.151 315.137C567.346 314.06 569.291 317.497 566.89 318.573C567.18 318.532 557.327 323.168 556.954 323.168Z" fill="#193737"/>
<path d="M558.113 342.916C557.246 342.995 556.373 342.995 555.505 342.916C546.273 341.426 544.493 330.91 544.451 330.496C544.375 329.997 544.499 329.487 544.798 329.079C545.097 328.672 545.546 328.4 546.045 328.323C546.545 328.246 547.055 328.371 547.462 328.67C547.87 328.968 548.142 329.417 548.219 329.917C548.219 330.248 549.668 338.197 556.126 339.149C558.101 339.546 560.151 339.331 562 338.532C563.85 337.733 565.411 336.388 566.476 334.678C566.601 334.455 566.769 334.259 566.97 334.101C567.171 333.942 567.401 333.825 567.647 333.756C567.893 333.687 568.15 333.667 568.404 333.697C568.658 333.727 568.903 333.807 569.126 333.932C569.349 334.057 569.545 334.225 569.703 334.426C569.861 334.627 569.978 334.857 570.047 335.103C570.116 335.349 570.136 335.606 570.106 335.86C570.076 336.114 569.996 336.359 569.871 336.582C568.603 338.542 566.86 340.15 564.805 341.258C562.749 342.365 560.448 342.935 558.113 342.916Z" fill="#193737"/>
<path d="M600.838 292.988C600.462 292.123 599.912 291.344 599.222 290.701C598.532 290.058 597.717 289.563 596.827 289.249C595.938 288.934 594.993 288.806 594.052 288.872C593.111 288.939 592.194 289.198 591.358 289.634C590.907 289.865 590.384 289.907 589.903 289.752C589.421 289.597 589.021 289.257 588.791 288.806C588.56 288.356 588.518 287.833 588.673 287.351C588.828 286.87 589.169 286.47 589.619 286.24C590.893 285.549 592.297 285.13 593.741 285.008C595.185 284.886 596.639 285.063 598.012 285.53C599.384 285.996 600.645 286.742 601.715 287.719C602.786 288.696 603.643 289.884 604.233 291.208C604.469 291.658 604.517 292.183 604.365 292.669C604.214 293.154 603.876 293.559 603.426 293.795C602.975 294.031 602.45 294.079 601.965 293.927C601.479 293.776 601.074 293.438 600.838 292.988Z" fill="#193737"/>
<path d="M557.989 279.74C557.011 278.302 555.552 277.262 553.874 276.806C552.196 276.351 550.41 276.51 548.84 277.256C548.397 277.405 547.915 277.389 547.482 277.212C547.049 277.034 546.695 276.707 546.484 276.29C546.273 275.873 546.219 275.393 546.332 274.94C546.446 274.486 546.719 274.089 547.101 273.82C549.476 272.67 552.183 272.4 554.738 273.06C557.293 273.72 559.531 275.265 561.053 277.421C561.205 277.623 561.316 277.852 561.38 278.096C561.443 278.34 561.458 278.594 561.424 278.844C561.389 279.094 561.306 279.335 561.178 279.552C561.051 279.77 560.881 279.96 560.68 280.112C560.479 280.265 560.25 280.376 560.006 280.439C559.762 280.503 559.507 280.518 559.257 280.483C559.008 280.449 558.767 280.365 558.549 280.238C558.332 280.11 558.141 279.941 557.989 279.74Z" fill="#193737"/>
<path d="M585.065 327.929C585.065 328.468 585.215 329.001 585.506 329.498C585.797 329.995 586.224 330.447 586.763 330.828C587.301 331.208 587.94 331.51 588.643 331.716C589.346 331.922 590.1 332.028 590.861 332.028C591.622 332.028 592.376 331.922 593.079 331.716C593.782 331.51 594.421 331.208 594.959 330.828C595.497 330.447 595.924 329.995 596.216 329.498C596.507 329.001 596.657 328.468 596.657 327.929C596.657 327.391 596.507 326.858 596.216 326.361C595.924 325.864 595.497 325.412 594.959 325.031C594.421 324.651 593.782 324.349 593.079 324.143C592.376 323.937 591.622 323.831 590.861 323.831C590.1 323.831 589.346 323.937 588.643 324.143C587.94 324.349 587.301 324.651 586.763 325.031C586.224 325.412 585.797 325.864 585.506 326.361C585.215 326.858 585.065 327.391 585.065 327.929Z" fill="#FCCAC2"/>
<path d="M533.584 318.008C534.229 318.256 534.903 318.407 535.57 318.452C536.236 318.497 536.881 318.435 537.468 318.269C538.055 318.104 538.572 317.838 538.99 317.488C539.408 317.138 539.719 316.709 539.904 316.227C540.09 315.745 540.147 315.219 540.072 314.679C539.997 314.139 539.791 313.595 539.467 313.079C539.142 312.562 538.705 312.084 538.181 311.67C537.657 311.256 537.055 310.916 536.411 310.668C535.767 310.42 535.092 310.269 534.426 310.224C533.759 310.179 533.114 310.241 532.528 310.407C531.941 310.572 531.423 310.838 531.005 311.188C530.587 311.538 530.277 311.967 530.091 312.449C529.905 312.931 529.849 313.457 529.924 313.997C529.999 314.537 530.204 315.081 530.529 315.597C530.853 316.114 531.29 316.592 531.814 317.006C532.339 317.42 532.94 317.76 533.584 318.008Z" fill="#FCCAC2"/>
<path d="M408.866 236.601C406.299 236.531 403.809 235.709 401.704 234.237C399.6 232.765 397.973 230.708 397.026 228.321C396.834 227.849 396.837 227.32 397.035 226.85C397.233 226.38 397.61 226.008 398.082 225.816C398.554 225.624 399.083 225.627 399.553 225.825C400.022 226.023 400.394 226.4 400.586 226.872C401.263 228.478 402.364 229.87 403.772 230.899C405.18 231.927 406.84 232.553 408.577 232.709C414.166 232.916 417.146 225.878 417.188 225.796C417.283 225.562 417.423 225.349 417.601 225.169C417.778 224.99 417.989 224.847 418.222 224.749C418.454 224.651 418.704 224.6 418.956 224.598C419.209 224.597 419.459 224.645 419.693 224.74C419.926 224.835 420.139 224.975 420.319 225.153C420.498 225.33 420.641 225.541 420.739 225.774C420.837 226.006 420.888 226.256 420.89 226.508C420.892 226.761 420.843 227.011 420.748 227.245C420.583 227.7 416.857 236.601 408.866 236.601Z" fill="#193737"/>
<path d="M374.652 220.674C375.96 220.829 377.261 220.588 378.268 220.004C379.276 219.419 379.907 218.54 380.024 217.559C380.14 216.577 379.732 215.575 378.889 214.771C378.046 213.967 376.837 213.429 375.529 213.274C374.881 213.197 374.228 213.217 373.607 213.332C372.987 213.447 372.411 213.655 371.912 213.944C371.413 214.233 371.001 214.598 370.7 215.018C370.399 215.437 370.214 215.903 370.157 216.389C370.099 216.875 370.17 217.371 370.364 217.85C370.559 218.328 370.874 218.779 371.292 219.177C371.709 219.575 372.22 219.912 372.797 220.169C373.374 220.425 374.004 220.597 374.652 220.674Z" fill="#FCCAC2"/>
<path d="M438.053 216.977C438.053 217.966 438.577 218.913 439.508 219.612C440.44 220.311 441.704 220.703 443.021 220.703C444.339 220.703 445.602 220.311 446.534 219.612C447.466 218.913 447.989 217.966 447.989 216.977C447.989 215.989 447.466 215.041 446.534 214.343C445.602 213.644 444.339 213.251 443.021 213.251C441.704 213.251 440.44 213.644 439.508 214.343C438.577 215.041 438.053 215.989 438.053 216.977Z" fill="#FCCAC2"/>
<path d="M444.264 166.842C438.39 166.621 432.641 168.565 428.107 172.305C423.573 176.045 420.571 181.32 419.672 187.128C418.351 186.51 416.961 186.051 415.532 185.762C414.373 178.889 413.089 174.087 412.965 173.673C412.822 173.184 412.491 172.773 412.045 172.528C411.599 172.283 411.073 172.226 410.585 172.369C410.096 172.512 409.684 172.843 409.44 173.289C409.195 173.736 409.138 174.261 409.281 174.749C409.281 174.749 410.522 179.179 411.64 185.472C409.247 185.556 406.883 186.032 404.644 186.88C404.11 180.846 401.27 175.251 396.713 171.26C392.156 167.269 386.235 165.19 380.184 165.457C374.132 165.724 368.417 168.316 364.23 172.692C360.042 177.069 357.705 182.892 357.705 188.95C357.705 195.007 360.042 200.831 364.23 205.207C368.417 209.583 374.132 212.175 380.184 212.442C386.235 212.709 392.156 210.63 396.713 206.639C401.27 202.649 404.11 197.053 404.644 191.02C407.027 189.899 409.628 189.319 412.261 189.322C413.347 196.165 413.68 203.107 413.255 210.022C413.255 210.395 412.8 210.353 412.551 210.271L405.72 209.111C405.464 209.058 405.199 209.058 404.942 209.111C404.686 209.165 404.443 209.271 404.229 209.422C404.016 209.574 403.836 209.768 403.7 209.992C403.565 210.216 403.477 210.466 403.443 210.726C403.39 211.21 403.517 211.697 403.799 212.094C404.082 212.491 404.5 212.77 404.975 212.879C408.246 213.453 411.551 213.813 414.87 213.955C416.029 213.955 417.105 213.458 417.271 210.56C417.613 203.728 417.294 196.879 416.318 190.109C417.487 190.428 418.603 190.916 419.631 191.558C419.778 196.257 421.297 200.809 424 204.656C426.704 208.502 430.473 211.473 434.844 213.204C439.215 214.934 443.996 215.348 448.6 214.395C453.203 213.442 457.427 211.162 460.751 207.838C464.075 204.514 466.354 200.29 467.308 195.687C468.261 191.084 467.847 186.302 466.116 181.931C464.386 177.56 461.414 173.791 457.568 171.088C453.722 168.385 449.169 166.866 444.47 166.718L444.264 166.842ZM380.135 208.78C376.314 208.543 372.647 207.186 369.592 204.879C366.537 202.573 364.229 199.417 362.955 195.807C361.681 192.197 361.498 188.292 362.428 184.579C363.359 180.865 365.362 177.508 368.188 174.925C371.013 172.342 374.537 170.649 378.319 170.055C382.101 169.461 385.974 169.994 389.455 171.586C392.936 173.179 395.872 175.761 397.895 179.011C399.919 182.26 400.941 186.034 400.835 189.86C400.723 192.464 400.099 195.019 398.997 197.38C397.895 199.742 396.338 201.862 394.415 203.62C392.491 205.378 390.24 206.739 387.789 207.624C385.339 208.51 382.738 208.903 380.135 208.78ZM443.022 209.857C439.19 209.627 435.511 208.275 432.443 205.968C429.376 203.661 427.055 200.502 425.772 196.884C424.489 193.267 424.299 189.352 425.227 185.627C426.155 181.903 428.159 178.534 430.989 175.941C433.82 173.349 437.351 171.647 441.142 171.049C444.934 170.45 448.817 170.982 452.308 172.577C455.8 174.172 458.744 176.76 460.773 180.018C462.803 183.275 463.829 187.059 463.722 190.895C463.485 196.16 461.167 201.116 457.278 204.671C453.388 208.227 448.245 210.092 442.98 209.857H443.022Z" fill="#193737"/>
<path d="M805.354 721.312H773.021C773.393 712.453 773.021 692.581 773.021 684.052C773 682.829 772.504 681.662 771.639 680.797C770.774 679.932 769.607 679.437 768.384 679.415H762.547V653.333C762.527 652.127 762.051 650.973 761.213 650.104C760.375 649.236 759.239 648.718 758.034 648.655C755.467 648.655 752.238 648.655 748.595 648.365C748.967 642.487 748.388 631.267 744.952 626.216C744.458 625.481 743.817 624.857 743.07 624.381C742.323 623.906 741.486 623.59 740.611 623.454C739.736 623.318 738.843 623.364 737.987 623.59C737.13 623.816 736.33 624.217 735.637 624.767C735.254 623.623 734.638 622.571 733.827 621.678C733.017 620.785 732.029 620.071 730.927 619.58C729.825 619.089 728.633 618.833 727.427 618.828C726.221 618.823 725.026 619.07 723.92 619.551C722.858 618.306 721.422 617.436 719.826 617.071C718.231 616.705 716.56 616.864 715.061 617.522C706.781 559.562 680.202 443.974 604.688 407.707C595.463 403.231 585.897 399.494 576.081 396.529C575.896 389.788 576.284 383.043 577.24 376.367C577.303 375.958 577.475 375.574 577.737 375.253C577.999 374.933 578.342 374.689 578.731 374.546C585.944 371.35 592.39 366.649 597.638 360.759C602.887 354.868 606.815 347.924 609.16 340.391C609.349 339.942 609.675 339.565 610.092 339.313C610.508 339.06 610.993 338.945 611.478 338.983C636.939 339.935 632.178 323.21 630.563 320.519C627.01 316.105 621.954 313.157 616.363 312.239C615.762 312.109 615.233 311.753 614.886 311.244C614.54 310.736 614.401 310.114 614.5 309.506C615.411 303.503 617.108 291.994 618.392 282.472C618.458 281.967 618.32 281.457 618.01 281.053C617.699 280.649 617.241 280.385 616.736 280.319C616.231 280.254 615.72 280.391 615.316 280.702C614.913 281.012 614.649 281.47 614.583 281.975C613.3 291.456 611.561 302.924 610.691 308.927C610.436 310.515 610.806 312.141 611.725 313.461C612.644 314.782 614.04 315.694 615.618 316.006C620.184 316.675 624.35 318.986 627.334 322.506C628.535 324.286 631.764 335.671 611.768 334.926C610.417 334.841 609.075 335.199 607.947 335.946C606.818 336.693 605.965 337.789 605.516 339.066C603.344 346.086 599.697 352.561 594.821 358.058C589.944 363.556 583.951 367.949 577.24 370.944C576.253 371.336 575.383 371.977 574.716 372.803C574.048 373.63 573.606 374.615 573.431 375.664C572.497 382.203 572.096 388.807 572.231 395.411C572.231 397.026 572.976 401.166 570.989 402.035C565.953 404.395 560.423 405.507 554.867 405.276C549.311 405.046 543.892 403.48 539.069 400.711C538.566 400.41 538.181 399.947 537.977 399.397C537.774 398.847 537.765 398.244 537.952 397.688C538.655 395.577 543.375 374.587 543.913 371.399C547.384 372.904 551.027 373.975 554.76 374.587C555.007 374.631 555.261 374.625 555.506 374.571C555.751 374.516 555.983 374.414 556.189 374.27C556.395 374.126 556.57 373.942 556.705 373.73C556.84 373.518 556.931 373.282 556.975 373.035C557.018 372.787 557.013 372.534 556.958 372.289C556.904 372.043 556.802 371.811 556.657 371.606C556.513 371.4 556.33 371.225 556.118 371.09C555.906 370.955 555.67 370.863 555.422 370.82C525.283 365.562 521.557 337.948 527.602 307.975C527.602 307.188 536.917 266.285 536.999 265.912C537.053 265.437 536.931 264.959 536.655 264.569C536.379 264.179 535.969 263.904 535.504 263.797C535.038 263.689 534.549 263.757 534.13 263.987C533.711 264.217 533.392 264.592 533.232 265.043C532.942 266.409 523.958 306.443 523.834 307.188C519.073 330.952 519.28 357.613 540.394 369.619C539.647 376.631 538.261 383.559 536.254 390.319C519.605 390.023 503.096 393.397 487.898 400.202C472.701 407.006 459.188 417.074 448.321 429.691C438.136 407.128 409.446 404.147 389.657 434.866C386.422 431.561 382.328 429.224 377.837 428.12C373.346 427.015 368.636 427.187 364.237 428.614C352.935 432.754 351.279 442.4 347.926 450.266C342.502 462.686 342.958 462.397 334.015 466.826C332.306 467.591 330.647 468.462 329.047 469.435C324.502 459.434 318.349 450.245 310.831 442.235C318.2 404.354 316.751 402.242 316.255 401.539C316.088 401.3 315.873 401.099 315.623 400.949C315.373 400.799 315.095 400.704 314.806 400.669C313.771 400.669 311.825 400.255 286.943 425.84C275.592 421.298 263.166 420.148 251.174 422.528C249.932 415.521 249.625 408.379 250.263 401.29C256.381 399.128 261.885 395.518 266.304 390.767C270.723 386.016 273.927 380.266 275.641 374.008C277.532 364.827 278.475 355.477 278.456 346.104C302.22 313.771 338.735 283.466 378.355 286.736C378.106 287.896 377.816 289.055 377.527 290.214C377.312 291.332 377.402 292.487 377.788 293.558C378.174 294.629 378.842 295.576 379.721 296.3C394.832 310.583 416.194 303.007 424.06 296.3C425.017 295.534 425.757 294.531 426.207 293.391C426.658 292.251 426.802 291.013 426.627 289.8C426.627 288.848 426.337 287.647 426.172 286.322C439.146 285.749 452.091 287.982 464.123 292.869C476.154 297.756 486.99 305.182 495.889 314.64C504.297 323.316 510.972 333.518 515.554 344.696C515.76 345.137 516.123 345.485 516.573 345.671C517.022 345.857 517.525 345.868 517.983 345.702C518.44 345.536 518.818 345.204 519.043 344.773C519.268 344.342 519.323 343.842 519.197 343.372C514.476 331.73 507.561 321.105 498.829 312.073C489.443 302.26 478.067 294.567 465.464 289.512C452.862 284.456 439.323 282.155 425.758 282.762C425.344 278.001 425.426 265.043 425.385 264.877C444.926 257.798 454.862 236.974 457.677 217.681C460.823 195.988 458.422 180.421 457.677 154.919C462.342 152.805 466.395 149.543 469.457 145.438C472.519 141.333 474.492 136.519 475.189 131.445C475.591 123.172 473.906 114.93 470.289 107.478C466.672 100.027 461.239 93.6048 454.489 88.803C437.929 77.5008 420.293 89.424 405.182 88.5132C390.071 87.6024 386.096 83.2968 368.667 88.5132C351.238 93.7296 345.152 114.471 341.467 122.42C337.783 130.369 320.767 145.024 319.484 161.874C318.407 177.151 329.958 190.854 332.194 193.131C327.267 205.882 335.257 209.691 338.238 211.388C339.563 218.261 344.158 234.2 358.11 239.251C360.925 246.164 368.005 260.365 380.466 266.036C380.431 271.751 379.946 277.454 379.017 283.093C339.48 279.491 302.427 307.933 278.332 339.48V322.423C282.363 304.361 281.332 285.537 275.351 268.024C271.852 272.581 267.868 276.746 263.47 280.444C263.47 280.444 271.253 289.055 274.565 317.704C273.985 336.748 275.227 357.241 271.501 373.055C269.403 381.365 264.328 388.615 257.239 393.431C250.149 398.246 241.538 400.292 233.041 399.179C232.576 399.184 232.128 399.356 231.779 399.663C231.43 399.97 231.202 400.392 231.137 400.852C231.072 401.313 231.174 401.781 231.424 402.173C231.675 402.564 232.057 402.854 232.502 402.988C236.996 403.16 241.496 402.966 245.957 402.408C245.394 409.817 245.839 417.268 247.282 424.557C245.361 428.446 242.41 431.734 238.751 434.063C235.092 436.392 230.864 437.673 226.527 437.767C222.191 437.861 217.911 436.764 214.155 434.595C210.398 432.427 207.308 429.27 205.22 425.468C207.794 416.237 209.376 406.758 209.939 397.192C209.978 396.802 209.895 396.41 209.702 396.069C209.509 395.729 209.216 395.456 208.863 395.287C202.69 391.688 197.61 386.479 194.166 380.218C190.386 371.775 188.102 362.74 187.418 353.515C187.418 353.515 168.457 348.34 171.106 335.174C172.969 325.901 186.507 328.633 193.379 329.668C193.982 329.779 194.602 329.754 195.193 329.596C195.785 329.438 196.335 329.15 196.802 328.754C197.269 328.358 197.643 327.863 197.896 327.306C198.149 326.748 198.275 326.141 198.265 325.528C198.265 317 198.265 299.239 201.452 295.886C207 289.8 252.043 290.255 268.355 271.915C280.775 258.129 278.167 239.375 276.179 230.929C276.064 230.44 275.832 229.985 275.503 229.605C275.173 229.225 274.757 228.931 274.288 228.748C273.82 228.564 273.314 228.497 272.814 228.553C272.314 228.609 271.835 228.785 271.418 229.066C264.819 233.567 257.387 236.706 249.559 238.298C234.904 241.072 186.052 243.515 171.396 268.852C161.46 286.281 159.183 312.777 168.084 330.372C167.112 333.315 166.8 336.436 167.172 339.513C167.545 342.59 168.591 345.548 170.237 348.174C171.065 357.489 174.791 376.202 191.227 382.412C194.842 388.758 199.978 394.107 206.172 397.978C205.493 406.605 204.108 415.162 202.032 423.563C152.89 406.258 109.379 450.887 97.0003 523.958C85.2013 593.469 95.5927 684.301 97.0003 694.899C95.9204 694.61 94.7931 694.542 93.6865 694.701C92.5798 694.859 91.5167 695.24 90.5611 695.82C89.6056 696.4 88.7775 697.168 88.1267 698.077C87.4759 698.986 87.0159 700.017 86.7745 701.109C86.055 700.592 85.2349 700.231 84.3672 700.05C83.4996 699.87 82.6037 699.873 81.7375 700.06C80.8712 700.248 80.0539 700.615 79.3384 701.138C78.6229 701.66 78.0251 702.328 77.5837 703.096C73.9819 709.182 75.0169 720.733 75.0997 721.312H22.6459C22.3694 721.272 22.0874 721.291 21.8191 721.369C21.5508 721.447 21.3024 721.582 21.0909 721.765C20.8794 721.947 20.7098 722.173 20.5935 722.428C20.4772 722.682 20.417 722.958 20.417 723.237C20.417 723.517 20.4772 723.793 20.5935 724.047C20.7098 724.301 20.8794 724.527 21.0909 724.71C21.3024 724.893 21.5508 725.028 21.8191 725.106C22.0874 725.184 22.3694 725.203 22.6459 725.162H75.3067C75.8608 729.997 77.3814 734.672 79.7779 738.907C80.1868 739.741 80.8044 740.454 81.5706 740.979C82.3369 741.503 83.2258 741.82 84.1508 741.899C85.0759 741.979 86.0058 741.817 86.85 741.431C87.6942 741.044 88.424 740.446 88.9687 739.694C89.1757 740.149 95.2615 749.133 99.8155 740.563C99.8155 741.019 104.535 747.767 108.841 741.515C108.841 741.515 113.27 745.904 116.251 738.7C117.729 734.394 118.634 729.912 118.942 725.369C119.191 725.369 128.795 725.162 128.795 725.162C131.279 739.031 138.98 737.086 140.926 734.891C142.875 732.042 143.768 728.601 143.451 725.162H147.591C145.811 570.658 149.123 538.862 149.164 538.283C149.219 537.778 149.472 537.315 149.868 536.997C150.264 536.678 150.771 536.53 151.276 536.585C151.781 536.64 152.243 536.894 152.562 537.29C152.88 537.686 153.028 538.192 152.973 538.697C152.973 539.028 149.661 570.989 151.441 724.997H805.561C805.838 725.037 806.12 725.018 806.388 724.94C806.656 724.862 806.905 724.727 807.116 724.544C807.328 724.362 807.497 724.136 807.614 723.881C807.73 723.627 807.79 723.351 807.79 723.072C807.79 722.792 807.73 722.516 807.614 722.262C807.497 722.008 807.328 721.782 807.116 721.599C806.905 721.416 806.656 721.282 806.388 721.203C806.12 721.125 805.838 721.106 805.561 721.147L805.354 721.312ZM362.954 240.327C359.274 231.977 356.833 223.135 355.709 214.079C355.614 212.919 355.074 211.841 354.202 211.069C353.33 210.298 352.194 209.893 351.031 209.939C329.71 210.312 335.092 194.746 336.706 192.8C343.496 185.638 354.136 189.86 356.785 187.666C359.435 185.472 362.002 161.129 377.113 158.686C388.373 156.74 398.351 163.696 408.866 162.288C419.382 160.88 424.433 155.291 433.292 153.76C442.152 152.228 447.948 156.037 453.992 155.871C454.406 155.871 453.992 154.463 454.903 174.584C456.062 198.596 457.056 225.175 443.725 245.336C440.517 250.58 436.074 254.958 430.784 258.09C425.495 261.222 419.519 263.012 413.379 263.304C412.917 263.372 412.495 263.604 412.19 263.957C411.884 264.311 411.716 264.762 411.716 265.229C411.716 265.696 411.884 266.148 412.19 266.501C412.495 266.854 412.917 267.086 413.379 267.154C416.173 267.007 418.945 266.591 421.659 265.912C421.242 274.213 421.658 282.534 422.901 290.752C422.999 291.269 422.949 291.803 422.759 292.293C422.569 292.783 422.245 293.21 421.825 293.526C402.408 308.223 387.752 298.535 382.37 293.526C382.02 293.267 381.743 292.92 381.569 292.521C381.394 292.121 381.328 291.682 381.377 291.249C383.488 282.535 384.517 273.594 384.44 264.629C384.429 264.254 384.31 263.891 384.097 263.582C383.884 263.274 383.586 263.033 383.24 262.89C372.807 258.667 366.183 247.448 362.954 240.327ZM83.0071 736.92C78.257 727.087 77.3706 715.829 80.5231 705.373C80.7181 704.897 81.0457 704.487 81.4668 704.191C81.888 703.895 82.3852 703.726 82.8993 703.705C83.4135 703.683 83.9232 703.809 84.3678 704.068C84.8125 704.327 85.1736 704.708 85.4083 705.166C83.8054 714.623 84.2858 724.315 86.8159 733.567C88.2235 739.321 83.7109 737.872 83.0071 736.92ZM95.0959 740.812C94.2679 740.812 92.7361 739.57 91.3699 735.471C87.8668 725.686 87.1783 715.115 89.3827 704.959C89.3827 704.959 92.0323 696.679 96.4207 699.039C93.9426 711.068 94.3684 723.515 97.6627 735.347C97.6627 736.051 97.8283 740.108 95.2201 740.646L95.0959 740.812ZM106.646 735.181C106.646 736.672 105.943 740.273 104.411 740.273C104.411 740.273 103.376 739.735 102.299 737.127C101.223 734.519 95.5927 714.605 100.271 699.37C100.688 698.619 101.277 697.978 101.991 697.5C102.704 697.021 103.521 696.719 104.374 696.618C105.227 696.517 106.092 696.62 106.897 696.919C107.702 697.217 108.425 697.703 109.006 698.335C109.006 698.335 104.866 706.864 106.646 735.016V735.181ZM138.028 732.49C137.531 733.07 135.005 734.767 133.018 727.274C132.679 725.121 131.731 723.11 130.286 721.478C126.704 720.947 123.063 720.947 119.48 721.478C119.687 720.194 120.598 716.758 119.77 716.096C119.367 715.79 118.86 715.654 118.358 715.716C117.855 715.777 117.397 716.033 117.079 716.427C114.264 719.987 115.382 740.191 111.739 739.197C109.917 739.197 107.599 722.637 111.739 701.73C111.987 700.612 112.649 698.045 114.678 698.045C119.232 698.045 122.958 703.469 125.318 707.071C127.057 709.679 128.092 711.211 129.706 711.459C132.08 712.085 134.234 713.356 135.93 715.132C137.625 716.908 138.796 719.119 139.311 721.519C139.803 725.172 139.361 728.889 138.028 732.325V732.49ZM741.805 628.328C746.815 635.242 745.034 663.062 740.398 665.588C739.735 666.002 737.748 664.511 737.417 660.703C738.163 649.929 737.983 639.112 736.879 628.369C737.178 628.016 737.548 627.728 737.964 627.524C738.38 627.321 738.834 627.206 739.297 627.186C739.759 627.167 740.221 627.244 740.653 627.411C741.085 627.579 741.477 627.835 741.805 628.162V628.328ZM730.627 623.691C731.538 624.643 736.133 632.716 733.401 661.241C732.697 668.527 727.274 668.983 727.605 664.222C728.309 654.037 728.888 632.468 725.576 622.822C726.359 622.303 727.305 622.088 728.235 622.217C729.165 622.347 730.016 622.812 730.627 623.525V623.691ZM720.65 621.497C723.553 629.794 724.955 638.542 724.79 647.33C724.79 659.295 723.506 664.594 722.347 666.871C722.204 667.148 721.982 667.376 721.71 667.527C721.437 667.677 721.126 667.743 720.815 667.717C720.505 667.69 720.209 667.572 719.966 667.377C719.723 667.182 719.543 666.92 719.449 666.623C718.367 660.446 717.868 654.181 717.959 647.91C717.864 639.389 716.164 630.962 712.949 623.07C713.334 622.442 713.84 621.898 714.438 621.469C715.036 621.041 715.715 620.737 716.432 620.574C717.15 620.412 717.893 620.396 718.618 620.526C719.342 620.656 720.033 620.93 720.65 621.331V621.497ZM691.67 637.063C693.864 637.063 695.603 635.076 697.01 632.261C702.848 620.669 708.975 623.525 710.051 625.927C712.59 632.988 713.987 640.409 714.191 647.91C714.191 648.2 715.475 668.072 713.115 667.741C710.714 668.072 708.644 651.884 707.899 647.91C707.749 645.542 707.04 643.243 705.829 641.203C705.619 640.958 705.351 640.768 705.05 640.652C704.748 640.536 704.423 640.496 704.102 640.538C703.782 640.579 703.477 640.699 703.214 640.887C702.952 641.076 702.741 641.327 702.599 641.617C702.185 642.487 702.599 643.108 702.972 643.894C703.313 644.746 703.549 645.635 703.676 646.544C700.612 646.544 690.014 646.544 689.766 649.028C688.565 660.537 683.224 664.718 682.065 651.843C682.024 650.808 680.864 636.98 691.835 636.898L691.67 637.063ZM622.987 539.98C641.327 562.295 660.661 638.678 662.98 648.158L622.946 648.531C618.93 608.58 623.153 539.815 623.153 539.815L622.987 539.98ZM617.812 653.292C617.833 653.065 617.938 652.854 618.107 652.701C618.275 652.548 618.495 652.463 618.723 652.464C627.003 652.464 651.595 652.05 678.049 651.884C678.877 663.062 683.928 663.725 685.832 663.601C692.249 663.311 691.09 652.588 693.077 650.849C696.788 650.133 700.588 650.007 704.338 650.477C704.338 650.849 706.408 671.881 713.074 671.881C713.762 671.921 714.445 671.737 715.019 671.356C715.594 670.975 716.03 670.419 716.261 669.769C716.827 670.434 717.55 670.946 718.365 671.259C719.179 671.572 720.06 671.676 720.925 671.56C721.79 671.445 722.612 671.115 723.316 670.599C724.02 670.084 724.584 669.4 724.956 668.61C725.836 669.958 727.151 670.966 728.681 671.467C732.49 672.502 735.388 667.741 735.595 667.327C736.09 668.082 736.778 668.691 737.587 669.091C738.397 669.49 739.299 669.665 740.2 669.597C741.1 669.53 741.966 669.222 742.707 668.706C743.448 668.19 744.037 667.485 744.413 666.664C746.555 662.189 747.794 657.335 748.057 652.381C748.057 652.381 755.053 652.381 757.62 652.381C757.851 652.381 758.072 652.473 758.235 652.636C758.398 652.799 758.49 653.02 758.49 653.251V679.208C757.91 679.208 634.579 678.877 617.729 679.208C617.895 675.441 617.44 664.801 617.978 653.126L617.812 653.292ZM598.934 684.176C598.934 683.935 599.03 683.703 599.201 683.532C599.371 683.362 599.603 683.266 599.845 683.266C614.914 682.976 765.693 683.266 768.094 683.266C768.325 683.266 768.546 683.357 768.709 683.52C768.872 683.683 768.964 683.904 768.964 684.135V689.434H598.851L598.934 684.176ZM321.968 484.132C325.652 470.801 342.668 467.323 345.731 463.432C351.486 456.062 350.327 437.391 365.314 432.009C378.23 427.372 387.918 438.55 388.291 439.006C388.497 439.239 388.756 439.42 389.045 439.535C389.335 439.65 389.648 439.695 389.958 439.667C390.268 439.638 390.567 439.538 390.832 439.373C391.096 439.207 391.317 438.982 391.478 438.716C391.478 438.716 402.532 420.251 417.726 416.525C437.143 411.723 446.251 434.99 446.706 436.025C450.71 443.593 456.371 450.159 463.266 455.234C470.594 458.464 484.256 464.508 486.45 477.052C487.693 482.606 487.777 488.356 486.698 493.943C483.304 509.22 495.558 520.025 493.405 534.847C492.37 542.299 487.816 545.652 483.014 549.212C478.45 552.489 474.662 556.729 471.919 561.632C467.779 568.753 463.225 576.785 452.461 576.122C456.601 557.534 456.601 527.353 456.601 514.312C456.573 512.701 455.94 511.16 454.828 509.994C453.716 508.828 452.206 508.123 450.598 508.019C443.865 507.712 437.275 505.976 431.264 502.927C421.369 497.38 416.443 468.482 393.259 470.635C392.8 470.665 392.369 470.864 392.048 471.192C391.728 471.521 391.539 471.957 391.52 472.415C391.52 472.415 390.65 486.036 386.262 492.701C378.479 504.542 363.906 497.587 356.62 511.331C355.948 512.605 355.619 514.032 355.667 515.471C356.04 525.863 357.779 561.011 360.304 571.361C351.61 571.361 336.706 569.581 331.324 562.709C322.34 551.158 330.372 538.448 329.875 527.312C329.378 516.175 316.13 505.577 321.968 484.132ZM408.577 615.411C414.491 615.778 420.41 614.787 425.882 612.513C425.328 619.43 425.69 626.39 426.958 633.213C427.056 633.64 427.022 634.087 426.859 634.494C426.696 634.901 426.413 635.248 426.047 635.49C407.417 647.91 393.3 638.554 388.084 633.875C387.75 633.584 387.512 633.199 387.401 632.771C387.291 632.342 387.312 631.89 387.463 631.474C389.194 625.173 390.098 618.674 390.154 612.14C390.157 611.768 390.054 611.402 389.856 611.086C389.658 610.771 389.373 610.519 389.036 610.36C380.259 606.22 368.336 593.593 364.196 570.533C361.685 552.233 360.165 533.811 359.642 515.347C359.635 514.587 359.805 513.836 360.139 513.153C368.419 497.628 391.52 514.312 395.329 474.403C414.869 474.403 418.181 500.029 429.525 506.322C436.038 509.674 443.198 511.581 450.515 511.911C451.148 511.953 451.743 512.231 452.18 512.692C452.618 513.152 452.866 513.76 452.875 514.395C452.875 525.49 452.875 563.081 447.41 580.635C444.305 590.405 434.327 613.01 408.784 611.809C408.417 611.934 408.095 612.165 407.86 612.473C407.625 612.782 407.488 613.153 407.466 613.54C407.444 613.927 407.538 614.312 407.735 614.645C407.933 614.979 408.226 615.245 408.577 615.411ZM360.18 618.102C357.572 615.701 350.658 616.57 348.091 617.026C348.198 616.395 348.351 615.772 348.547 615.163C348.715 614.978 348.846 614.762 348.931 614.526C349.016 614.291 349.053 614.041 349.042 613.791C349.03 613.542 348.97 613.296 348.863 613.07C348.757 612.843 348.607 612.64 348.422 612.472C348.238 612.303 348.021 612.173 347.786 612.088C347.551 612.003 347.301 611.965 347.051 611.976C346.801 611.988 346.556 612.049 346.33 612.155C346.103 612.261 345.9 612.411 345.731 612.596C344.567 615.804 343.789 619.14 343.413 622.532C342.833 626.92 341.384 638.388 339.273 639.589C337.865 637.933 336.623 630.149 336.541 621.497C336.541 615.204 337.824 597.443 343.123 597.443C351.403 597.443 355.999 608.207 359.683 608.414C360.056 608.414 367.259 608.663 368.667 614.624C369.051 616.7 368.87 618.841 368.141 620.823C367.413 622.804 366.165 624.553 364.527 625.885C363.865 626.423 362.126 627.541 360.76 626.796C360.346 626.589 360.76 624.685 360.76 623.65C360.76 622.615 361.795 619.385 360.18 618.102ZM333.767 635.614C334.015 642.28 328.964 639.547 327.515 634.455C324.598 622.37 324.513 609.774 327.267 597.65C328.136 594.628 336.665 596.574 335.92 598.975C332.644 610.906 331.967 623.4 333.932 635.614H333.767ZM316.379 600.3C317.181 599.539 318.178 599.016 319.26 598.789C320.342 598.563 321.466 598.641 322.506 599.017C319.691 608.207 321.264 626.258 324.121 635.821C323.665 641.534 318.78 641.12 317.579 638.719C312.943 629.611 310.955 605.475 316.379 600.3ZM312.239 635.407C312.736 636.732 311.038 642.901 306.691 637.436C302.344 631.971 297.542 597.857 310.334 604.688C309.478 609.049 309.185 613.501 309.465 617.936C309.465 621.29 312.115 635.407 312.115 635.49L312.239 635.407ZM294.52 511.207C294.23 508.889 298.039 508.309 298.328 510.669C302.707 538.778 305.472 567.114 306.608 595.539C306.608 598.023 302.841 597.857 302.758 595.539C301.581 567.347 298.789 539.245 294.395 511.373L294.52 511.207ZM312.694 405.72C312.197 411.433 309.92 425.054 307.312 438.84C302.322 434.178 296.655 430.297 290.504 427.331C299.363 418.14 308.471 409.28 312.694 405.72ZM404.147 691.38C398.144 692.374 389.864 693.864 381.128 695.52C380.632 692.084 379.928 688.813 379.265 686.039C384.358 686.578 395.577 687.82 404.105 689.393L404.147 691.38ZM403.898 695.313C403.345 703.943 403.345 712.599 403.898 721.229H333.063C333.063 717.959 333.518 711.045 337.865 709.389C347.512 705.704 386.055 698.459 403.898 695.52V695.313ZM595.249 683.928V721.188H407.997C407.175 709.175 407.341 697.115 408.494 685.129C434.079 684.218 526.732 676.849 527.684 676.6C528.19 676.562 528.659 676.324 528.989 675.94C529.319 675.556 529.482 675.056 529.444 674.551C529.406 674.046 529.168 673.577 528.784 673.247C528.399 672.917 527.9 672.753 527.395 672.791C526.401 672.791 429.442 680.74 406.714 681.32C406.243 681.328 405.792 681.511 405.448 681.832C405.104 682.153 404.892 682.59 404.851 683.059C404.851 683.059 404.851 684.094 404.602 685.543C394.873 683.804 382.246 682.479 378.189 682.065C377.527 679.705 376.988 678.173 376.947 677.925C376.805 677.53 376.538 677.191 376.188 676.96C375.837 676.728 375.421 676.617 375.001 676.642C327.101 679.622 248.897 676.642 248.11 676.642C247.604 676.641 247.117 676.833 246.747 677.179C246.378 677.525 246.155 677.999 246.123 678.505C246.112 678.758 246.152 679.011 246.24 679.249C246.328 679.487 246.463 679.705 246.636 679.89C246.81 680.076 247.019 680.224 247.25 680.327C247.482 680.431 247.732 680.487 247.986 680.492C248.773 680.492 325.528 683.473 373.759 680.492C375.35 685.568 376.554 690.758 377.361 696.017C363.55 698.377 349.891 701.556 336.458 705.539C329.875 708.064 329.171 716.882 329.213 720.981H193.297C211.388 669.686 259.537 643.604 299.984 630.481C305.118 648.572 313.357 641.824 314.309 640.499C321.968 648.448 325.114 642.652 326.191 640.789C332.111 646.254 335.05 642.652 336.044 641.162C336.044 641.162 345.11 651.181 347.636 620.71C347.636 620.71 347.636 619.427 357.241 620.089C357.396 620.966 357.396 621.862 357.241 622.739C355.543 632.551 364.403 630.688 367.094 628.618C369.262 626.863 370.918 624.557 371.887 621.942C372.855 619.327 373.102 616.499 372.6 613.755C371.849 611.096 370.258 608.752 368.064 607.073C365.87 605.394 363.191 604.47 360.428 604.44C359.393 597.775 357.779 588.128 355.253 574.673C357.779 574.88 359.89 574.922 361.215 574.922C365.355 592.682 374.96 607.255 386.055 613.051C385.961 618.749 385.141 624.411 383.612 629.901C383.217 631.037 383.168 632.265 383.47 633.429C383.772 634.593 384.412 635.642 385.31 636.442C400.669 650.684 420.376 643.522 427.993 638.388C428.988 637.715 429.759 636.761 430.209 635.647C430.658 634.534 430.766 633.312 430.519 632.137C429.76 628.137 429.359 624.077 429.318 620.006C514.188 612.265 588.998 673.33 596.947 680.078C596.368 680.549 595.912 681.152 595.617 681.837C595.321 682.521 595.195 683.267 595.249 684.011V683.928ZM769.129 721.188H599.099V715.185C607.793 715.185 762.008 715.433 769.295 715.185C769.253 717.669 769.212 719.698 769.171 721.312L769.129 721.188ZM769.129 711.418C747.394 711.956 610.36 711.418 598.892 711.418V693.036H769.047C769.295 698.749 769.378 705.58 769.336 711.542L769.129 711.418Z" fill="#193737"/>
<path d="M654.451 733.401C653.95 733.39 653.471 733.186 653.117 732.832C652.762 732.477 652.558 731.998 652.547 731.497V701.771C652.506 701.495 652.526 701.213 652.604 700.945C652.682 700.676 652.817 700.428 653 700.216C653.182 700.005 653.408 699.835 653.662 699.719C653.917 699.603 654.193 699.543 654.472 699.543C654.752 699.543 655.028 699.603 655.282 699.719C655.536 699.835 655.762 700.005 655.945 700.216C656.127 700.428 656.262 700.676 656.34 700.945C656.419 701.213 656.438 701.495 656.397 701.771V731.497C656.386 732.006 656.177 732.49 655.813 732.846C655.449 733.202 654.96 733.401 654.451 733.401Z" fill="#67A67D"/>
<path d="M377.154 189.819C377.154 191.422 377.647 192.959 378.524 194.093C379.402 195.227 380.592 195.863 381.832 195.863C383.073 195.863 384.263 195.227 385.14 194.093C386.018 192.959 386.511 191.422 386.511 189.819C386.511 188.216 386.018 186.679 385.14 185.545C384.263 184.411 383.073 183.775 381.832 183.775C380.592 183.775 379.402 184.411 378.524 185.545C377.647 186.679 377.154 188.216 377.154 189.819Z" fill="#193737"/>
<path d="M433.044 190.564C433.044 192.167 433.537 193.705 434.414 194.838C435.292 195.972 436.481 196.609 437.722 196.609C438.963 196.609 440.153 195.972 441.03 194.838C441.907 193.705 442.4 192.167 442.4 190.564C442.4 188.961 441.907 187.424 441.03 186.29C440.153 185.157 438.963 184.52 437.722 184.52C436.481 184.52 435.292 185.157 434.414 186.29C433.537 187.424 433.044 188.961 433.044 190.564Z" fill="#193737"/>
<path d="M348.298 202.032C348.052 202.036 347.808 201.991 347.581 201.898C347.353 201.806 347.146 201.668 346.973 201.494C345.767 200.464 344.356 199.702 342.833 199.258C342.345 199.115 341.933 198.784 341.688 198.338C341.444 197.892 341.386 197.366 341.529 196.878C341.672 196.389 342.003 195.977 342.449 195.733C342.896 195.488 343.421 195.431 343.91 195.574C345.963 196.184 347.847 197.261 349.416 198.72C349.675 198.976 349.856 199.3 349.94 199.654C350.024 200.009 350.007 200.38 349.89 200.725C349.774 201.07 349.563 201.375 349.281 201.606C349 201.837 348.659 201.985 348.298 202.032Z" fill="#193737"/>
<path d="M223.022 234.655C222.117 231.835 220.715 229.199 218.882 226.872C217.184 222.732 197.188 175.867 194.414 170.444C189.985 161.833 185.513 161.087 182.533 162.164C177.109 163.861 178.061 171.355 179.593 175.039C181.125 178.724 190.688 199.3 192.551 204.723C190.886 205.629 189.172 206.444 187.418 207.166C186.052 204.35 180.463 191.392 176.447 183.195C171.934 173.88 167.463 169.74 163.199 171.644C157.9 173.839 157.361 180.297 161.708 190.813C165.434 198.756 169.58 206.495 174.128 213.997C172.843 213.915 171.565 214.25 170.484 214.95C169.403 215.651 168.576 216.681 168.125 217.888C162.619 217.888 158.976 221.573 160.591 229.108C162.826 239.458 174.667 255.728 180.38 256.307C186.093 256.887 185.72 252.167 185.72 250.511C195.449 253.12 192.51 240.7 191.434 237.843C191.93 237.843 204.226 233.703 205.675 241.114C206.172 243.515 210.105 242.356 209.36 239.954C206.545 230.971 197.933 232.544 192.262 233.744C186.59 234.945 186.052 232.751 186.714 231.55C188.825 227.741 194.994 223.726 204.309 223.27C213.624 222.815 219.296 235.69 219.379 235.69C219.592 236.073 219.929 236.372 220.334 236.54C220.738 236.708 221.188 236.734 221.61 236.614C222.031 236.494 222.4 236.236 222.656 235.88C222.913 235.525 223.042 235.093 223.022 234.655ZM180.711 252.54C178.02 252.292 166.594 238.919 164.151 228.362C163.737 226.582 162.826 221.159 167.587 221.821C169.996 231.287 174.671 240.025 181.208 247.282C183.568 252.54 181.332 252.54 180.711 252.54ZM204.143 219.42C182.781 220.331 176.198 238.091 187.376 238.216C190.895 245.999 187.128 246.992 186.176 246.496C179.161 239.679 174.113 231.098 171.562 221.656C171.562 220.207 172.679 216.025 176.53 218.385L179.8 223.56C180.093 223.934 180.512 224.189 180.978 224.276C181.445 224.362 181.928 224.275 182.335 224.031C182.742 223.787 183.046 223.402 183.189 222.949C183.332 222.496 183.305 222.007 183.112 221.573C183.112 221.324 168.995 198.43 165.269 189.322C163.364 184.727 160.798 176.902 164.689 175.163C166.138 174.542 169.119 176.737 172.969 184.685C175.784 190.523 178.475 196.609 180.67 201.535C184.81 211.306 184.81 211.306 186.59 211.181C189.878 210.258 193.016 208.864 195.905 207.041C197.478 205.758 197.602 205.634 186.755 181.663C185.099 177.937 183.609 174.708 183.112 173.383C182.036 170.775 181.415 166.511 183.65 165.683C186.548 164.565 189.488 169.367 190.937 172.183C193.09 176.323 206.172 206.959 212.258 221.242C209.759 219.936 206.961 219.308 204.143 219.42Z" fill="#193737"/>
<path d="M298.577 373.345L303.794 363.658C304.067 363.26 304.478 362.977 304.947 362.866C305.417 362.754 305.911 362.82 306.334 363.053C306.757 363.285 307.079 363.666 307.237 364.122C307.395 364.578 307.377 365.077 307.188 365.521L301.931 375.167C301.689 375.612 301.281 375.942 300.795 376.086C300.31 376.229 299.788 376.174 299.343 375.933C298.898 375.691 298.568 375.283 298.424 374.798C298.281 374.312 298.336 373.79 298.577 373.345Z" fill="#193737"/>
<path d="M343.289 332.525L337.493 323.21C337.279 322.779 337.232 322.284 337.362 321.821C337.492 321.357 337.789 320.958 338.195 320.701C338.602 320.444 339.089 320.346 339.563 320.427C340.038 320.508 340.465 320.762 340.763 321.14L346.559 330.496C346.744 330.924 346.768 331.404 346.628 331.849C346.488 332.294 346.194 332.673 345.798 332.919C345.401 333.165 344.93 333.26 344.47 333.188C344.009 333.115 343.59 332.88 343.289 332.525Z" fill="#193737"/>
<path d="M383.613 378.396L388.829 368.708C389.107 368.331 389.511 368.066 389.968 367.963C390.425 367.86 390.904 367.925 391.317 368.147C391.729 368.368 392.048 368.731 392.215 369.169C392.382 369.607 392.385 370.09 392.224 370.53L387.007 380.218C386.73 380.595 386.326 380.86 385.869 380.963C385.412 381.066 384.933 381.001 384.52 380.779C384.107 380.558 383.788 380.195 383.621 379.757C383.455 379.319 383.452 378.836 383.613 378.396Z" fill="#193737"/>
<path d="M335.34 413.296L341.964 422.073C342.271 422.479 342.405 422.991 342.335 423.496C342.265 424 341.998 424.457 341.591 424.764C341.185 425.071 340.673 425.205 340.169 425.135C339.664 425.065 339.208 424.798 338.9 424.391L332.276 415.615C331.969 415.208 331.835 414.697 331.905 414.192C331.975 413.687 332.243 413.231 332.649 412.924C333.055 412.616 333.567 412.483 334.072 412.553C334.576 412.622 335.033 412.89 335.34 413.296Z" fill="#193737"/>
<path d="M442.608 394.583L441.283 383.695C441.217 383.19 441.354 382.68 441.665 382.276C441.975 381.872 442.434 381.608 442.939 381.542C443.444 381.477 443.954 381.614 444.358 381.925C444.762 382.235 445.026 382.693 445.092 383.198L446.416 394.128C446.477 394.633 446.334 395.141 446.02 395.541C445.705 395.941 445.245 396.2 444.74 396.26C444.49 396.29 444.236 396.27 443.994 396.202C443.751 396.134 443.524 396.019 443.326 395.863C442.926 395.549 442.668 395.088 442.608 394.583Z" fill="#193737"/>
<path d="M448.983 329.378L444.057 319.567C443.945 319.341 443.879 319.096 443.863 318.845C443.846 318.593 443.879 318.342 443.96 318.103C444.04 317.865 444.167 317.645 444.333 317.455C444.499 317.266 444.7 317.111 444.926 317C445.152 316.888 445.397 316.822 445.648 316.806C445.899 316.789 446.151 316.822 446.389 316.903C446.628 316.984 446.848 317.111 447.037 317.276C447.227 317.442 447.381 317.644 447.493 317.869L452.461 327.681C452.625 328.133 452.616 328.629 452.436 329.074C452.255 329.52 451.917 329.883 451.485 330.093C451.053 330.304 450.559 330.348 450.097 330.216C449.635 330.084 449.238 329.785 448.983 329.378Z" fill="#193737"/>
<path d="M484.09 361.67L494.896 363.699C495.37 363.829 495.777 364.133 496.036 364.55C496.295 364.967 496.386 365.467 496.292 365.949C496.198 366.432 495.924 366.86 495.527 367.149C495.13 367.438 494.638 367.566 494.15 367.508L483.386 365.479C482.922 365.346 482.524 365.044 482.269 364.633C482.015 364.222 481.923 363.731 482.01 363.256C482.098 362.78 482.36 362.354 482.744 362.061C483.129 361.768 483.609 361.629 484.09 361.67Z" fill="#193737"/>
<path d="M240.12 347.18C242.965 344.455 245.557 341.475 247.862 338.279C243.473 337.824 237.76 339.025 236.477 336.002C235.616 328.916 235.27 321.776 235.442 314.64C235.401 314.364 235.42 314.082 235.498 313.813C235.577 313.545 235.712 313.297 235.894 313.085C236.077 312.874 236.303 312.704 236.557 312.588C236.811 312.471 237.087 312.411 237.367 312.411C237.646 312.411 237.922 312.471 238.177 312.588C238.431 312.704 238.657 312.874 238.839 313.085C239.022 313.297 239.157 313.545 239.235 313.813C239.313 314.082 239.333 314.364 239.292 314.64C239.292 322.92 239.499 331.78 239.871 334.264C243.39 334.967 251.919 333.063 252.002 337.493C252.002 340.225 246.992 345.773 242.687 349.913C242.312 350.156 241.864 350.261 241.42 350.207C240.977 350.154 240.566 349.946 240.26 349.62C239.955 349.295 239.773 348.872 239.747 348.426C239.721 347.98 239.853 347.539 240.12 347.18Z" fill="#193737"/>
<path d="M211.14 318.78C210.775 318.781 210.418 318.677 210.11 318.481C209.802 318.284 209.558 318.004 209.405 317.672C209.252 317.341 209.198 316.972 209.249 316.611C209.3 316.25 209.453 315.91 209.691 315.634C211.54 313.518 214.133 312.195 216.932 311.941C219.73 311.686 222.519 312.52 224.719 314.267C225.084 314.58 225.321 315.017 225.383 315.493C225.445 315.97 225.329 316.453 225.056 316.848C224.784 317.244 224.375 317.525 223.907 317.637C223.44 317.749 222.948 317.684 222.525 317.455C221.118 316.248 219.293 315.641 217.443 315.764C215.592 315.888 213.864 316.733 212.631 318.118C212.449 318.334 212.22 318.506 211.962 318.621C211.704 318.735 211.423 318.79 211.14 318.78Z" fill="#193737"/>
<path d="M263.552 317.124C263.307 317.126 263.064 317.079 262.836 316.987C262.609 316.895 262.402 316.758 262.228 316.586C261.616 315.974 260.89 315.488 260.091 315.157C259.292 314.825 258.435 314.655 257.57 314.655C256.705 314.655 255.848 314.825 255.049 315.157C254.25 315.488 253.524 315.974 252.913 316.586C252.549 316.945 252.058 317.146 251.546 317.146C251.035 317.146 250.544 316.945 250.18 316.586C249.997 316.408 249.852 316.196 249.753 315.961C249.654 315.727 249.603 315.474 249.603 315.22C249.603 314.965 249.654 314.713 249.753 314.478C249.852 314.243 249.997 314.031 250.18 313.853C251.136 312.88 252.276 312.106 253.534 311.578C254.793 311.05 256.143 310.778 257.508 310.778C258.873 310.778 260.223 311.05 261.482 311.578C262.74 312.106 263.88 312.88 264.836 313.853C265.087 314.122 265.257 314.456 265.326 314.817C265.395 315.178 265.361 315.552 265.227 315.894C265.092 316.236 264.864 316.533 264.567 316.751C264.271 316.969 263.919 317.098 263.552 317.124Z" fill="#193737"/>
<path d="M184.396 342.502C183.029 341.426 179.8 339.439 179.8 339.439C179.548 339.327 179.323 339.163 179.139 338.957C178.956 338.752 178.818 338.51 178.735 338.247C178.651 337.984 178.625 337.707 178.657 337.433C178.69 337.159 178.78 336.895 178.921 336.659C179.063 336.423 179.254 336.219 179.48 336.062C179.706 335.905 179.963 335.798 180.234 335.747C180.505 335.697 180.784 335.705 181.052 335.77C181.319 335.835 181.57 335.957 181.787 336.127C181.787 336.127 185.224 338.279 186.797 339.48C187.127 339.819 187.322 340.267 187.346 340.739C187.369 341.212 187.22 341.677 186.926 342.048C186.631 342.418 186.212 342.669 185.746 342.752C185.281 342.836 184.801 342.747 184.396 342.502Z" fill="#193737"/>
<path d="M237.884 377.775C229.936 377.775 225.216 371.482 223.601 363.74C223.503 363.266 223.516 362.775 223.641 362.307C223.766 361.839 223.999 361.407 224.32 361.045C224.642 360.683 225.044 360.401 225.495 360.222C225.945 360.043 226.431 359.972 226.913 360.014C234.073 360.492 241.259 360.382 248.4 359.683C248.899 359.625 249.404 359.687 249.874 359.864C250.344 360.041 250.765 360.328 251.101 360.701C251.437 361.074 251.68 361.521 251.808 362.007C251.935 362.493 251.945 363.002 251.836 363.492C248.814 376.16 241.486 377.775 237.884 377.775ZM227.7 363.906C228.611 367.384 231.095 373.594 237.595 373.925C244.094 374.256 246.785 367.466 247.779 363.616C241.104 364.233 234.39 364.33 227.7 363.906Z" fill="#193737"/>
<path d="M211.72 329.875C211.72 331.259 212.147 332.585 212.908 333.564C213.669 334.542 214.701 335.092 215.777 335.092C216.853 335.092 217.885 334.542 218.646 333.564C219.407 332.585 219.834 331.259 219.834 329.875C219.834 328.492 219.407 327.165 218.646 326.187C217.885 325.208 216.853 324.659 215.777 324.659C214.701 324.659 213.669 325.208 212.908 326.187C212.147 327.165 211.72 328.492 211.72 329.875Z" fill="#193737"/>
<path d="M254.403 329.42C254.403 330.803 254.831 332.13 255.592 333.108C256.353 334.087 257.384 334.636 258.461 334.636C259.537 334.636 260.569 334.087 261.329 333.108C262.09 332.13 262.518 330.803 262.518 329.42C262.518 328.036 262.09 326.709 261.329 325.731C260.569 324.753 259.537 324.203 258.461 324.203C257.384 324.203 256.353 324.753 255.592 325.731C254.831 326.709 254.403 328.036 254.403 329.42Z" fill="#193737"/>
<path d="M209.363 348.506C210.01 348.583 210.663 348.563 211.284 348.448C211.904 348.333 212.481 348.125 212.979 347.836C213.478 347.547 213.89 347.182 214.191 346.762C214.492 346.343 214.677 345.877 214.735 345.391C214.792 344.905 214.722 344.409 214.527 343.93C214.332 343.452 214.017 343.001 213.6 342.603C213.182 342.205 212.671 341.868 212.094 341.611C211.518 341.354 210.888 341.183 210.24 341.106C209.592 341.029 208.939 341.049 208.318 341.164C207.698 341.279 207.122 341.487 206.623 341.776C206.124 342.065 205.712 342.43 205.411 342.85C205.11 343.269 204.925 343.735 204.868 344.221C204.81 344.707 204.881 345.203 205.075 345.682C205.27 346.16 205.585 346.611 206.002 347.009C206.42 347.407 206.931 347.744 207.508 348.001C208.084 348.257 208.715 348.429 209.363 348.506Z" fill="#FCCAC2"/>
<path d="M260.977 346.97C261.009 347.459 261.168 347.934 261.447 348.369C261.725 348.804 262.116 349.19 262.599 349.506C263.082 349.822 263.646 350.06 264.259 350.208C264.873 350.356 265.524 350.411 266.175 350.369C266.826 350.327 267.465 350.189 268.054 349.964C268.643 349.738 269.172 349.429 269.61 349.054C270.048 348.679 270.387 348.245 270.607 347.778C270.827 347.311 270.924 346.819 270.893 346.331C270.861 345.843 270.702 345.367 270.424 344.932C270.145 344.497 269.754 344.111 269.271 343.795C268.789 343.48 268.224 343.241 267.611 343.093C266.997 342.945 266.346 342.89 265.695 342.932C265.044 342.974 264.406 343.112 263.816 343.338C263.227 343.563 262.698 343.873 262.26 344.248C261.822 344.623 261.483 345.056 261.263 345.523C261.043 345.99 260.946 346.482 260.977 346.97Z" fill="#FCCAC2"/>
<path d="M219.834 441.034C215.962 439.996 212.34 438.19 209.181 435.721C206.023 433.253 203.395 430.174 201.452 426.668C201.367 426.511 201.249 426.375 201.106 426.268C200.963 426.16 200.799 426.085 200.624 426.047C196.899 425.352 193.11 425.061 189.322 425.178C189.155 425.183 188.991 425.222 188.84 425.292C188.688 425.362 188.552 425.462 188.44 425.585C188.328 425.709 188.242 425.854 188.188 426.012C188.133 426.169 188.11 426.336 188.121 426.503C189.322 450.598 192.261 462.479 193.793 466.992C193.871 467.204 194.004 467.391 194.178 467.535C194.351 467.68 194.56 467.775 194.783 467.813C195.005 467.851 195.234 467.829 195.445 467.751C195.657 467.672 195.844 467.539 195.987 467.365C203.182 458.427 211.362 450.331 220.372 443.228C220.559 443.081 220.699 442.883 220.776 442.657C220.854 442.432 220.865 442.19 220.808 441.958C220.751 441.727 220.629 441.517 220.456 441.353C220.284 441.189 220.068 441.079 219.834 441.034Z" fill="white"/>
<path d="M259.164 426.42C259.164 425.937 258.972 425.474 258.631 425.132C258.289 424.79 257.826 424.598 257.343 424.598C255.578 424.68 253.82 424.888 252.085 425.219C251.758 425.275 251.453 425.42 251.204 425.64C250.955 425.859 250.773 426.144 250.677 426.461C247.696 434.493 238.257 439.751 233.372 441.407C233.086 441.496 232.828 441.656 232.62 441.871C232.412 442.087 232.262 442.351 232.184 442.64C232.105 442.929 232.101 443.233 232.171 443.524C232.241 443.815 232.384 444.083 232.585 444.305C239.83 452.585 249.684 463.307 254.155 468.068C254.393 468.307 254.692 468.477 255.019 468.56C255.347 468.642 255.69 468.634 256.014 468.536C256.337 468.438 256.627 468.254 256.854 468.004C257.081 467.754 257.235 467.447 257.301 467.116C258.778 453.604 259.4 440.011 259.164 426.42Z" fill="white"/>
</svg>
