<svg width="25" height="24" viewBox="0 0 25 24" fill="none" xmlns="http://www.w3.org/2000/svg">
<path d="M7.5 17.013L11.913 16.998L21.545 7.45799C21.923 7.07999 22.131 6.57799 22.131 6.04399C22.131 5.50999 21.923 5.00799 21.545 4.62999L19.959 3.04399C19.203 2.28799 17.884 2.29199 17.134 3.04099L7.5 12.583V17.013ZM18.545 4.45799L20.134 6.04099L18.537 7.62299L16.951 6.03799L18.545 4.45799ZM9.5 13.417L15.53 7.44399L17.116 9.02999L11.087 15.001L9.5 15.006V13.417Z" fill="white"/>
<path d="M5.5 21H19.5C20.603 21 21.5 20.103 21.5 19V10.332L19.5 12.332V19H8.658C8.632 19 8.605 19.01 8.579 19.01C8.546 19.01 8.513 19.001 8.479 19H5.5V5H12.347L14.347 3H5.5C4.397 3 3.5 3.897 3.5 5V19C3.5 20.103 4.397 21 5.5 21Z" fill="white"/>
</svg>
