<svg width="167" height="167" viewBox="0 0 167 167" fill="none" xmlns="http://www.w3.org/2000/svg">
<path d="M37.8022 150.032C35.6848 150.032 33.654 149.191 32.1568 147.694L13.9839 129.521C12.4867 128.024 11.6455 125.993 11.6455 123.876V43.1244C11.6455 41.007 12.4867 38.9762 13.9839 37.479L32.1568 19.3061C33.654 17.8089 35.6848 16.9677 37.8022 16.9677H129.198C131.316 16.9677 133.347 17.8089 134.844 19.3061L153.017 37.479C154.514 38.9762 155.355 41.007 155.355 43.1244V123.876C155.355 125.993 154.514 128.024 153.017 129.521L134.844 147.694C133.347 149.191 131.316 150.032 129.198 150.032H37.8022Z" fill="#B1B1B1" stroke="#231F20" stroke-width="2" stroke-linecap="round" stroke-linejoin="round"/>
<path d="M12.9756 40.254H22.2901" stroke="#231F20" stroke-width="2" stroke-linecap="round" stroke-linejoin="round"/>
<path d="M12.9756 126.746H22.2901" stroke="#231F20" stroke-width="2" stroke-linecap="round" stroke-linejoin="round"/>
<path d="M150.032 80.8387H166V86.1613H150.032V80.8387Z" fill="#231F20" stroke="#231F20" stroke-width="2" stroke-linecap="round" stroke-linejoin="round"/>
<path d="M150.032 56.8871H166V62.2097H150.032V56.8871Z" fill="#231F20" stroke="#231F20" stroke-width="2" stroke-linecap="round" stroke-linejoin="round"/>
<path d="M150.032 104.79H166V110.113H150.032V104.79Z" fill="#231F20" stroke="#231F20" stroke-width="2" stroke-linecap="round" stroke-linejoin="round"/>
<path d="M1 80.8387H16.9677V86.1613H1V80.8387Z" fill="#231F20" stroke="#231F20" stroke-width="2" stroke-linecap="round" stroke-linejoin="round"/>
<path d="M1 56.8871H16.9677V62.2097H1V56.8871Z" fill="#231F20" stroke="#231F20" stroke-width="2" stroke-linecap="round" stroke-linejoin="round"/>
<path d="M1 104.79H16.9677V110.113H1V104.79Z" fill="#231F20" stroke="#231F20" stroke-width="2" stroke-linecap="round" stroke-linejoin="round"/>
<path d="M86.1611 1V16.9677H80.8386V1L86.1611 1Z" fill="#231F20" stroke="#231F20" stroke-width="2" stroke-linecap="round" stroke-linejoin="round"/>
<path d="M110.113 1V16.9677H104.791V1L110.113 1Z" fill="#231F20" stroke="#231F20" stroke-width="2" stroke-linecap="round" stroke-linejoin="round"/>
<path d="M62.21 1V16.9677H56.8874V1L62.21 1Z" fill="#231F20" stroke="#231F20" stroke-width="2" stroke-linecap="round" stroke-linejoin="round"/>
<path d="M86.1611 150.032V166H80.8386V150.032H86.1611Z" fill="#231F20" stroke="#231F20" stroke-width="2" stroke-linecap="round" stroke-linejoin="round"/>
<path d="M110.113 150.032V166H104.791V150.032H110.113Z" fill="#231F20" stroke="#231F20" stroke-width="2" stroke-linecap="round" stroke-linejoin="round"/>
<path d="M62.21 150.032V166H56.8874V150.032H62.21Z" fill="#231F20" stroke="#231F20" stroke-width="2" stroke-linecap="round" stroke-linejoin="round"/>
<path d="M48.4467 150.032C46.3293 150.032 44.2986 149.191 42.8013 147.694L24.6285 129.521C23.1312 128.024 22.29 125.993 22.29 123.876V43.1244C22.29 41.007 23.1312 38.9762 24.6285 37.479L42.8013 19.3061C44.2986 17.8089 46.3293 16.9677 48.4467 16.9677H129.198C131.315 16.9677 133.346 17.8089 134.843 19.3061L153.016 37.479C154.513 38.9762 155.355 41.007 155.355 43.1244V123.876C155.355 125.993 154.513 128.024 153.016 129.521L134.843 147.694C133.346 149.191 131.315 150.032 129.198 150.032H48.4467Z" fill="#F4F4F4" stroke="#231F20" stroke-width="2" stroke-linecap="round" stroke-linejoin="round"/>
<path d="M124.788 136.726C126.2 136.726 127.554 136.165 128.552 135.167L140.489 123.231C140.983 122.736 141.376 122.15 141.643 121.504C141.911 120.858 142.048 120.166 142.048 119.467V47.5332C142.048 46.8342 141.911 46.142 141.643 45.4962C141.376 44.8504 140.983 44.2637 140.489 43.7694L128.552 31.833C127.554 30.8349 126.2 30.2742 124.788 30.2742H52.8567C51.4452 30.2742 50.0914 30.8349 49.0933 31.833L37.1558 43.7694C36.6615 44.2637 36.2694 44.8504 36.0019 45.4962C35.7344 46.142 35.5967 46.8342 35.5967 47.5332V119.467C35.5967 120.166 35.7344 120.858 36.0019 121.504C36.2694 122.15 36.6615 122.736 37.1558 123.231L49.0933 135.167C50.0914 136.165 51.4452 136.726 52.8567 136.726H124.788Z" fill="#33DDFF" stroke="#231F20" stroke-width="2" stroke-linecap="round" stroke-linejoin="round"/>
<path d="M102.129 96.8065H128.742V112.774H102.129V96.8065Z" fill="#ADF1FF" stroke="#ADF1FF" stroke-width="2" stroke-linecap="round" stroke-linejoin="round"/>
<path d="M107.451 101.796H123.419" stroke="#33DDFF" stroke-width="2" stroke-linecap="round" stroke-linejoin="round"/>
<path d="M123.419 107.784H107.451" stroke="#33DDFF" stroke-width="2" stroke-linecap="round" stroke-linejoin="round"/>
<path d="M48.9033 48.9032H80.8388V75.5161H48.9033V48.9032Z" fill="#ADF1FF" stroke="#ADF1FF" stroke-width="2" stroke-linecap="round" stroke-linejoin="round"/>
<path d="M54.2256 55.5565H75.5159" stroke="#33DDFF" stroke-width="2" stroke-linecap="round" stroke-linejoin="round"/>
<path d="M54.2256 62.2097H75.5159" stroke="#33DDFF" stroke-width="2" stroke-linecap="round" stroke-linejoin="round"/>
<path d="M75.5159 68.8629H54.2256" stroke="#33DDFF" stroke-width="2" stroke-linecap="round" stroke-linejoin="round"/>
<path d="M54.2256 115.435H64.8707V123.419H54.2256V115.435Z" fill="#ADF1FF" stroke="#ADF1FF" stroke-width="2" stroke-linecap="round" stroke-linejoin="round"/>
<path d="M120.758 38.2581H144.71C144.71 38.2581 147.371 38.2581 147.371 40.9193V59.5484C147.371 59.5484 147.371 62.2097 144.71 62.2097H120.758C120.758 62.2097 118.097 62.2097 118.097 59.5484V40.9193C118.097 40.9193 118.097 38.2581 120.758 38.2581Z" fill="#FF3446" stroke="#231F20" stroke-width="2" stroke-linecap="round" stroke-linejoin="round"/>
<path d="M126.081 46.9073H139.388" stroke="white" stroke-width="2" stroke-linecap="round" stroke-linejoin="round"/>
<path d="M139.388 53.5605H126.081" stroke="white" stroke-width="2" stroke-linecap="round" stroke-linejoin="round"/>
<path d="M32.9357 91.4839H48.9034C48.9034 91.4839 51.5647 91.4839 51.5647 94.1452V107.452C51.5647 107.452 51.5647 110.113 48.9034 110.113H32.9357C32.9357 110.113 30.2744 110.113 30.2744 107.452V94.1452C30.2744 94.1452 30.2744 91.4839 32.9357 91.4839Z" fill="#21CD62" stroke="#231F20" stroke-width="2" stroke-linecap="round" stroke-linejoin="round"/>
<path d="M36.9277 97.8044H44.9116" stroke="white" stroke-width="2" stroke-linecap="round" stroke-linejoin="round"/>
<path d="M44.9116 103.792H36.9277" stroke="white" stroke-width="2" stroke-linecap="round" stroke-linejoin="round"/>
<path d="M104.79 104.79H72.8549C72.8549 104.79 62.2097 104.79 62.2097 94.1452L62.2097 72.8548C62.2097 72.8548 62.2097 62.2097 72.8549 62.2097L104.79 62.2097C104.79 62.2097 115.436 62.2097 115.436 72.8548V94.1452C115.436 94.1452 115.436 104.79 104.79 104.79Z" fill="white" stroke="#231F20" stroke-width="2" stroke-linecap="round" stroke-linejoin="round"/>
<path d="M120.758 91.4839L115.436 94.1452V72.8548L120.758 75.5161V91.4839Z" fill="#FFC800" stroke="#231F20" stroke-width="2" stroke-linecap="round" stroke-linejoin="round"/>
<path d="M62.2093 94.1452L56.8867 91.4839V75.5161L62.2093 72.8548V94.1452Z" fill="#FFC800" stroke="#231F20" stroke-width="2" stroke-linecap="round" stroke-linejoin="round"/>
<path d="M120.758 136.726H56.8868V131.403C56.8868 127.908 57.5752 124.448 58.9126 121.219C60.2501 117.99 62.2103 115.056 64.6816 112.585C67.1528 110.114 70.0866 108.154 73.3154 106.816C76.5443 105.479 80.0049 104.79 83.4997 104.79H94.1449C101.203 104.79 107.972 107.594 112.963 112.585C117.954 117.576 120.758 124.345 120.758 131.403V136.726Z" fill="white" stroke="#231F20" stroke-width="2" stroke-linecap="round" stroke-linejoin="round"/>
<path d="M78.1777 123.419H99.4681V128.742H78.1777V123.419Z" fill="#E4E4E4" stroke="#E4E4E4" stroke-width="2" stroke-linecap="round" stroke-linejoin="round"/>
<path d="M80.8389 104.79H96.8066C96.8066 106.202 96.2458 107.556 95.2477 108.554C94.2495 109.552 92.8957 110.113 91.484 110.113H86.1614C84.7498 110.113 83.396 109.552 82.3978 108.554C81.3996 107.556 80.8389 106.202 80.8389 104.79Z" fill="#E4E4E4" stroke="#231F20" stroke-width="2" stroke-linecap="round" stroke-linejoin="round"/>
<path d="M99.4678 75.5161V80.8387Z" fill="white"/>
<path d="M99.4678 75.5161V80.8387" stroke="#231F20" stroke-width="2" stroke-linecap="round" stroke-linejoin="round"/>
<path d="M78.1777 80.8387V75.5161Z" fill="white"/>
<path d="M78.1777 80.8387V75.5161" stroke="#231F20" stroke-width="2" stroke-linecap="round" stroke-linejoin="round"/>
<path d="M104.791 85.496H107.452C107.452 85.496 108.783 85.496 108.783 86.8266V88.1573C108.783 88.1573 108.783 89.4879 107.452 89.4879H104.791C104.791 89.4879 103.46 89.4879 103.46 88.1573V86.8266C103.46 86.8266 103.46 85.496 104.791 85.496Z" fill="#FFA9B3"/>
<path d="M72.8549 89.4879H70.1936C70.1936 89.4879 68.863 89.4879 68.863 88.1573V86.8266C68.863 86.8266 68.863 85.496 70.1936 85.496H72.8549C72.8549 85.496 74.1855 85.496 74.1855 86.8266V88.1573C74.1855 88.1573 74.1855 89.4879 72.8549 89.4879Z" fill="#FFA9B3"/>
<path d="M110.113 110.149V136.726H120.758V131.403C120.758 127.277 119.796 123.208 117.948 119.518C116.1 115.829 113.418 112.621 110.113 110.149Z" fill="#E4E4E4" stroke="#231F20" stroke-width="2" stroke-linecap="round" stroke-linejoin="round"/>
<path d="M67.5319 110.149V136.726H56.8867V131.403C56.887 127.277 57.8492 123.208 59.6971 119.518C61.545 115.829 64.2276 112.621 67.5319 110.149Z" fill="#E4E4E4" stroke="#231F20" stroke-width="2" stroke-linecap="round" stroke-linejoin="round"/>
<path d="M83.5 91.4839C83.5 92.8955 84.0608 94.2493 85.0589 95.2475C86.0571 96.2457 87.4109 96.8065 88.8226 96.8065C90.2342 96.8065 91.588 96.2457 92.5862 95.2475C93.5844 94.2493 94.1452 92.8955 94.1452 91.4839" stroke="#231F20" stroke-width="2" stroke-linecap="round" stroke-linejoin="round"/>
<path d="M86.1611 46.2419C86.1611 46.9478 86.4415 47.6247 86.9406 48.1238C87.4397 48.6229 88.1166 48.9032 88.8224 48.9032C89.5282 48.9032 90.2052 48.6229 90.7042 48.1238C91.2033 47.6247 91.4837 46.9478 91.4837 46.2419C91.4837 45.5361 91.2033 44.8592 90.7042 44.3601C90.2052 43.861 89.5282 43.5807 88.8224 43.5807C88.1166 43.5807 87.4397 43.861 86.9406 44.3601C86.4415 44.8592 86.1611 45.5361 86.1611 46.2419Z" fill="#231F20" stroke="#231F20" stroke-width="2" stroke-linecap="round" stroke-linejoin="round"/>
<path d="M88.8223 48.9032V62.2097" stroke="#231F20" stroke-width="2" stroke-linecap="round" stroke-linejoin="round"/>
<path d="M110.113 131.403H120.758V136.726H110.113V131.403Z" fill="#E4E4E4" stroke="#231F20" stroke-width="2" stroke-linecap="round" stroke-linejoin="round"/>
<path d="M56.8867 131.403H67.5319V136.726H56.8867V131.403Z" fill="#E4E4E4" stroke="#231F20" stroke-width="2" stroke-linecap="round" stroke-linejoin="round"/>
</svg>
