<svg width="48" height="49" viewBox="0 0 48 49" fill="none" xmlns="http://www.w3.org/2000/svg">
<path d="M0 25.3754C0 31.6411 2.52856 37.6502 7.02944 42.0808C11.5303 46.5113 17.6348 49.0003 24 49.0003C30.3652 49.0003 36.4697 46.5113 40.9706 42.0808C45.4714 37.6502 48 31.6411 48 25.3754C48 19.1097 45.4714 13.1006 40.9706 8.67007C36.4697 4.23954 30.3652 1.75049 24 1.75049C17.6348 1.75049 11.5303 4.23954 7.02944 8.67007C2.52856 13.1006 0 19.1097 0 25.3754Z" fill="#B2EACD"/>
<path d="M16.6436 45.0659C16.6436 45.1822 16.8608 45.2974 17.283 45.4049C17.7051 45.5124 18.3238 45.6101 19.1039 45.6923C19.8839 45.7746 20.8099 45.8398 21.829 45.8844C22.8482 45.9289 23.9405 45.9518 25.0436 45.9518C26.1467 45.9518 27.239 45.9289 28.2581 45.8844C29.2772 45.8398 30.2032 45.7746 30.9833 45.6923C31.7633 45.6101 32.382 45.5124 32.8041 45.4049C33.2263 45.2974 33.4436 45.1822 33.4436 45.0659C33.4436 44.9495 33.2263 44.8343 32.8041 44.7268C32.382 44.6193 31.7633 44.5217 30.9833 44.4394C30.2032 44.3572 29.2772 44.2919 28.2581 44.2474C27.239 44.2029 26.1467 44.1799 25.0436 44.1799C23.9405 44.1799 22.8482 44.2029 21.829 44.2474C20.8099 44.2919 19.8839 44.3572 19.1039 44.4394C18.3238 44.5217 17.7051 44.6193 17.283 44.7268C16.8608 44.8343 16.6436 44.9495 16.6436 45.0659Z" fill="#67A67D"/>
<path d="M14.5549 38.6469H16.1653C16.3789 38.6469 16.5837 38.5633 16.7347 38.4147C16.8857 38.2661 16.9705 38.0645 16.9705 37.8542V28.7392C16.9705 28.5289 16.8857 28.3273 16.7347 28.1787C16.5837 28.03 16.3789 27.9465 16.1653 27.9465H14.5549V38.6469Z" fill="white" stroke="#193737" stroke-linecap="round" stroke-linejoin="round"/>
<path d="M26.2307 26.7579C26.5307 23.7965 26.9297 17.4443 24.4187 17.4443C23.9383 17.4443 23.4775 17.6322 23.1378 17.9666C22.7981 18.301 22.6073 18.7545 22.6073 19.2274V19.8222C22.6073 24.1816 20.6873 28.7406 16.9673 28.7406V37.8557H17.4425C19.7645 37.8557 20.8625 39.4409 25.0229 39.4409H32.0687C32.4958 39.4409 32.9054 39.2739 33.2074 38.9766C33.5094 38.6793 33.6791 38.2761 33.6791 37.8557C33.6791 37.4352 33.5094 37.032 33.2074 36.7347C32.9054 36.4375 32.4958 36.2704 32.0687 36.2704H32.8739C33.301 36.2704 33.7106 36.1034 34.0126 35.8061C34.3146 35.5089 34.4843 35.1056 34.4843 34.6852C34.4843 34.2648 34.3146 33.8616 34.0126 33.5643C33.7106 33.267 33.301 33.1 32.8739 33.1H33.6791C34.1062 33.1 34.5158 32.933 34.8178 32.6357C35.1198 32.3384 35.2895 31.9352 35.2895 31.5148C35.2895 31.0943 35.1198 30.6911 34.8178 30.3938C34.5158 30.0965 34.1062 29.9295 33.6791 29.9295H34.4843C34.9114 29.9295 35.321 29.7625 35.623 29.4652C35.925 29.1679 36.0947 28.7647 36.0947 28.3443C36.0947 27.9239 35.925 27.5206 35.623 27.2234C35.321 26.9261 34.9114 26.7591 34.4843 26.7591L26.2307 26.7579Z" fill="white"/>
<path d="M24.6204 26.7576H26.2308" stroke="#193737" stroke-linecap="round" stroke-linejoin="round"/>
<path d="M32.0686 36.2688H31.2634" stroke="#193737" stroke-linecap="round" stroke-linejoin="round"/>
<path d="M32.8743 33.0984H32.0691" stroke="#193737" stroke-linecap="round" stroke-linejoin="round"/>
<path d="M33.6792 29.928H32.874" stroke="#193737" stroke-linecap="round" stroke-linejoin="round"/>
<path d="M26.2307 26.7579C26.5307 23.7965 26.9297 17.4443 24.4187 17.4443C23.9383 17.4443 23.4775 17.6322 23.1378 17.9666C22.7981 18.301 22.6073 18.7545 22.6073 19.2274V19.8222C22.6073 24.1816 20.6873 28.7406 16.9673 28.7406V37.8557H17.4425C19.7645 37.8557 20.8625 39.4409 25.0229 39.4409H32.0687C32.4958 39.4409 32.9054 39.2739 33.2074 38.9766C33.5094 38.6793 33.6791 38.2761 33.6791 37.8557C33.6791 37.4352 33.5094 37.032 33.2074 36.7347C32.9054 36.4375 32.4958 36.2704 32.0687 36.2704H32.8739C33.301 36.2704 33.7106 36.1034 34.0126 35.8061C34.3146 35.5089 34.4843 35.1056 34.4843 34.6852C34.4843 34.2648 34.3146 33.8616 34.0126 33.5643C33.7106 33.267 33.301 33.1 32.8739 33.1H33.6791C34.1062 33.1 34.5158 32.933 34.8178 32.6357C35.1198 32.3384 35.2895 31.9352 35.2895 31.5148C35.2895 31.0943 35.1198 30.6911 34.8178 30.3938C34.5158 30.0965 34.1062 29.9295 33.6791 29.9295H34.4843C34.9114 29.9295 35.321 29.7625 35.623 29.4652C35.925 29.1679 36.0947 28.7647 36.0947 28.3443C36.0947 27.9239 35.925 27.5206 35.623 27.2234C35.321 26.9261 34.9114 26.7591 34.4843 26.7591L26.2307 26.7579Z" stroke="#193737" stroke-linecap="round" stroke-linejoin="round"/>
<path d="M8.91846 27.1541H14.5549V39.4402H8.91846V27.1541Z" fill="#67A67D"/>
<path d="M8.91846 27.1541H14.5549V39.4402H8.91846V27.1541Z" stroke="#193737" stroke-linecap="round" stroke-linejoin="round"/>
<path d="M24.6975 1.37393L25.9299 3.83151C25.9785 3.92923 26.0507 4.01375 26.1401 4.07769C26.2295 4.14162 26.3335 4.18303 26.4429 4.19828L29.1987 4.59282C29.3245 4.61081 29.4426 4.66307 29.5398 4.7437C29.6369 4.82433 29.7092 4.93011 29.7485 5.04907C29.7877 5.16804 29.7924 5.29545 29.7619 5.41689C29.7315 5.53833 29.6671 5.64896 29.5761 5.73627L27.5817 7.64989C27.5033 7.72561 27.4446 7.81883 27.4105 7.92164C27.3765 8.02445 27.3681 8.13383 27.3861 8.24051L27.8565 10.9432C27.8787 11.0667 27.8653 11.1939 27.8176 11.3102C27.77 11.4266 27.6902 11.5274 27.5872 11.6013C27.4842 11.6751 27.3622 11.719 27.2351 11.728C27.108 11.737 26.9809 11.7106 26.8683 11.6519L24.4035 10.375C24.3057 10.3244 24.1969 10.2979 24.0864 10.2979C23.9759 10.2979 23.8671 10.3244 23.7693 10.375L21.3045 11.6508C21.1919 11.7094 21.0648 11.7358 20.9377 11.7268C20.8106 11.7179 20.6886 11.6739 20.5856 11.6001C20.4826 11.5262 20.4028 11.4254 20.3552 11.309C20.3076 11.1927 20.2941 11.0655 20.3163 10.942L20.7867 8.23933C20.8049 8.13265 20.7966 8.02323 20.7625 7.92039C20.7285 7.81755 20.6697 7.72434 20.5911 7.6487L18.5997 5.7339C18.5087 5.6466 18.4444 5.53597 18.4139 5.41453C18.3834 5.29308 18.3881 5.16568 18.4274 5.04671C18.4666 4.92774 18.5389 4.82197 18.6361 4.74134C18.7332 4.66071 18.8514 4.60844 18.9771 4.59046L21.7329 4.19592C21.8424 4.18067 21.9463 4.13926 22.0357 4.07532C22.1252 4.01139 22.1973 3.92687 22.2459 3.82914L23.4759 1.37393C23.5321 1.26169 23.6191 1.16719 23.7271 1.10111C23.835 1.03502 23.9596 1 24.0867 1C24.2138 1 24.3384 1.03502 24.4464 1.10111C24.5543 1.16719 24.6413 1.26169 24.6975 1.37393Z" fill="#67A67D"/>
<path d="M24.6975 1.37393L25.9299 3.83151C25.9785 3.92923 26.0507 4.01375 26.1401 4.07769C26.2295 4.14162 26.3335 4.18303 26.4429 4.19828L29.1987 4.59282C29.3245 4.61081 29.4426 4.66307 29.5398 4.7437C29.6369 4.82433 29.7092 4.93011 29.7485 5.04907C29.7877 5.16804 29.7924 5.29545 29.7619 5.41689C29.7315 5.53833 29.6671 5.64896 29.5761 5.73627L27.5817 7.64989C27.5033 7.72561 27.4446 7.81883 27.4105 7.92164C27.3765 8.02445 27.3681 8.13383 27.3861 8.24051L27.8565 10.9432C27.8787 11.0667 27.8653 11.1939 27.8176 11.3102C27.77 11.4266 27.6902 11.5274 27.5872 11.6013C27.4842 11.6751 27.3622 11.719 27.2351 11.728C27.108 11.737 26.9809 11.7106 26.8683 11.6519L24.4035 10.375C24.3057 10.3244 24.1969 10.2979 24.0864 10.2979C23.9759 10.2979 23.8671 10.3244 23.7693 10.375L21.3045 11.6508C21.1919 11.7094 21.0648 11.7358 20.9377 11.7268C20.8106 11.7179 20.6886 11.6739 20.5856 11.6001C20.4826 11.5262 20.4028 11.4254 20.3552 11.309C20.3076 11.1927 20.2941 11.0655 20.3163 10.942L20.7867 8.23933C20.8049 8.13265 20.7966 8.02323 20.7625 7.92039C20.7285 7.81755 20.6697 7.72434 20.5911 7.6487L18.5997 5.7339C18.5087 5.6466 18.4444 5.53597 18.4139 5.41453C18.3834 5.29308 18.3881 5.16568 18.4274 5.04671C18.4666 4.92774 18.5389 4.82197 18.6361 4.74134C18.7332 4.66071 18.8514 4.60844 18.9771 4.59046L21.7329 4.19592C21.8424 4.18067 21.9463 4.13926 22.0357 4.07532C22.1252 4.01139 22.1973 3.92687 22.2459 3.82914L23.4759 1.37393C23.5321 1.26169 23.6191 1.16719 23.7271 1.10111C23.835 1.03502 23.9596 1 24.0867 1C24.2138 1 24.3384 1.03502 24.4464 1.10111C24.5543 1.16719 24.6413 1.26169 24.6975 1.37393Z" stroke="#193737" stroke-linecap="round" stroke-linejoin="round"/>
<path d="M10.4824 6.67593L12.43 7.88376C12.5072 7.93183 12.5952 7.96062 12.6862 7.96762C12.7773 7.97462 12.8688 7.95962 12.9526 7.92392L15.0682 7.02913C15.1647 6.9882 15.271 6.9747 15.3749 6.99017C15.4789 7.00564 15.5763 7.04945 15.6563 7.11665C15.7362 7.18384 15.7954 7.27173 15.8272 7.37036C15.859 7.46898 15.8621 7.5744 15.8362 7.67468L15.271 9.87179C15.2485 9.95871 15.2476 10.0497 15.2685 10.137C15.2894 10.2243 15.3314 10.3054 15.391 10.3732L16.9096 12.0772C16.9789 12.155 17.0247 12.2503 17.0418 12.3524C17.059 12.4545 17.0468 12.5593 17.0066 12.6549C16.9664 12.7505 16.8998 12.8331 16.8144 12.8935C16.7289 12.9538 16.6281 12.9894 16.5232 12.9962L14.2264 13.1456C14.1353 13.1516 14.047 13.1793 13.9691 13.2263C13.8912 13.2733 13.8261 13.3383 13.7794 13.4155L12.6022 15.3646C12.5485 15.4536 12.4706 15.526 12.3773 15.5736C12.284 15.6212 12.179 15.6421 12.0742 15.634C11.9694 15.6259 11.869 15.5891 11.7844 15.5277C11.6997 15.4663 11.6343 15.3828 11.5954 15.2866L10.7404 13.1822C10.7067 13.0987 10.6528 13.0246 10.5834 12.9662C10.5139 12.9078 10.4311 12.8671 10.342 12.8474L8.0998 12.3459C7.99734 12.3231 7.90342 12.2725 7.82864 12.1999C7.75387 12.1273 7.70124 12.0355 7.6767 11.935C7.65216 11.8344 7.6567 11.7291 7.68981 11.631C7.72291 11.5328 7.78325 11.4458 7.864 11.3797L9.6328 9.92909C9.70313 9.87173 9.75816 9.79832 9.79309 9.71525C9.82801 9.63218 9.84179 9.54196 9.8332 9.45245L9.6226 7.19568C9.61302 7.09281 9.63284 6.98935 9.67983 6.89699C9.72682 6.80462 9.79911 6.72703 9.88854 6.67297C9.97796 6.61892 10.081 6.59055 10.1859 6.59107C10.2908 6.59159 10.3935 6.62099 10.4824 6.67593Z" fill="#67A67D"/>
<path d="M10.4824 6.67593L12.43 7.88376C12.5072 7.93183 12.5952 7.96062 12.6862 7.96762C12.7773 7.97462 12.8688 7.95962 12.9526 7.92392L15.0682 7.02913C15.1647 6.9882 15.271 6.9747 15.3749 6.99017C15.4789 7.00564 15.5763 7.04945 15.6563 7.11665C15.7362 7.18384 15.7954 7.27173 15.8272 7.37036C15.859 7.46898 15.8621 7.5744 15.8362 7.67468L15.271 9.87179C15.2485 9.95871 15.2476 10.0497 15.2685 10.137C15.2894 10.2243 15.3314 10.3054 15.391 10.3732L16.9096 12.0772C16.9789 12.155 17.0247 12.2503 17.0418 12.3524C17.059 12.4545 17.0468 12.5593 17.0066 12.6549C16.9664 12.7505 16.8998 12.8331 16.8144 12.8935C16.7289 12.9538 16.6281 12.9894 16.5232 12.9962L14.2264 13.1456C14.1353 13.1516 14.047 13.1793 13.9691 13.2263C13.8912 13.2733 13.8261 13.3383 13.7794 13.4155L12.6022 15.3646C12.5485 15.4536 12.4706 15.526 12.3773 15.5736C12.284 15.6212 12.179 15.6421 12.0742 15.634C11.9694 15.6259 11.869 15.5891 11.7844 15.5277C11.6997 15.4663 11.6343 15.3828 11.5954 15.2866L10.7404 13.1822C10.7067 13.0987 10.6528 13.0246 10.5834 12.9662C10.5139 12.9078 10.4311 12.8671 10.342 12.8474L8.0998 12.3459C7.99734 12.3231 7.90342 12.2725 7.82864 12.1999C7.75387 12.1273 7.70124 12.0355 7.6767 11.935C7.65216 11.8344 7.6567 11.7291 7.68981 11.631C7.72291 11.5328 7.78325 11.4458 7.864 11.3797L9.6328 9.92909C9.70313 9.87173 9.75816 9.79832 9.79309 9.71525C9.82801 9.63218 9.84179 9.54196 9.8332 9.45245L9.6226 7.19568C9.61302 7.09281 9.63284 6.98935 9.67983 6.89699C9.72682 6.80462 9.79911 6.72703 9.88854 6.67297C9.97796 6.61892 10.081 6.59055 10.1859 6.59107C10.2908 6.59159 10.3935 6.62099 10.4824 6.67593Z" stroke="#193737" stroke-linecap="round" stroke-linejoin="round"/>
<path d="M2.86305 17.7048L4.62705 17.7934C4.69703 17.7969 4.76681 17.7835 4.83038 17.7545C4.89394 17.7255 4.94936 17.6817 4.99186 17.6268L6.06585 16.2465C6.11489 16.1835 6.18086 16.1352 6.25631 16.1072C6.33177 16.0792 6.41368 16.0725 6.49279 16.0879C6.5719 16.1034 6.64504 16.1403 6.70394 16.1945C6.76284 16.2487 6.80514 16.3181 6.82605 16.3948L7.28566 18.0739C7.304 18.1404 7.33841 18.2014 7.38595 18.2519C7.43349 18.3024 7.49275 18.3409 7.55866 18.3639L9.22486 18.9433C9.30083 18.9698 9.36777 19.0166 9.41811 19.0786C9.46846 19.1405 9.5002 19.2151 9.50975 19.2938C9.5193 19.3726 9.50627 19.4524 9.47215 19.5243C9.43803 19.5962 9.38417 19.6572 9.31665 19.7005L7.83645 20.6496C7.77785 20.6874 7.72939 20.7385 7.69523 20.7987C7.66106 20.8588 7.6422 20.9262 7.64026 20.9951L7.59585 22.7333C7.59381 22.8127 7.56927 22.8898 7.52499 22.9561C7.48072 23.0224 7.41848 23.0752 7.34532 23.1085C7.27216 23.1418 7.191 23.1543 7.111 23.1446C7.03101 23.1349 6.95538 23.1033 6.89266 23.0535L5.51985 21.9614C5.4654 21.9179 5.40098 21.8881 5.33218 21.8746C5.26339 21.8611 5.19229 21.8644 5.12505 21.884L3.43185 22.3796C3.3546 22.4023 3.27241 22.4033 3.19463 22.3823C3.11684 22.3614 3.04657 22.3195 2.99178 22.2612C2.93699 22.203 2.89988 22.1308 2.88465 22.0529C2.86943 21.9749 2.87671 21.8943 2.90566 21.8202L3.53566 20.196C3.56098 20.1316 3.5699 20.0621 3.56164 19.9936C3.55337 19.925 3.52818 19.8595 3.48826 19.8027L2.48685 18.3704C2.44131 18.3052 2.41516 18.2287 2.41137 18.1496C2.40758 18.0706 2.42628 17.992 2.46538 17.9228C2.50448 17.8536 2.56242 17.7966 2.63268 17.7581C2.70293 17.7195 2.78272 17.7011 2.86305 17.7048Z" fill="#67A67D"/>
<path d="M2.86305 17.7048L4.62705 17.7934C4.69703 17.7969 4.76681 17.7835 4.83038 17.7545C4.89394 17.7255 4.94936 17.6817 4.99186 17.6268L6.06585 16.2465C6.11489 16.1835 6.18086 16.1352 6.25631 16.1072C6.33177 16.0792 6.41368 16.0725 6.49279 16.0879C6.5719 16.1034 6.64504 16.1403 6.70394 16.1945C6.76284 16.2487 6.80514 16.3181 6.82605 16.3948L7.28566 18.0739C7.304 18.1404 7.33841 18.2014 7.38595 18.2519C7.43349 18.3024 7.49275 18.3409 7.55866 18.3639L9.22486 18.9433C9.30083 18.9698 9.36777 19.0166 9.41811 19.0786C9.46846 19.1405 9.5002 19.2151 9.50975 19.2938C9.5193 19.3726 9.50627 19.4524 9.47215 19.5243C9.43803 19.5962 9.38417 19.6572 9.31665 19.7005L7.83645 20.6496C7.77785 20.6874 7.72939 20.7385 7.69523 20.7987C7.66106 20.8588 7.6422 20.9262 7.64026 20.9951L7.59585 22.7333C7.59381 22.8127 7.56927 22.8898 7.52499 22.9561C7.48072 23.0224 7.41848 23.0752 7.34532 23.1085C7.27216 23.1418 7.191 23.1543 7.111 23.1446C7.03101 23.1349 6.95538 23.1033 6.89266 23.0535L5.51985 21.9614C5.4654 21.9179 5.40098 21.8881 5.33218 21.8746C5.26339 21.8611 5.19229 21.8644 5.12505 21.884L3.43185 22.3796C3.3546 22.4023 3.27241 22.4033 3.19463 22.3823C3.11684 22.3614 3.04657 22.3195 2.99178 22.2612C2.93699 22.203 2.89988 22.1308 2.88465 22.0529C2.86943 21.9749 2.87671 21.8943 2.90566 21.8202L3.53566 20.196C3.56098 20.1316 3.5699 20.0621 3.56164 19.9936C3.55337 19.925 3.52818 19.8595 3.48826 19.8027L2.48685 18.3704C2.44131 18.3052 2.41516 18.2287 2.41137 18.1496C2.40758 18.0706 2.42628 17.992 2.46538 17.9228C2.50448 17.8536 2.56242 17.7966 2.63268 17.7581C2.70293 17.7195 2.78272 17.7011 2.86305 17.7048Z" stroke="#193737" stroke-linecap="round" stroke-linejoin="round"/>
<path d="M38.7633 7.19598C38.7731 7.09294 38.7533 6.98926 38.7063 6.8967C38.6593 6.80415 38.5868 6.72641 38.4972 6.67231C38.4076 6.6182 38.3043 6.58989 38.1992 6.59059C38.0941 6.59128 37.9912 6.62095 37.9023 6.67624L35.9547 7.88406C35.8775 7.93213 35.7896 7.96092 35.6985 7.96792C35.6074 7.97492 35.516 7.95992 35.4321 7.92422L33.3165 7.02943C33.22 6.98874 33.1138 6.97543 33.01 6.991C32.9062 7.00656 32.8088 7.05038 32.729 7.11751C32.6491 7.18465 32.5899 7.27242 32.558 7.37092C32.5261 7.46943 32.5228 7.57474 32.5485 7.67498L33.1137 9.8721C33.1364 9.959 33.1374 10.05 33.1165 10.1374C33.0956 10.2247 33.0535 10.3057 32.9937 10.3735L31.4757 12.0775C31.4065 12.1552 31.3607 12.2505 31.3435 12.3526C31.3263 12.4546 31.3385 12.5594 31.3786 12.655C31.4188 12.7505 31.4853 12.8332 31.5706 12.8935C31.6559 12.9539 31.7567 12.9896 31.8615 12.9965L34.1589 13.1459C34.25 13.1519 34.3382 13.1796 34.416 13.2266C34.4938 13.2737 34.5587 13.3386 34.6053 13.4158L35.7825 15.3649C35.8362 15.4539 35.9141 15.5263 36.0075 15.5739C36.1008 15.6215 36.2058 15.6424 36.3106 15.6343C36.4154 15.6262 36.5158 15.5894 36.6004 15.528C36.685 15.4666 36.7505 15.3831 36.7893 15.2869L37.6443 13.1825C37.6781 13.099 37.732 13.0249 37.8014 12.9666C37.8709 12.9082 37.9537 12.8674 38.0427 12.8477L40.2885 12.3474C40.391 12.3247 40.485 12.2742 40.5599 12.2016C40.6347 12.129 40.6874 12.0372 40.712 11.9366C40.7366 11.8361 40.7322 11.7308 40.6991 11.6326C40.666 11.5344 40.6057 11.4473 40.5249 11.3811L38.7555 9.93057C38.6853 9.87315 38.6303 9.79973 38.5954 9.71667C38.5605 9.63362 38.5467 9.54343 38.5551 9.45394L38.7633 7.19598Z" fill="#67A67D"/>
<path d="M38.7633 7.19598C38.7731 7.09294 38.7533 6.98926 38.7063 6.8967C38.6593 6.80415 38.5868 6.72641 38.4972 6.67231C38.4076 6.6182 38.3043 6.58989 38.1992 6.59059C38.0941 6.59128 37.9912 6.62095 37.9023 6.67624L35.9547 7.88406C35.8775 7.93213 35.7896 7.96092 35.6985 7.96792C35.6074 7.97492 35.516 7.95992 35.4321 7.92422L33.3165 7.02943C33.2201 6.98856 33.1139 6.97509 33.01 6.99054C32.9061 7.00599 32.8087 7.04975 32.7288 7.11686C32.6489 7.18397 32.5897 7.27175 32.5578 7.37028C32.526 7.46881 32.5227 7.57416 32.5485 7.67439L33.1137 9.8721C33.1364 9.959 33.1374 10.05 33.1165 10.1374C33.0956 10.2247 33.0535 10.3057 32.9937 10.3735L31.4757 12.0775C31.4065 12.1552 31.3607 12.2505 31.3435 12.3526C31.3263 12.4546 31.3385 12.5594 31.3786 12.655C31.4188 12.7505 31.4853 12.8332 31.5706 12.8935C31.6559 12.9539 31.7567 12.9896 31.8615 12.9965L34.1589 13.1459C34.25 13.1519 34.3382 13.1796 34.416 13.2266C34.4938 13.2737 34.5587 13.3386 34.6053 13.4158L35.7825 15.3649C35.8362 15.4539 35.9141 15.5263 36.0075 15.5739C36.1008 15.6215 36.2058 15.6424 36.3106 15.6343C36.4154 15.6262 36.5158 15.5894 36.6004 15.528C36.685 15.4666 36.7505 15.3831 36.7893 15.2869L37.6443 13.1825C37.6781 13.099 37.732 13.0249 37.8014 12.9666C37.8709 12.9082 37.9537 12.8674 38.0427 12.8477L40.2885 12.3474C40.391 12.3247 40.485 12.2742 40.5599 12.2016C40.6347 12.129 40.6874 12.0372 40.712 11.9366C40.7366 11.8361 40.7322 11.7308 40.6991 11.6326C40.666 11.5344 40.6057 11.4473 40.5249 11.3811L38.7555 9.93057C38.6853 9.87315 38.6303 9.79973 38.5954 9.71667C38.5605 9.63362 38.5467 9.54343 38.5551 9.45394L38.7633 7.19598Z" stroke="#193737" stroke-linecap="round" stroke-linejoin="round"/>
<path d="M45.8998 18.3704C45.9457 18.3051 45.9721 18.2285 45.9759 18.1492C45.9798 18.07 45.961 17.9912 45.9217 17.9219C45.8824 17.8526 45.8242 17.7955 45.7536 17.7571C45.683 17.7188 45.603 17.7006 45.5224 17.7048L43.7584 17.7934C43.6884 17.797 43.6186 17.7837 43.555 17.7547C43.4914 17.7257 43.436 17.6818 43.3936 17.6268L42.319 16.2465C42.27 16.1835 42.204 16.1352 42.1286 16.1072C42.0531 16.0792 41.9712 16.0725 41.8921 16.0879C41.813 16.1034 41.7399 16.1403 41.681 16.1945C41.6221 16.2487 41.5798 16.3181 41.5588 16.3948L41.0998 18.0739C41.0815 18.1404 41.0471 18.2014 40.9996 18.2519C40.952 18.3024 40.8928 18.3409 40.8268 18.3639L39.1612 18.9433C39.0851 18.9696 39.018 19.0164 38.9675 19.0783C38.917 19.1402 38.8852 19.2149 38.8756 19.2937C38.866 19.3726 38.8791 19.4525 38.9134 19.5244C38.9477 19.5963 39.0017 19.6573 39.0694 19.7005L40.549 20.6496C40.6078 20.6872 40.6564 20.7383 40.6906 20.7985C40.7248 20.8587 40.7436 20.9262 40.7452 20.9951L40.7902 22.7333C40.7923 22.8127 40.8168 22.8898 40.8611 22.9561C40.9054 23.0224 40.9676 23.0752 41.0408 23.1085C41.1139 23.1418 41.1951 23.1543 41.2751 23.1446C41.3551 23.1349 41.4307 23.1033 41.4934 23.0535L42.868 21.9614C42.9224 21.9179 42.9867 21.8882 43.0554 21.8747C43.1241 21.8612 43.1951 21.8644 43.2622 21.884L44.9554 22.3796C45.0327 22.4022 45.1149 22.4031 45.1926 22.3822C45.2704 22.3612 45.3407 22.3193 45.3955 22.2611C45.4503 22.2029 45.4875 22.1308 45.5028 22.0529C45.5181 21.975 45.511 21.8944 45.4822 21.8202L44.8516 20.196C44.8266 20.1316 44.8178 20.0621 44.8261 19.9936C44.8343 19.9251 44.8594 19.8596 44.899 19.8027L45.8998 18.3704Z" fill="#67A67D"/>
<path d="M45.8998 18.3703C45.9457 18.3051 45.9721 18.2284 45.9759 18.1492C45.9798 18.0699 45.961 17.9911 45.9217 17.9218C45.8824 17.8525 45.8242 17.7954 45.7536 17.7571C45.683 17.7187 45.603 17.7005 45.5224 17.7047L43.7584 17.7933C43.6884 17.7969 43.6186 17.7837 43.555 17.7546C43.4914 17.7256 43.436 17.6817 43.3936 17.6267L42.319 16.2465C42.27 16.1836 42.204 16.1355 42.1287 16.1076C42.0533 16.0797 41.9715 16.073 41.8925 16.0884C41.8135 16.1039 41.7404 16.1407 41.6816 16.1948C41.6227 16.2489 41.5804 16.3182 41.5594 16.3947L41.0998 18.0738C41.0815 18.1403 41.0471 18.2014 40.9996 18.2519C40.952 18.3024 40.8928 18.3408 40.8268 18.3638L39.1612 18.9432C39.0851 18.9695 39.018 19.0163 38.9675 19.0782C38.917 19.1402 38.8852 19.2148 38.8756 19.2937C38.866 19.3725 38.8791 19.4524 38.9134 19.5243C38.9477 19.5962 39.0017 19.6572 39.0694 19.7004L40.549 20.6495C40.6078 20.6871 40.6564 20.7382 40.6906 20.7984C40.7248 20.8586 40.7436 20.9261 40.7452 20.9951L40.7902 22.7333C40.7923 22.8126 40.8168 22.8898 40.8611 22.9561C40.9054 23.0224 40.9676 23.0752 41.0408 23.1085C41.1139 23.1418 41.1951 23.1543 41.2751 23.1445C41.3551 23.1348 41.4307 23.1032 41.4934 23.0534L42.868 21.9613C42.9224 21.9179 42.9867 21.8881 43.0554 21.8746C43.1241 21.8611 43.1951 21.8643 43.2622 21.884L44.956 22.3795C45.0333 22.402 45.1154 22.4028 45.193 22.3818C45.2707 22.3608 45.3408 22.3188 45.3956 22.2607C45.4503 22.2025 45.4874 22.1304 45.5027 22.0526C45.518 21.9747 45.5109 21.8942 45.4822 21.8202L44.8516 20.196C44.8266 20.1315 44.8178 20.062 44.8261 19.9935C44.8343 19.925 44.8594 19.8595 44.899 19.8026L45.8998 18.3703Z" stroke="#193737" stroke-linecap="round" stroke-linejoin="round"/>
</svg>
