<svg width="24" height="25" viewBox="0 0 24 25" fill="none" xmlns="http://www.w3.org/2000/svg">
<path fill-rule="evenodd" clip-rule="evenodd" d="M4.07675 7.03075C4.23299 6.51858 4.70925 6.146 5.27254 6.146H19.2725C19.8358 6.146 20.3121 6.51858 20.4683 7.03075L12.2725 12.4946L4.07675 7.03075ZM2.52257 7.38226C2.52244 7.39026 2.52242 7.39826 2.52254 7.40625V17.396C2.52254 18.9148 3.75376 20.146 5.27254 20.146H19.2725C20.7913 20.146 22.0225 18.9148 22.0225 17.396V7.40622M20.5225 8.79738V17.396C20.5225 18.0864 19.9629 18.646 19.2725 18.646H5.27254C4.58218 18.646 4.02254 18.0864 4.02254 17.396V8.79738L11.8565 14.02C12.1084 14.188 12.4366 14.188 12.6886 14.02L20.5225 8.79738ZM22.0225 7.38229C22.0151 5.86981 20.7868 4.646 19.2725 4.646H5.27254C3.75834 4.646 2.52997 5.8698 2.52257 7.38226" fill="#282828"/>
</svg>
