<svg width="240" height="25" viewBox="0 0 240 25" fill="none" xmlns="http://www.w3.org/2000/svg">
<path fill-rule="evenodd" clip-rule="evenodd" d="M38.1115 18.7585L32.8381 2.18181H27.7138L35.2457 24H41.1903L48.7116 2.18181H43.598L38.3139 18.7585H38.1115ZM52.5069 23.2649C53.7143 23.968 55.1454 24.3196 56.8002 24.3196C58.4551 24.3196 59.8826 23.968 61.0829 23.2649C62.2903 22.5547 63.2207 21.5675 63.8741 20.3033C64.5275 19.032 64.8542 17.5582 64.8542 15.8821C64.8542 14.1918 64.5275 12.7145 63.8741 11.4503C63.2207 10.179 62.2903 9.19176 61.0829 8.48863C59.8826 7.7784 58.4551 7.42329 56.8002 7.42329C55.1454 7.42329 53.7143 7.7784 52.5069 8.48863C51.3066 9.19176 50.3798 10.179 49.7264 11.4503C49.073 12.7145 48.7463 14.1918 48.7463 15.8821C48.7463 17.5582 49.073 19.032 49.7264 20.3033C50.3798 21.5675 51.3066 22.5547 52.5069 23.2649ZM58.7072 20.1648C58.2029 20.5909 57.5744 20.804 56.8216 20.804C56.0616 20.804 55.4224 20.5909 54.9039 20.1648C54.3926 19.7315 54.0055 19.142 53.7427 18.3963C53.487 17.6506 53.3592 16.8018 53.3592 15.8501C53.3592 14.8984 53.487 14.0497 53.7427 13.304C54.0055 12.5582 54.3926 11.9687 54.9039 11.5355C55.4224 11.1023 56.0616 10.8856 56.8216 10.8856C57.5744 10.8856 58.2029 11.1023 58.7072 11.5355C59.2115 11.9687 59.5914 12.5582 59.8471 13.304C60.1099 14.0497 60.2413 14.8984 60.2413 15.8501C60.2413 16.8018 60.1099 17.6506 59.8471 18.3963C59.5914 19.142 59.2115 19.7315 58.7072 20.1648ZM72.3436 24V2.18181H67.8052V24H72.3436ZM86.4727 7.63636V17.0327C86.4798 17.7642 86.3342 18.3785 86.0359 18.8757C85.7447 19.3729 85.3612 19.7493 84.8853 20.005C84.4094 20.2535 83.8981 20.3778 83.3512 20.3778C82.4918 20.3778 81.8065 20.0973 81.2951 19.5362C80.7837 18.9751 80.5245 18.2116 80.5174 17.2457V7.63636H75.979V18.0554C75.9862 19.3338 76.2205 20.4311 76.6822 21.3473C77.1509 22.2635 77.8008 22.9702 78.6317 23.4673C79.4627 23.9645 80.4251 24.2131 81.5188 24.2131C82.7475 24.2131 83.788 23.9219 84.6403 23.3395C85.4996 22.7571 86.114 21.9865 86.4833 21.0277H86.6538V24H91.011V7.63636H86.4727ZM99.1795 24V14.5398C99.1866 13.8366 99.318 13.2365 99.5737 12.7393C99.8365 12.2351 100.199 11.8516 100.66 11.5888C101.129 11.326 101.669 11.1946 102.28 11.1946C103.189 11.1946 103.903 11.4787 104.421 12.0469C104.939 12.6079 105.195 13.3892 105.188 14.3906V24H109.726V13.581C109.726 12.3097 109.492 11.2159 109.023 10.2997C108.555 9.37642 107.898 8.66619 107.052 8.16903C106.207 7.67187 105.216 7.42329 104.08 7.42329C102.866 7.42329 101.832 7.70383 100.98 8.26491C100.128 8.81889 99.5204 9.57173 99.1582 10.5234H98.9664V7.63636H94.6412V24H99.1795ZM122.007 11.0454V7.63636H118.928V3.7159H114.39V7.63636H112.153V11.0454H114.39V19.5682C114.383 20.6406 114.607 21.5284 115.061 22.2315C115.516 22.9347 116.151 23.4531 116.968 23.7869C117.792 24.1207 118.751 24.2663 119.844 24.2237C120.434 24.2024 120.935 24.142 121.347 24.0426C121.759 23.9503 122.078 23.8686 122.305 23.7976L121.592 20.4205C121.478 20.4418 121.315 20.4737 121.102 20.5163C120.888 20.5518 120.675 20.5696 120.462 20.5696C120.157 20.5696 119.887 20.5234 119.653 20.4311C119.425 20.3388 119.248 20.179 119.12 19.9517C118.992 19.7173 118.928 19.3906 118.928 18.9716V11.0454H122.007ZM127.898 23.2969C129.113 23.9787 130.562 24.3196 132.245 24.3196C133.594 24.3196 134.784 24.1136 135.814 23.7017C136.851 23.2827 137.696 22.7003 138.349 21.9545C139.01 21.2017 139.447 20.321 139.66 19.3125L135.462 19.0355C135.306 19.4474 135.079 19.7955 134.781 20.0795C134.482 20.3636 134.124 20.5767 133.705 20.7187C133.286 20.8608 132.824 20.9318 132.32 20.9318C131.56 20.9318 130.903 20.772 130.349 20.4524C129.795 20.1328 129.365 19.6783 129.06 19.0888C128.761 18.4993 128.612 17.7997 128.612 16.9901V16.9794H139.756V15.7329C139.756 14.3409 139.56 13.1264 139.17 12.0895C138.779 11.0454 138.232 10.179 137.529 9.49005C136.833 8.80113 136.016 8.28622 135.079 7.94531C134.148 7.5973 133.143 7.42329 132.064 7.42329C130.459 7.42329 129.06 7.7784 127.866 8.48863C126.68 9.19886 125.761 10.1896 125.107 11.4609C124.454 12.7322 124.127 14.2095 124.127 15.8928C124.127 17.6186 124.454 19.1136 125.107 20.3778C125.761 21.6349 126.691 22.608 127.898 23.2969ZM128.616 14.1669C128.644 13.5793 128.795 13.0431 129.07 12.5582C129.369 12.0256 129.781 11.603 130.306 11.2905C130.839 10.9709 131.45 10.8111 132.138 10.8111C132.799 10.8111 133.378 10.9567 133.875 11.2479C134.379 11.532 134.773 11.9261 135.058 12.4304C135.342 12.9347 135.484 13.5135 135.484 14.1669H128.616ZM145.828 23.2969C147.043 23.9787 148.491 24.3196 150.175 24.3196C151.524 24.3196 152.714 24.1136 153.744 23.7017C154.781 23.2827 155.626 22.7003 156.279 21.9545C156.94 21.2017 157.376 20.321 157.589 19.3125L153.392 19.0355C153.236 19.4474 153.009 19.7955 152.71 20.0795C152.412 20.3636 152.053 20.5767 151.634 20.7187C151.215 20.8608 150.754 20.9318 150.249 20.9318C149.489 20.9318 148.832 20.772 148.278 20.4524C147.724 20.1328 147.295 19.6783 146.989 19.0888C146.691 18.4993 146.542 17.7997 146.542 16.9901V16.9794H157.685V15.7329C157.685 14.3409 157.49 13.1264 157.099 12.0895C156.709 11.0454 156.162 10.179 155.459 9.49005C154.763 8.80113 153.946 8.28622 153.009 7.94531C152.078 7.5973 151.073 7.42329 149.994 7.42329C148.388 7.42329 146.989 7.7784 145.796 8.48863C144.61 9.19886 143.69 10.1896 143.037 11.4609C142.384 12.7322 142.057 14.2095 142.057 15.8928C142.057 17.6186 142.384 19.1136 143.037 20.3778C143.69 21.6349 144.621 22.608 145.828 23.2969ZM146.546 14.1669C146.574 13.5793 146.725 13.0431 147 12.5582C147.298 12.0256 147.71 11.603 148.236 11.2905C148.768 10.9709 149.379 10.8111 150.068 10.8111C150.729 10.8111 151.308 10.9567 151.805 11.2479C152.309 11.532 152.703 11.9261 152.987 12.4304C153.271 12.9347 153.413 13.5135 153.413 14.1669H146.546ZM160.647 7.63636V24H165.185V14.7422C165.185 14.0746 165.335 13.4851 165.633 12.9737C165.938 12.4624 166.35 12.0646 166.869 11.7805C167.394 11.4893 167.991 11.3437 168.658 11.3437C168.971 11.3437 169.315 11.3686 169.692 11.4183C170.068 11.468 170.363 11.5249 170.576 11.5888V7.56178C170.377 7.51207 170.146 7.47301 169.884 7.4446C169.621 7.41619 169.376 7.40198 169.148 7.40198C168.232 7.40198 167.423 7.66477 166.719 8.19034C166.016 8.7088 165.516 9.47585 165.217 10.4915H165.047V7.63636H160.647ZM179.951 2.18181V24H193.918V20.1967H184.564V2.18181H179.951ZM196.887 7.63636V24H201.426V7.63636H196.887ZM197.431 4.85582C197.914 5.30326 198.492 5.52698 199.167 5.52698C199.842 5.52698 200.417 5.30326 200.893 4.85582C201.376 4.40127 201.617 3.85795 201.617 3.22585C201.617 2.60085 201.376 2.06463 200.893 1.61718C200.417 1.16264 199.842 0.935364 199.167 0.935364C198.492 0.935364 197.914 1.16264 197.431 1.61718C196.955 2.06463 196.717 2.60085 196.717 3.22585C196.717 3.85795 196.955 4.40127 197.431 4.85582ZM209.599 24V14.5398C209.607 13.8366 209.738 13.2365 209.994 12.7393C210.256 12.2351 210.619 11.8516 211.08 11.5888C211.549 11.326 212.089 11.1946 212.7 11.1946C213.609 11.1946 214.322 11.4787 214.841 12.0469C215.359 12.6079 215.615 13.3892 215.608 14.3906V24H220.146V13.581C220.146 12.3097 219.912 11.2159 219.443 10.2997C218.974 9.37642 218.317 8.66619 217.472 8.16903C216.627 7.67187 215.636 7.42329 214.5 7.42329C213.286 7.42329 212.252 7.70383 211.4 8.26491C210.548 8.81889 209.94 9.57173 209.578 10.5234H209.386V7.63636H205.061V24H209.599ZM228.262 18.8046V24H223.723V2.18181H228.262V13.8473H228.507L233.748 7.63636H238.958L232.888 14.7246L239.267 24H233.95L229.491 17.4003L228.262 18.8046ZM4.66667 12.3333L6.53333 10.4667L10.6667 14.6L22.1333 3.13332L24 4.99999L10.6667 18.3333L4.66667 12.3333ZM2.66667 22.3333H21.3333V11.6667H24V22.3333C24 23.8 22.8 25 21.3333 25H2.66667C1.2 25 0 23.8 0 22.3333V3.66666C0 2.19999 1.2 0.999991 2.66667 0.999991H16V3.66666H2.66667V22.3333Z" fill="white"/>
</svg>
