<svg width="541" height="541" viewBox="0 0 541 541" fill="none" xmlns="http://www.w3.org/2000/svg">
<path d="M360.909 434.474C360.909 434.474 381.559 405.301 405.158 399.58C405.158 399.58 404.911 436.495 434.301 436.563C460.142 436.622 465.468 399.58 465.468 399.58C482.026 404.262 496.538 414.357 506.687 428.253C506.687 428.253 505.51 334.511 501.796 320.307C501.796 320.307 482.786 328.831 476.886 329.266C473.026 327.93 468.882 327.63 464.868 328.39C460.372 329.315 461.305 311.348 456.618 307.469C444.956 297.829 408.436 322.214 390.981 301.323C389.693 310.961 389.206 320.689 389.52 330.405C372.763 328.447 356.817 322.114 343.278 312.046C343.278 312.046 337.378 359.305 340.654 395.36C350.976 406.215 358.001 419.781 360.909 434.474Z" fill="white"/>
<path d="M260.446 374.818L274.76 408.796L288.307 374.818C293.831 374.139 299.425 374.269 304.913 375.202C312.944 376.785 323.307 375.968 326.22 364.112C329.32 351.547 317.808 346.413 313.983 345.429C313.983 345.429 330.808 343.462 330.919 331.225C331.03 318.987 318.682 311.667 311.251 310.358C311.251 310.358 321.457 309.966 321.303 301.8C321.343 300.247 320.856 298.724 319.923 297.48C318.993 296.238 317.667 295.345 316.163 294.95C316.163 294.95 322.717 261.246 301.086 247.48C295.162 243.471 288.285 241.093 281.15 240.585C274.017 240.077 266.873 241.457 260.44 244.586C260.44 244.586 218.486 246.004 229.289 295.497C229.289 295.497 218.978 307.299 236.103 310.328C236.103 310.328 215.156 319.59 215.156 329.282C215.156 338.928 228.099 344.766 228.099 344.766C228.099 344.766 207.755 366.051 243.748 375.649C243.753 375.649 258.233 373.561 260.446 374.818Z" fill="white"/>
<path d="M145.835 259.247C147.325 259.496 145.294 274.411 145.294 274.411C149.451 276.586 154.042 277.801 158.73 277.971C163.419 278.142 168.086 277.26 172.39 275.393V261.409C172.39 261.409 183.642 257.194 188.014 240.51C188.014 240.51 198.504 233.985 198.72 216.178C200.477 214.848 201.652 212.89 201.999 210.714C202.114 209.787 201.939 208.847 201.499 208.024C201.058 207.2 200.372 206.534 199.537 206.116C199.537 206.116 208.226 189.274 196.865 164.699C185.504 140.124 157.101 149.411 157.101 149.411C150.037 148.155 142.757 149.316 136.434 152.705C130.111 156.095 125.114 161.516 122.25 168.094C116.996 179.882 116.517 193.248 120.914 205.383C120.095 206.025 119.439 206.85 118.999 207.793C118.558 208.735 118.345 209.768 118.377 210.808C118.409 211.847 118.685 212.865 119.182 213.779C119.68 214.692 120.385 215.476 121.241 216.067C121.241 216.067 121.582 237.166 132.283 242.07C132.293 242.07 134.801 257.416 145.835 259.247Z" fill="white"/>
<path d="M342.158 309.812C342.158 309.812 366.043 330.132 389.496 330.405C389.496 330.405 388.649 309.866 390.97 301.315C390.97 301.315 386.082 275.177 417.208 271.352C448.335 267.527 472.493 278.017 477.192 293.095C481.89 308.173 479.58 328.76 479.58 328.76C479.58 328.76 500.138 322.268 504.396 318.224C508.654 314.18 497.295 287.195 484.076 277.69C470.857 268.185 462.661 262.271 460.913 256.166C460.913 256.166 470.199 246.496 469.38 226.503C468.56 206.511 469.217 185.693 469.545 181.432C469.872 177.172 472.493 136.992 430.211 132.007C387.93 127.021 382.847 163.406 381.865 169.961C380.883 176.515 380.061 197.984 379.406 202.902C378.751 207.82 369.901 249.937 379.571 258.46C379.363 260.585 378.692 262.64 377.607 264.479C376.523 266.319 375.048 267.9 373.29 269.112C368.813 272.35 346.814 276.816 342.158 309.812Z" fill="#3B8363"/>
<path d="M526.166 481.182C526.166 481.182 518.841 410.984 465.468 399.566C465.468 399.566 460.442 438.188 434.301 436.549C408.16 434.91 405.158 399.566 405.158 399.566C405.158 399.566 385.165 400.935 360.909 434.474C364.799 449.752 366.944 465.42 367.301 481.182H526.166Z" fill="#3B8363"/>
<path d="M51.0056 395.141L67.8794 354.498C67.8794 354.498 70.1462 377.605 86.1382 384.489V397.454C79.4414 397.494 72.802 398.693 66.5134 400.997C66.5134 400.997 61.3739 391.7 56.3832 398.035C56.3832 398.035 54.3463 394.43 51.0056 395.141Z" fill="#3B8363"/>
<path d="M100.169 278.81C100.169 278.81 122.285 266.951 145.751 270.627L145.288 274.414C145.288 274.414 156.433 281.734 172.384 275.396V271.109C172.384 271.109 210.744 258.828 227.236 298.716C227.236 298.716 220.785 308.121 236.109 310.331C236.109 310.331 215.602 318.33 215.161 329.285C214.72 340.24 228.105 344.768 228.105 344.768C228.105 344.768 220.439 352.413 222.906 361.404C225.373 370.396 243.753 375.651 243.753 375.651C227.927 378.903 213.713 387.532 203.524 400.069C186.807 420.936 183.967 455.568 183.967 455.568C183.967 455.568 164.518 402.82 115.571 398.874L115.406 384.827C120.424 380.878 124.606 375.971 127.71 370.39C130.815 364.81 132.779 358.669 133.489 352.324C136.662 329.669 135.02 283.176 100.169 278.81Z" fill="#3B8363"/>
<path d="M367.301 481.182H181.468C181.468 481.182 178.955 385.2 243.766 375.649C243.766 375.649 255.433 373.836 260.459 374.818L274.774 408.796L288.321 374.818C299.563 373.753 310.883 375.725 321.102 380.529C331.322 385.33 340.067 392.788 346.421 402.123C369.049 433.695 367.301 481.182 367.301 481.182Z" fill="#67A67D"/>
<path d="M392.647 174.44C392.647 174.44 424.988 135.053 456.783 176.517C456.783 176.517 463.004 242.022 435.313 244.586C407.622 247.15 400.078 239.344 394.178 222.108C388.278 204.871 392.647 174.44 392.647 174.44Z" fill="#FCCAC2"/>
<path d="M66.4132 342.751C67.2247 353.841 69.4401 376.774 86.1002 384.778V401.008L101.394 415.637L115.571 400.721L115.406 384.827C129.442 378.216 133.559 357.301 134.56 348.171C136.197 333.234 141.574 278.888 102.079 278.902C61.2034 278.904 65.0959 324.619 66.4132 342.751Z" fill="#FCCAC2"/>
<path d="M256.512 112.003L256.077 129.691C256.077 129.691 244.716 128.88 244.275 137.292C243.834 145.705 256.063 144.953 256.063 144.953C256.063 144.953 256.677 177.337 279.24 182.964V195.09L292.732 211.507H297.934L308.519 194.544V183.837C308.519 183.837 326.642 176.187 327.938 144.182C327.938 144.182 340.803 143.738 340.34 135.872C339.878 128.006 327.968 129.207 327.968 129.207L328.238 111.4C328.238 111.4 316.066 115.88 302.998 100.31C302.998 100.31 292.072 112.934 276.01 95.711C276.016 95.7218 273.887 113.207 256.512 112.003Z" fill="white"/>
<path d="M276.992 98.4079C278.261 100.561 279.973 102.421 282.013 103.866C284.052 105.311 286.376 106.308 288.826 106.792C291.28 107.276 293.806 107.236 296.244 106.674C298.678 106.111 300.967 105.041 302.96 103.531C302.96 103.531 311.375 117.954 327.981 114.459V129.207C331.103 129.354 334.192 129.891 337.178 130.806C337.178 130.806 345.677 126.805 346.662 119.566C347.303 116.541 346.889 113.388 345.485 110.631C344.084 107.875 341.78 105.682 338.958 104.418C338.958 104.418 346.984 96.2277 340.489 87.5636C338.772 85.2408 336.278 83.6126 333.459 82.9762C330.64 82.3394 327.687 82.7368 325.138 84.0958C325.138 84.0958 327.573 73.1973 320.332 69.6727C317.813 68.4857 314.989 68.1111 312.249 68.6007C309.506 69.09 306.988 70.4195 305.035 72.4047C305.132 70.7674 304.897 69.1274 304.345 67.5828C303.793 66.0385 302.936 64.6217 301.821 63.4171C300.71 62.2128 299.362 61.2458 297.867 60.5744C296.371 59.9031 294.753 59.5411 293.114 59.51C280.441 58.428 277.82 71.8556 277.82 71.8556C277.82 71.8556 271.155 63.7704 261.86 67.157C252.566 70.5437 254.979 81.9074 254.979 81.9074C254.979 81.9074 240.994 81.2528 238.478 90.32C235.963 99.3871 244.924 106.929 244.924 106.929C244.924 106.929 235.965 112.068 237.386 121.241C237.706 123.785 238.786 126.174 240.486 128.094C242.186 130.014 244.426 131.377 246.913 132.004C249.823 130.351 253.194 129.695 256.513 130.135V115.1C256.513 115.1 275.91 113.375 276.992 98.4079Z" fill="#67A67D"/>
<path d="M275.196 151.337C274.385 152.611 275.721 157.423 282.632 156.776C287.964 156.279 289.554 151.997 288.854 150.79C287.964 149.259 285.221 150.625 281.664 150.333C278.572 150.079 276.616 149.097 275.196 151.337Z" fill="#67A67D"/>
<path d="M306.063 151.337C306.874 152.611 305.538 157.423 298.627 156.776C293.295 156.279 291.705 151.997 292.405 150.79C293.295 149.259 296.038 150.625 299.595 150.333C302.69 150.079 304.643 149.097 306.063 151.337Z" fill="#67A67D"/>
<path d="M339.088 139.746C336.01 142.406 332.033 143.793 327.968 143.625C327.968 143.625 327.754 148.139 327.129 152.822C322.009 159.362 308.221 174.616 291.08 174.443C273.746 174.267 261.344 157.285 256.975 150.314C256.761 148.626 256.591 146.798 256.512 144.885C253.261 145.475 249.906 144.82 247.115 143.049C247.115 143.049 243.293 160.693 257.952 159.901C266.361 184.411 290.238 190.978 307.318 183.618C318.297 178.887 323.848 169.011 326.621 161.167C330.697 160.728 342.042 157.872 339.088 139.746Z" fill="#67A67D"/>
<path d="M160.293 222.451C160.169 222.311 160.074 222.148 160.014 221.971C159.954 221.794 159.929 221.607 159.943 221.42C159.956 221.234 160.007 221.052 160.091 220.885C160.176 220.718 160.294 220.57 160.436 220.449L165.457 216.097L159.671 215.077C159.334 215.018 159.031 214.839 158.815 214.574C158.6 214.308 158.488 213.974 158.5 213.633L159.011 198.972C159.018 198.786 159.061 198.602 159.138 198.433C159.215 198.264 159.325 198.111 159.461 197.984C159.598 197.857 159.758 197.758 159.932 197.693C160.107 197.628 160.292 197.598 160.478 197.604C160.664 197.611 160.848 197.654 161.017 197.731C161.186 197.809 161.339 197.919 161.466 198.055C161.593 198.191 161.692 198.351 161.757 198.526C161.822 198.7 161.852 198.886 161.846 199.072L161.378 212.499L166.452 213.392C166.936 213.475 167.386 213.694 167.75 214.023C168.114 214.352 168.377 214.777 168.509 215.25C168.641 215.723 168.636 216.223 168.494 216.693C168.353 217.163 168.081 217.583 167.71 217.904L162.3 222.592C162.003 222.809 161.638 222.914 161.271 222.889C160.904 222.863 160.557 222.708 160.293 222.451Z" fill="#193737"/>
<path d="M159.636 235.046C157.92 234.973 156.238 234.547 154.695 233.794C153.152 233.041 151.781 231.977 150.669 230.669C150.428 230.38 150.312 230.007 150.346 229.632C150.381 229.258 150.562 228.912 150.851 228.671C151.14 228.43 151.513 228.314 151.888 228.349C152.262 228.383 152.608 228.565 152.849 228.854C154.499 230.707 156.767 231.896 159.23 232.197C160.495 232.204 161.747 231.946 162.906 231.441C164.066 230.935 165.107 230.193 165.963 229.262C166.236 229.004 166.6 228.864 166.976 228.874C167.352 228.884 167.708 229.043 167.967 229.316C168.226 229.589 168.365 229.954 168.355 230.33C168.345 230.706 168.186 231.062 167.913 231.321C165.747 233.597 162.776 234.934 159.636 235.046Z" fill="#193737"/>
<path d="M151.147 207.96C150.941 207.96 150.737 207.915 150.55 207.828C150.363 207.74 150.198 207.613 150.065 207.455C148.672 205.752 146.747 204.567 144.599 204.09C142.452 203.613 140.206 203.872 138.223 204.825C137.888 204.976 137.508 204.991 137.163 204.868C136.818 204.744 136.533 204.492 136.37 204.163C136.206 203.835 136.176 203.456 136.285 203.106C136.395 202.756 136.636 202.462 136.957 202.285C139.511 201.053 142.405 200.713 145.175 201.32C147.945 201.927 150.432 203.445 152.237 205.631C152.411 205.838 152.522 206.091 152.557 206.359C152.593 206.627 152.55 206.899 152.436 207.144C152.321 207.389 152.139 207.595 151.911 207.74C151.683 207.885 151.418 207.961 151.147 207.96Z" fill="#193737"/>
<path d="M168.097 208.555C167.819 208.554 167.548 208.471 167.316 208.317C167.085 208.163 166.903 207.945 166.795 207.689C166.687 207.433 166.656 207.15 166.707 206.877C166.757 206.604 166.887 206.351 167.08 206.151C169.034 204.096 171.62 202.755 174.425 202.343C177.231 201.931 180.093 202.472 182.555 203.879C182.865 204.076 183.086 204.386 183.172 204.744C183.258 205.101 183.202 205.478 183.016 205.794C182.831 206.112 182.529 206.344 182.175 206.443C181.821 206.542 181.443 206.501 181.119 206.327C179.203 205.249 176.983 204.841 174.81 205.166C172.636 205.492 170.633 206.532 169.117 208.123C168.985 208.26 168.826 208.369 168.651 208.443C168.476 208.517 168.287 208.556 168.097 208.555Z" fill="#193737"/>
<path d="M140.087 194.4C139.788 194.4 139.497 194.306 139.254 194.13C139.013 193.954 138.832 193.707 138.74 193.422C138.647 193.138 138.647 192.832 138.738 192.548C138.83 192.263 139.009 192.015 139.251 191.839C141.011 190.656 143.06 189.977 145.178 189.875C147.296 189.773 149.401 190.252 151.266 191.26C151.43 191.348 151.576 191.467 151.694 191.611C151.812 191.755 151.9 191.921 151.954 192.099C152.008 192.277 152.026 192.465 152.008 192.65C151.989 192.835 151.934 193.015 151.846 193.179C151.759 193.343 151.639 193.488 151.495 193.606C151.351 193.724 151.185 193.813 151.007 193.867C150.829 193.92 150.642 193.939 150.457 193.92C150.271 193.902 150.091 193.847 149.927 193.759C148.531 193.007 146.959 192.644 145.374 192.709C143.79 192.775 142.252 193.265 140.922 194.13C140.68 194.306 140.387 194.401 140.087 194.4Z" fill="#193737"/>
<path d="M180.621 195.815C180.289 195.815 179.967 195.698 179.712 195.485C178.448 194.525 176.947 193.925 175.369 193.749C173.791 193.574 172.195 193.828 170.751 194.487C170.581 194.563 170.398 194.605 170.211 194.611C170.025 194.617 169.84 194.585 169.666 194.519C169.492 194.453 169.333 194.353 169.197 194.226C169.062 194.098 168.952 193.945 168.876 193.775C168.8 193.606 168.758 193.422 168.752 193.236C168.746 193.05 168.778 192.865 168.844 192.691C168.91 192.517 169.009 192.357 169.137 192.222C169.264 192.086 169.418 191.977 169.587 191.901C171.519 191.024 173.653 190.692 175.76 190.941C177.866 191.19 179.864 192.01 181.538 193.313C181.759 193.501 181.918 193.752 181.992 194.033C182.066 194.314 182.052 194.611 181.952 194.884C181.852 195.156 181.671 195.392 181.433 195.558C181.195 195.725 180.912 195.814 180.621 195.815Z" fill="#193737"/>
<path d="M191.836 212.702C191.734 212.545 191.665 212.369 191.633 212.184C191.601 211.999 191.607 211.81 191.651 211.628C191.694 211.445 191.774 211.274 191.886 211.123C191.998 210.972 192.139 210.846 192.301 210.752L194.706 209.278C195.027 209.081 195.412 209.02 195.778 209.108C196.144 209.196 196.46 209.425 196.656 209.746C196.853 210.067 196.914 210.452 196.826 210.818C196.738 211.183 196.509 211.499 196.188 211.696L193.786 213.17C193.463 213.357 193.08 213.413 192.717 213.326C192.354 213.239 192.039 213.016 191.836 212.702Z" fill="#193737"/>
<path d="M128.634 212.862C128.093 212.862 128.074 212.764 125.49 211.179C125.17 210.983 124.94 210.667 124.853 210.301C124.765 209.935 124.826 209.55 125.022 209.229C125.219 208.908 125.535 208.679 125.901 208.591C126.266 208.503 126.652 208.564 126.973 208.761L129.377 210.235C129.639 210.398 129.841 210.641 129.953 210.929C130.064 211.216 130.079 211.532 129.995 211.829C129.911 212.125 129.733 212.387 129.487 212.573C129.241 212.759 128.942 212.861 128.634 212.862Z" fill="#193737"/>
<path d="M169.874 188.563C155.694 183.25 153.942 166.958 153.874 166.266C153.852 166.078 153.868 165.888 153.92 165.707C153.973 165.526 154.061 165.357 154.179 165.211C154.298 165.064 154.444 164.943 154.61 164.853C154.777 164.764 154.959 164.709 155.147 164.691C155.334 164.673 155.524 164.692 155.704 164.748C155.884 164.805 156.051 164.896 156.195 165.017C156.339 165.139 156.458 165.288 156.544 165.456C156.63 165.624 156.681 165.807 156.695 165.995C156.717 166.198 158.386 181.235 170.869 185.912C171.204 186.056 171.47 186.323 171.613 186.659C171.756 186.994 171.764 187.371 171.636 187.712C171.508 188.053 171.253 188.332 170.925 188.49C170.597 188.649 170.221 188.675 169.874 188.563Z" fill="#193737"/>
<path d="M177.483 188.752C173.731 186.664 170.53 183.714 168.144 180.144C165.758 176.573 164.257 172.487 163.763 168.221C163.749 168.036 163.772 167.849 163.829 167.672C163.887 167.495 163.979 167.331 164.1 167.19C164.221 167.048 164.369 166.932 164.535 166.848C164.701 166.764 164.882 166.713 165.067 166.698C165.253 166.684 165.439 166.706 165.617 166.764C165.794 166.822 165.957 166.914 166.099 167.035C166.24 167.156 166.356 167.304 166.441 167.47C166.525 167.636 166.576 167.817 166.59 168.002C167.079 171.785 168.439 175.403 170.563 178.571C172.688 181.739 175.519 184.37 178.833 186.258C179.164 186.437 179.41 186.74 179.517 187.101C179.625 187.461 179.584 187.849 179.405 188.18C179.226 188.511 178.923 188.757 178.563 188.864C178.202 188.972 177.814 188.931 177.483 188.752Z" fill="#193737"/>
<path d="M185.604 194.07C185.409 194.07 185.217 194.03 185.039 193.953C184.861 193.876 184.701 193.763 184.568 193.621C184.436 193.479 184.333 193.312 184.268 193.129C184.203 192.946 184.176 192.752 184.189 192.558C185.541 171.862 170.423 164.083 170.272 164.007C169.935 163.839 169.679 163.544 169.56 163.188C169.441 162.831 169.468 162.442 169.636 162.105C169.804 161.769 170.099 161.513 170.455 161.394C170.812 161.274 171.201 161.302 171.538 161.47C171.705 161.553 188.482 170.185 187.018 192.742C186.995 193.102 186.836 193.439 186.573 193.686C186.311 193.932 185.964 194.07 185.604 194.07Z" fill="#193737"/>
<path d="M126.848 186.069C126.551 186.068 126.261 185.974 126.02 185.8C125.779 185.626 125.599 185.38 125.505 185.098C125.411 184.816 125.407 184.512 125.495 184.228C125.584 183.944 125.759 183.694 125.996 183.515C130.984 179.646 134.613 174.292 136.359 168.227C136.445 167.86 136.672 167.543 136.991 167.345C137.31 167.146 137.696 167.082 138.062 167.168C138.428 167.253 138.745 167.48 138.944 167.8C139.142 168.119 139.206 168.504 139.121 168.87C137.253 175.601 133.243 181.539 127.698 185.785C127.453 185.97 127.155 186.07 126.848 186.069Z" fill="#193737"/>
<path d="M213.744 391.684C213.418 391.684 213.102 391.57 212.849 391.365C212.596 391.159 212.422 390.873 212.356 390.553L200.386 332.823C200.316 332.458 200.393 332.079 200.6 331.771C200.806 331.46 201.126 331.243 201.49 331.168C201.855 331.092 202.234 331.162 202.547 331.365C202.86 331.568 203.081 331.885 203.162 332.247L215.131 389.98C215.174 390.185 215.17 390.399 215.12 390.602C215.07 390.808 214.975 391 214.842 391.162C214.71 391.324 214.542 391.457 214.352 391.546C214.162 391.638 213.954 391.684 213.744 391.684Z" fill="#193737"/>
<path d="M289.946 147.371C289.405 147.371 289.676 147.431 283.454 143.733C283.046 143.491 282.716 143.137 282.502 142.714C282.286 142.29 282.196 141.815 282.242 141.342C282.288 140.87 282.47 140.42 282.762 140.047C283.054 139.673 283.449 139.39 283.895 139.232C285.494 138.666 287.35 138.061 289.424 137.428C289.738 135.166 289.725 126.962 289.514 119.607C289.516 119.239 289.66 118.885 289.917 118.621C290.174 118.358 290.525 118.204 290.893 118.194C291.261 118.183 291.621 118.316 291.891 118.565C292.164 118.813 292.329 119.158 292.351 119.526C292.916 139.337 292.127 139.575 290.931 139.935C288.951 140.53 287.098 141.125 285.521 141.666L290.66 144.734C290.926 144.893 291.131 145.134 291.247 145.421C291.361 145.708 291.38 146.024 291.299 146.322C291.22 146.62 291.045 146.884 290.798 147.074C290.555 147.263 290.255 147.367 289.946 147.371Z" fill="#193737"/>
<path d="M269.883 118.057C269.592 118.056 269.308 117.966 269.07 117.799C268.832 117.631 268.651 117.394 268.553 117.12C268.454 116.846 268.442 116.548 268.518 116.267C268.595 115.986 268.756 115.736 268.98 115.549C270.673 114.281 272.707 113.548 274.82 113.445C276.935 113.342 279.029 113.873 280.839 114.971C281.166 115.155 281.407 115.463 281.507 115.825C281.61 116.187 281.561 116.574 281.377 116.902C281.193 117.23 280.885 117.47 280.522 117.571C280.16 117.672 279.773 117.625 279.446 117.44C278.134 116.632 276.611 116.23 275.072 116.283C273.532 116.337 272.042 116.845 270.79 117.743C270.533 117.949 270.213 118.06 269.883 118.057Z" fill="#193737"/>
<path d="M314.681 118.298C314.356 118.297 314.04 118.185 313.788 117.979C312.536 117.081 311.045 116.573 309.506 116.519C307.967 116.465 306.444 116.868 305.132 117.676C304.805 117.842 304.429 117.876 304.077 117.77C303.726 117.665 303.431 117.427 303.25 117.108C303.071 116.788 303.02 116.412 303.112 116.057C303.204 115.702 303.428 115.396 303.739 115.203C305.549 114.107 307.645 113.577 309.758 113.68C311.87 113.783 313.905 114.515 315.598 115.782C315.822 115.97 315.985 116.222 316.061 116.505C316.136 116.788 316.123 117.087 316.023 117.362C315.923 117.637 315.741 117.875 315.501 118.042C315.26 118.21 314.973 118.299 314.681 118.298Z" fill="#193737"/>
<path d="M290.661 163.907C287.912 163.841 285.275 162.811 283.208 160.996C282.927 160.745 282.759 160.393 282.738 160.017C282.719 159.642 282.849 159.273 283.1 158.993C283.349 158.713 283.703 158.544 284.077 158.524C284.453 158.503 284.821 158.633 285.102 158.884C286.533 160.22 288.415 160.966 290.371 160.971C292.33 160.976 294.215 160.24 295.651 158.911C295.787 158.783 295.946 158.683 296.119 158.616C296.295 158.55 296.479 158.519 296.666 158.524C296.852 158.529 297.034 158.571 297.204 158.647C297.374 158.723 297.529 158.832 297.656 158.967C297.783 159.103 297.883 159.262 297.951 159.436C298.015 159.61 298.048 159.795 298.043 159.982C298.037 160.168 297.997 160.351 297.918 160.521C297.842 160.691 297.734 160.844 297.599 160.972C295.765 162.827 293.271 163.882 290.661 163.907Z" fill="#193737"/>
<path d="M253.837 139.064C253.11 139.064 252.928 138.734 250.878 136.927C250.738 136.804 250.624 136.655 250.542 136.487C250.46 136.32 250.412 136.139 250.4 135.953C250.388 135.767 250.413 135.58 250.473 135.404C250.533 135.228 250.628 135.065 250.751 134.925C250.874 134.786 251.024 134.671 251.191 134.589C251.358 134.507 251.54 134.459 251.726 134.447C251.911 134.436 252.098 134.46 252.274 134.521C252.45 134.581 252.613 134.675 252.753 134.798L254.773 136.581C254.989 136.772 255.141 137.023 255.21 137.303C255.279 137.582 255.262 137.875 255.161 138.145C255.059 138.414 254.878 138.646 254.642 138.81C254.406 138.975 254.125 139.063 253.837 139.064Z" fill="#193737"/>
<path d="M269.21 318.411C268.881 318.411 268.556 318.346 268.253 318.219C267.95 318.092 267.675 317.905 267.444 317.672C267.213 317.44 267.031 317.161 266.908 316.858C266.785 316.553 266.723 316.225 266.727 315.898C266.868 309.525 267.524 303.176 268.688 296.909L265.766 295.345C265.435 295.167 265.189 294.861 265.082 294.501C264.975 294.142 265.015 293.752 265.194 293.422C265.374 293.089 265.677 292.843 266.038 292.735C266.399 292.63 266.788 292.67 267.119 292.849L270.96 294.904C271.228 295.048 271.444 295.275 271.571 295.554C271.701 295.83 271.739 296.141 271.677 296.438C270.477 302.662 269.776 308.973 269.58 315.308L274.99 312.138C275.315 311.949 275.702 311.895 276.067 311.989C276.246 312.038 276.416 312.119 276.565 312.233C276.714 312.344 276.838 312.484 276.933 312.644C277.025 312.806 277.087 312.985 277.111 313.169C277.138 313.353 277.127 313.539 277.079 313.72C277.033 313.902 276.952 314.069 276.838 314.218C276.724 314.367 276.584 314.491 276.424 314.586C269.924 318.378 270.113 318.411 269.21 318.411Z" fill="#193737"/>
<path d="M266.713 327.659C266.557 327.557 266.423 327.427 266.318 327.273C266.213 327.118 266.139 326.945 266.101 326.761C266.062 326.58 266.061 326.393 266.095 326.209C266.13 326.026 266.2 325.852 266.302 325.696C266.404 325.539 266.536 325.406 266.689 325.301C266.843 325.195 267.016 325.122 267.199 325.084C267.381 325.046 267.569 325.044 267.752 325.079C267.935 325.111 268.11 325.182 268.266 325.284C269.7 326.147 271.366 326.545 273.035 326.426C274.704 326.307 276.294 325.677 277.593 324.622C277.887 324.389 278.263 324.281 278.637 324.327C279.01 324.37 279.351 324.559 279.586 324.857C279.819 325.152 279.924 325.528 279.881 325.901C279.838 326.274 279.646 326.615 279.351 326.848C277.587 328.271 275.423 329.115 273.162 329.261C270.898 329.404 268.645 328.847 266.713 327.659Z" fill="#193737"/>
<path d="M295.454 293.804C295.105 293.804 294.769 293.676 294.51 293.444C292.93 291.975 290.901 291.082 288.751 290.909C286.6 290.736 284.455 291.291 282.659 292.484C282.505 292.589 282.334 292.665 282.15 292.705C281.969 292.746 281.783 292.749 281.599 292.716C281.415 292.684 281.239 292.616 281.082 292.513C280.925 292.413 280.79 292.283 280.684 292.132C280.576 291.978 280.5 291.805 280.46 291.623C280.422 291.442 280.417 291.253 280.449 291.069C280.484 290.885 280.552 290.712 280.652 290.555C280.752 290.398 280.882 290.26 281.036 290.155C283.357 288.605 286.132 287.877 288.916 288.088C291.699 288.299 294.331 289.438 296.39 291.323C296.603 291.515 296.755 291.767 296.825 292.045C296.893 292.324 296.874 292.616 296.774 292.884C296.674 293.154 296.492 293.384 296.257 293.549C296.022 293.714 295.74 293.801 295.454 293.804Z" fill="#193737"/>
<path d="M247.778 293.804C247.491 293.804 247.21 293.714 246.973 293.552C246.737 293.387 246.556 293.157 246.454 292.887C246.352 292.619 246.334 292.324 246.402 292.045C246.471 291.767 246.622 291.515 246.837 291.323C248.897 289.44 251.529 288.302 254.312 288.088C257.095 287.877 259.869 288.605 262.19 290.155C262.5 290.371 262.711 290.698 262.777 291.069C262.844 291.439 262.76 291.824 262.545 292.132C262.329 292.44 262 292.651 261.629 292.719C261.259 292.784 260.877 292.703 260.567 292.486C258.766 291.304 256.622 290.758 254.475 290.931C252.328 291.104 250.299 291.989 248.711 293.444C248.455 293.674 248.123 293.801 247.778 293.804Z" fill="#193737"/>
<path d="M310.699 303.287C310.596 303.13 310.529 302.955 310.496 302.768C310.464 302.584 310.472 302.395 310.515 302.213C310.558 302.029 310.637 301.859 310.75 301.708C310.861 301.559 311.002 301.432 311.164 301.337L313.569 299.863C313.729 299.76 313.904 299.69 314.091 299.657C314.278 299.625 314.467 299.63 314.651 299.671C314.835 299.714 315.011 299.792 315.162 299.903C315.316 300.012 315.446 300.152 315.546 300.312C315.644 300.474 315.709 300.653 315.738 300.839C315.768 301.026 315.757 301.215 315.711 301.399C315.665 301.583 315.584 301.754 315.471 301.905C315.357 302.057 315.214 302.184 315.051 302.278L312.649 303.753C312.327 303.939 311.943 303.996 311.581 303.909C311.218 303.823 310.902 303.601 310.699 303.287Z" fill="#193737"/>
<path d="M235.589 303.964C235.048 303.964 235.029 303.863 232.446 302.278C232.283 302.184 232.141 302.057 232.027 301.905C231.914 301.754 231.832 301.583 231.786 301.399C231.74 301.215 231.731 301.026 231.759 300.839C231.788 300.653 231.854 300.474 231.952 300.312C232.051 300.152 232.181 300.012 232.334 299.903C232.488 299.792 232.662 299.714 232.846 299.671C233.03 299.63 233.22 299.625 233.406 299.657C233.592 299.69 233.77 299.76 233.929 299.863L236.333 301.337C236.595 301.499 236.797 301.743 236.908 302.029C237.02 302.319 237.034 302.633 236.951 302.93C236.866 303.228 236.688 303.487 236.443 303.674C236.197 303.861 235.898 303.964 235.589 303.964Z" fill="#193737"/>
<path d="M217.836 481.56C217.65 481.56 217.466 481.525 217.293 481.452C217.121 481.382 216.965 481.279 216.833 481.147C216.702 481.014 216.597 480.857 216.526 480.687C216.455 480.514 216.419 480.33 216.419 480.143V441.029C216.419 440.653 216.568 440.293 216.834 440.025C217.1 439.76 217.46 439.611 217.836 439.611C218.212 439.611 218.573 439.76 218.839 440.025C219.104 440.293 219.254 440.653 219.254 441.029V480.138C219.255 480.324 219.218 480.508 219.147 480.681C219.077 480.854 218.972 481.011 218.84 481.144C218.709 481.276 218.552 481.379 218.38 481.452C218.208 481.522 218.023 481.56 217.836 481.56Z" fill="#193737"/>
<path d="M327.749 479.056C327.373 479.056 327.013 478.907 326.745 478.642C326.48 478.374 326.331 478.014 326.331 477.638V438.524C326.331 438.148 326.48 437.788 326.745 437.52C327.013 437.255 327.373 437.106 327.749 437.106C328.125 437.106 328.484 437.255 328.752 437.52C329.017 437.788 329.166 438.148 329.166 438.524V477.638C329.166 477.825 329.131 478.009 329.058 478.182C328.988 478.352 328.885 478.509 328.752 478.642C328.62 478.774 328.463 478.877 328.292 478.947C328.119 479.02 327.935 479.056 327.749 479.056Z" fill="#193737"/>
<path d="M385.655 481.56C385.279 481.56 384.919 481.412 384.651 481.146C384.386 480.879 384.237 480.519 384.237 480.143V446.712C384.229 446.52 384.259 446.328 384.326 446.149C384.394 445.971 384.497 445.806 384.629 445.668C384.762 445.53 384.921 445.419 385.097 445.343C385.273 445.267 385.465 445.229 385.657 445.229C385.847 445.229 386.039 445.267 386.214 445.343C386.39 445.419 386.55 445.53 386.682 445.668C386.815 445.806 386.918 445.971 386.985 446.149C387.053 446.328 387.083 446.52 387.075 446.712V480.138C387.075 480.324 387.039 480.508 386.969 480.681C386.896 480.854 386.793 481.011 386.661 481.144C386.528 481.276 386.371 481.382 386.198 481.452C386.025 481.525 385.841 481.56 385.655 481.56Z" fill="#193737"/>
<path d="M487.046 481.56C486.67 481.56 486.31 481.412 486.045 481.147C485.777 480.879 485.629 480.519 485.629 480.143V446.712C485.629 446.336 485.777 445.976 486.045 445.708C486.31 445.443 486.67 445.294 487.046 445.294C487.422 445.294 487.782 445.443 488.05 445.708C488.315 445.976 488.463 446.336 488.463 446.712V480.138C488.463 480.324 488.428 480.508 488.358 480.681C488.288 480.854 488.182 481.011 488.052 481.144C487.92 481.276 487.763 481.382 487.59 481.452C487.417 481.525 487.233 481.56 487.046 481.56Z" fill="#193737"/>
<path d="M454.835 321.895C454.502 321.895 454.18 321.779 453.926 321.565C451.952 319.929 449.485 319.009 446.92 318.949C444.356 318.89 441.848 319.696 439.801 321.238C439.5 321.465 439.124 321.565 438.751 321.514C438.378 321.462 438.042 321.265 437.815 320.967C437.585 320.667 437.488 320.288 437.539 319.915C437.591 319.544 437.785 319.206 438.086 318.979C438.175 318.911 447.18 312.217 455.744 319.39C455.968 319.577 456.128 319.828 456.204 320.11C456.28 320.391 456.266 320.689 456.166 320.962C456.069 321.235 455.887 321.47 455.649 321.638C455.411 321.806 455.127 321.895 454.835 321.895Z" fill="#193737"/>
<path d="M424.012 362.578C423.695 362.378 423.468 362.059 423.387 361.691C423.303 361.326 423.371 360.939 423.571 360.622C423.771 360.306 424.09 360.079 424.458 359.998C424.823 359.914 425.21 359.981 425.526 360.182C427.158 361.199 429.04 361.74 430.964 361.748C432.884 361.753 434.769 361.226 436.409 360.219C436.717 360.038 437.082 359.979 437.431 360.054C437.783 360.13 438.091 360.333 438.297 360.628C438.5 360.92 438.589 361.282 438.537 361.637C438.489 361.991 438.308 362.313 438.032 362.54C435.906 363.785 433.49 364.442 431.026 364.45C428.564 364.455 426.143 363.809 424.012 362.578Z" fill="#193737"/>
<path d="M467.641 338.195C467.457 337.868 467.411 337.481 467.513 337.119C467.614 336.759 467.854 336.451 468.182 336.267L471.133 334.63C471.46 334.454 471.847 334.414 472.204 334.517C472.561 334.622 472.864 334.863 473.045 335.19C473.226 335.515 473.272 335.899 473.172 336.259C473.072 336.618 472.834 336.924 472.51 337.108L469.558 338.747C469.228 338.909 468.847 338.945 468.493 338.842C468.138 338.739 467.835 338.509 467.641 338.195Z" fill="#193737"/>
<path d="M397.838 337.23C397.603 337.23 394.2 335.412 394.2 335.412C394.035 335.323 393.889 335.201 393.77 335.055C393.653 334.909 393.564 334.741 393.513 334.562C393.458 334.381 393.442 334.195 393.464 334.008C393.485 333.821 393.542 333.64 393.634 333.475C393.726 333.313 393.848 333.167 393.994 333.05C394.143 332.934 394.311 332.85 394.492 332.799C394.673 332.75 394.862 332.734 395.049 332.758C395.233 332.78 395.414 332.842 395.576 332.934L398.528 334.573C398.879 334.665 399.182 334.892 399.366 335.206C399.55 335.52 399.602 335.893 399.512 336.248C399.42 336.599 399.193 336.9 398.879 337.084C398.565 337.27 398.19 337.322 397.838 337.23Z" fill="#193737"/>
<path d="M94.4316 359.495C94.1484 359.248 93.9739 358.899 93.9466 358.526C93.9195 358.153 94.0415 357.782 94.2863 357.498C94.5311 357.214 94.8787 357.038 95.2528 357.011C95.6269 356.982 95.997 357.103 96.2818 357.347C97.9186 358.702 99.9784 359.44 102.103 359.435C104.229 359.43 106.284 358.678 107.913 357.314C108.059 357.198 108.226 357.111 108.405 357.06C108.584 357.009 108.771 356.992 108.956 357.014C109.141 357.036 109.32 357.092 109.483 357.182C109.646 357.274 109.79 357.395 109.906 357.539C110.022 357.685 110.108 357.853 110.159 358.031C110.211 358.21 110.226 358.399 110.205 358.583C110.184 358.767 110.127 358.948 110.037 359.11C109.947 359.273 109.825 359.416 109.68 359.532C107.545 361.331 104.841 362.313 102.049 362.308C99.257 362.3 96.558 361.304 94.4316 359.495Z" fill="#193737"/>
<path d="M82.4187 322.317C82.1344 322.317 81.8569 322.23 81.6223 322.068C81.3878 321.909 81.2066 321.681 81.1027 321.416C80.9986 321.151 80.9764 320.862 81.0389 320.586C81.1014 320.307 81.2455 320.056 81.453 319.861C83.0116 318.357 85.0604 317.467 87.223 317.353C89.3857 317.237 91.5167 317.908 93.2252 319.239C93.52 319.471 93.7102 319.812 93.7535 320.188C93.7967 320.561 93.6899 320.935 93.4564 321.232C93.223 321.527 92.8819 321.717 92.5083 321.76C92.1345 321.803 91.7591 321.695 91.4642 321.462C90.2748 320.578 88.812 320.142 87.3326 320.229C85.8532 320.318 84.4523 320.924 83.3763 321.944C83.115 322.184 82.7733 322.317 82.4187 322.317Z" fill="#193737"/>
<path d="M121.952 322.32C121.596 322.32 121.253 322.184 120.992 321.944C119.917 320.924 118.516 320.318 117.037 320.229C115.558 320.142 114.095 320.578 112.907 321.462C112.761 321.579 112.594 321.662 112.414 321.714C112.235 321.765 112.048 321.781 111.863 321.76C111.678 321.738 111.499 321.681 111.336 321.589C111.173 321.5 111.03 321.376 110.915 321.232C110.799 321.086 110.713 320.919 110.662 320.737C110.611 320.559 110.596 320.372 110.618 320.188C110.639 320.002 110.697 319.823 110.787 319.661C110.878 319.498 111 319.355 111.146 319.239C112.854 317.908 114.986 317.237 117.148 317.353C119.311 317.467 121.359 318.357 122.918 319.861C123.126 320.056 123.272 320.307 123.335 320.586C123.398 320.864 123.376 321.154 123.272 321.419C123.167 321.684 122.986 321.911 122.751 322.074C122.515 322.233 122.237 322.32 121.952 322.32Z" fill="#193737"/>
<path d="M101.586 350.343C101.221 350.33 100.874 350.176 100.619 349.913C100.363 349.651 100.219 349.302 100.217 348.934C100.214 348.569 100.352 348.217 100.604 347.95C100.855 347.684 101.199 347.525 101.565 347.506C101.622 347.506 107.378 347.29 107.378 344.774C107.378 342.137 101.995 341.493 101.941 341.487C101.59 341.455 101.264 341.29 101.027 341.03C100.79 340.768 100.658 340.427 100.659 340.075V325.106C100.675 324.741 100.831 324.394 101.095 324.143C101.36 323.889 101.712 323.748 102.077 323.748C102.443 323.748 102.795 323.889 103.06 324.143C103.324 324.394 103.48 324.741 103.496 325.106V338.853C113.472 340.808 112.028 350.343 101.586 350.343Z" fill="#193737"/>
<path d="M422.694 209.729C422.424 209.729 416.41 205.907 416.024 204.049C415.972 203.833 415.972 203.608 416.018 203.391C416.064 203.174 416.159 202.97 416.294 202.794C417.395 201.441 421.739 200.34 422.153 199.894C422.426 194.488 422.426 189.071 422.153 183.664C422.14 183.288 422.278 182.922 422.535 182.648C422.792 182.373 423.146 182.211 423.522 182.198C423.898 182.185 424.263 182.322 424.539 182.579C424.812 182.835 424.974 183.191 424.988 183.567C425.616 201.366 424.772 201.533 423.925 202.212C423.654 202.426 420.327 203.632 419.432 204.044C420.722 205.152 422.077 206.185 423.489 207.135C423.741 207.306 423.93 207.552 424.03 207.839C424.131 208.125 424.136 208.436 424.049 208.726C423.96 209.016 423.779 209.269 423.535 209.45C423.292 209.631 422.997 209.729 422.694 209.729Z" fill="#193737"/>
<path d="M402.561 179.536C404.157 178.285 406.085 177.532 408.106 177.371C410.127 177.21 412.15 177.648 413.922 178.63C414.09 178.712 414.238 178.826 414.36 178.966C414.484 179.106 414.579 179.268 414.639 179.445C414.698 179.621 414.722 179.807 414.712 179.993C414.701 180.179 414.652 180.361 414.571 180.528C414.487 180.695 414.374 180.844 414.233 180.967C414.095 181.09 413.933 181.184 413.754 181.244C413.4 181.366 413.01 181.341 412.672 181.176C411.238 180.476 409.634 180.194 408.047 180.361C406.459 180.529 404.952 181.139 403.694 182.122C402.304 182.588 400.976 180.832 402.561 179.536Z" fill="#193737"/>
<path d="M444.099 182.122C442.8 181.229 441.296 180.675 439.728 180.509C438.161 180.344 436.576 180.573 435.118 181.176C434.78 181.341 434.391 181.366 434.036 181.244C433.679 181.123 433.387 180.865 433.222 180.528C433.054 180.19 433.03 179.801 433.152 179.445C433.273 179.089 433.53 178.796 433.869 178.63C435.667 177.739 437.674 177.353 439.673 177.512C441.675 177.672 443.596 178.371 445.23 179.536C446.793 180.837 445.495 182.588 444.099 182.122Z" fill="#193737"/>
<path d="M415.136 217.617C414.999 217.489 414.89 217.333 414.815 217.161C414.739 216.988 414.701 216.802 414.701 216.614C414.701 216.425 414.739 216.239 414.815 216.067C414.89 215.894 414.999 215.739 415.136 215.61C415.402 215.346 415.761 215.198 416.137 215.198C416.513 215.198 416.873 215.346 417.138 215.61C418.739 217.101 420.852 217.921 423.038 217.903C425.226 217.886 427.325 217.031 428.902 215.515C429.046 215.398 429.213 215.31 429.392 215.257C429.57 215.204 429.757 215.187 429.944 215.206C430.128 215.225 430.306 215.28 430.471 215.369C430.636 215.458 430.779 215.578 430.896 215.722C431.015 215.867 431.101 216.033 431.155 216.212C431.21 216.39 431.226 216.577 431.207 216.763C431.188 216.948 431.131 217.128 431.045 217.291C430.955 217.455 430.834 217.6 430.69 217.717C428.486 219.503 425.732 220.47 422.894 220.452C420.06 220.433 417.317 219.431 415.136 217.617Z" fill="#193737"/>
<path d="M401.555 253.978C401.447 253.978 388.03 251.414 383.12 235.143C383.077 234.96 383.071 234.771 383.104 234.586C383.136 234.401 383.207 234.225 383.309 234.068C383.415 233.912 383.547 233.778 383.704 233.675C383.861 233.572 384.04 233.503 384.224 233.471C384.405 233.434 384.594 233.433 384.778 233.467C384.959 233.503 385.135 233.573 385.29 233.676C385.446 233.779 385.579 233.911 385.684 234.065C385.787 234.219 385.86 234.393 385.898 234.575C386.02 235.156 388.874 248.157 401.874 251.178C402.209 251.26 402.504 251.462 402.702 251.745C402.899 252.029 402.988 252.375 402.948 252.719C402.91 253.062 402.745 253.38 402.491 253.612C402.234 253.843 401.901 253.974 401.555 253.978Z" fill="#193737"/>
<path d="M376.79 299.173C371.591 297.875 368.427 288.623 368.083 287.587C368.026 287.409 368.002 287.222 368.015 287.036C368.032 286.849 368.083 286.668 368.167 286.503C368.251 286.335 368.367 286.186 368.51 286.065C368.651 285.943 368.816 285.851 368.995 285.794C369.17 285.735 369.357 285.713 369.544 285.726C369.73 285.74 369.912 285.791 370.079 285.875C370.247 285.962 370.393 286.078 370.515 286.219C370.637 286.362 370.731 286.524 370.788 286.703C371.902 290.092 374.708 295.727 377.488 296.422C377.672 296.46 377.848 296.538 378 296.646C378.154 296.755 378.284 296.895 378.381 297.058C378.478 297.217 378.541 297.398 378.565 297.585C378.589 297.772 378.573 297.961 378.522 298.142C378.373 298.47 378.127 298.746 377.818 298.93C377.507 299.113 377.15 299.197 376.79 299.173Z" fill="#193737"/>
<path d="M275.237 132.007C277.114 132.007 278.637 130.083 278.637 127.711C278.637 125.339 277.114 123.416 275.237 123.416C273.359 123.416 271.836 125.339 271.836 127.711C271.836 130.083 273.359 132.007 275.237 132.007Z" fill="#193737"/>
<path d="M329.385 127.784V113.421C329.385 113.045 329.236 112.684 328.971 112.418C328.703 112.153 328.344 112.003 327.968 112.003C327.592 112.003 327.232 112.153 326.967 112.418C326.699 112.684 326.55 113.045 326.55 113.421V129.207C326.55 129.399 326.591 129.589 326.664 129.765C326.74 129.941 326.851 130.101 326.991 130.233C327.129 130.366 327.294 130.469 327.473 130.536C327.651 130.603 327.843 130.633 328.035 130.624C328.141 130.624 338.769 130.262 339.039 135.253C339.415 142.229 328.084 142.207 327.973 142.207C327.786 142.206 327.603 142.243 327.429 142.314C327.256 142.384 327.099 142.489 326.967 142.621C326.834 142.752 326.732 142.909 326.658 143.081C326.588 143.253 326.55 143.438 326.55 143.625C326.55 143.922 326.31 173.65 307.691 182.558C307.448 182.672 307.242 182.853 307.099 183.08C306.955 183.306 306.88 183.569 306.88 183.837V194.836C303.634 199.751 296.974 211.398 297.031 211.426C297.031 211.426 313.669 225.721 315.468 225.299C317.591 224.174 324.154 208.112 329.188 193.413C322.777 192.153 316.214 191.843 309.712 192.493V184.714C323.115 177.735 328.701 160.031 329.342 144.985C331.833 144.801 336.973 144.312 339.891 140.96C341.85 138.742 345.38 126.94 329.385 127.784Z" fill="#193737"/>
<path d="M308.946 132.007C310.824 132.007 312.347 130.083 312.347 127.711C312.347 125.339 310.824 123.416 308.946 123.416C307.069 123.416 305.546 125.339 305.546 127.711C305.546 130.083 307.069 132.007 308.946 132.007Z" fill="#193737"/>
<path d="M86.1381 340.075C87.8742 340.075 89.2813 338.236 89.2813 335.966C89.2813 333.697 87.8742 331.858 86.1381 331.858C84.4023 331.858 82.9949 333.697 82.9949 335.966C82.9949 338.236 84.4023 340.075 86.1381 340.075Z" fill="#193737"/>
<path d="M116.989 340.075C118.725 340.075 120.132 338.236 120.132 335.966C120.132 333.697 118.725 331.858 116.989 331.858C115.253 331.858 113.845 333.697 113.845 335.966C113.845 338.236 115.253 340.075 116.989 340.075Z" fill="#193737"/>
<path d="M256.126 308.056C257.959 308.056 259.445 306.068 259.445 303.617C259.445 301.167 257.959 299.178 256.126 299.178C254.293 299.178 252.807 301.167 252.807 303.617C252.807 306.068 254.293 308.056 256.126 308.056Z" fill="#193737"/>
<path d="M446.325 150.601C439.392 144.528 430.341 141.438 421.142 142.002C420.958 142.021 420.776 142.076 420.611 142.164C420.449 142.252 420.303 142.372 420.187 142.516C420.068 142.661 419.981 142.827 419.927 143.005C419.873 143.183 419.857 143.37 419.876 143.556C419.892 143.741 419.949 143.921 420.038 144.085C420.125 144.248 420.244 144.393 420.39 144.511C420.533 144.629 420.698 144.717 420.877 144.771C421.055 144.824 421.244 144.842 421.428 144.823C421.555 144.807 446.742 142.537 454.911 172.365C449.985 165.908 425.873 140.463 395.504 170.201C399.41 155.697 406.199 151.943 406.305 151.886C406.64 151.716 406.894 151.421 407.013 151.064C407.13 150.706 407.103 150.317 406.932 149.981C406.762 149.646 406.467 149.391 406.11 149.273C405.753 149.156 405.363 149.185 405.028 149.354C404.522 149.605 395.006 154.661 391.373 175.714C390.305 182.213 389.839 188.797 389.985 195.382C390.453 230.92 400.535 246.777 422.716 246.777C423.092 246.777 423.452 246.628 423.719 246.362C423.985 246.096 424.133 245.736 424.133 245.36C424.133 244.984 423.985 244.623 423.719 244.358C423.452 244.092 423.092 243.942 422.716 243.942C402.217 243.942 393.28 229.411 392.831 195.355C392.696 189.039 393.137 182.724 394.148 176.488C400.519 167.126 411.782 159.262 423.993 159.262C445.159 159.262 454.949 177.186 455.993 179.225C456.263 181.994 456.388 184.775 456.369 187.557C456.128 240.285 441.997 242.406 435.208 243.426C435.018 243.448 434.837 243.508 434.672 243.602C434.507 243.696 434.364 243.822 434.247 243.973C434.134 244.124 434.05 244.296 434.004 244.48C433.955 244.664 433.944 244.855 433.974 245.043C434.001 245.23 434.066 245.411 434.166 245.572C434.266 245.734 434.396 245.875 434.55 245.985C434.704 246.096 434.878 246.174 435.064 246.216C435.248 246.258 435.44 246.262 435.627 246.228C447.161 244.5 458.985 236.176 459.206 187.567C459.26 170.859 454.93 158.424 446.325 150.601Z" fill="#193737"/>
<path d="M288.651 308.056C290.485 308.056 291.97 306.068 291.97 303.617C291.97 301.167 290.485 299.178 288.651 299.178C286.817 299.178 285.332 301.167 285.332 303.617C285.332 306.068 286.817 308.056 288.651 308.056Z" fill="#193737"/>
<path d="M440.558 197.414C442.14 197.414 443.425 195.579 443.425 193.316C443.425 191.052 442.14 189.217 440.558 189.217C438.976 189.217 437.691 191.052 437.691 193.316C437.691 195.579 438.976 197.414 440.558 197.414Z" fill="#193737"/>
<path d="M408.271 197.414C409.854 197.414 411.138 195.579 411.138 193.316C411.138 191.052 409.854 189.217 408.271 189.217C406.689 189.217 405.404 191.052 405.404 193.316C405.404 195.579 406.689 197.414 408.271 197.414Z" fill="#193737"/>
<path d="M244.059 394.373C243.872 394.373 243.688 394.338 243.515 394.265C243.343 394.194 243.186 394.091 243.054 393.959C242.923 393.826 242.818 393.67 242.747 393.499C242.675 393.326 242.638 393.142 242.638 392.955V387.929C242.654 387.564 242.811 387.218 243.075 386.967C243.34 386.712 243.691 386.572 244.057 386.572C244.423 386.572 244.775 386.712 245.039 386.967C245.304 387.218 245.46 387.564 245.476 387.929V392.955C245.476 393.331 245.327 393.691 245.061 393.959C244.795 394.224 244.435 394.373 244.059 394.373Z" fill="#193737"/>
<path d="M221.442 408.796C221.066 408.796 220.705 408.647 220.439 408.382C220.173 408.114 220.023 407.754 220.022 407.378V402.353C220.038 401.987 220.194 401.641 220.459 401.39C220.723 401.135 221.075 400.995 221.441 400.995C221.807 400.995 222.158 401.135 222.423 401.39C222.687 401.641 222.844 401.987 222.86 402.353V407.373C222.86 407.56 222.824 407.744 222.752 407.917C222.681 408.09 222.577 408.247 222.445 408.379C222.314 408.509 222.158 408.615 221.985 408.688C221.813 408.758 221.628 408.796 221.442 408.796Z" fill="#193737"/>
<path d="M261.103 407.914C260.727 407.914 260.366 407.765 260.1 407.5C259.833 407.232 259.684 406.873 259.683 406.497V401.471C259.674 401.279 259.705 401.087 259.772 400.908C259.84 400.73 259.943 400.565 260.076 400.427C260.208 400.289 260.367 400.178 260.544 400.102C260.72 400.026 260.91 399.988 261.102 399.988C261.293 399.988 261.483 400.026 261.659 400.102C261.836 400.178 261.995 400.289 262.127 400.427C262.26 400.565 262.363 400.73 262.431 400.908C262.498 401.087 262.529 401.279 262.52 401.471V406.497C262.519 406.873 262.37 407.232 262.104 407.497C261.839 407.763 261.479 407.914 261.103 407.914Z" fill="#193737"/>
<path d="M243.179 431.177C242.993 431.177 242.809 431.142 242.636 431.069C242.464 430.999 242.307 430.896 242.175 430.763C242.044 430.631 241.939 430.474 241.867 430.303C241.796 430.13 241.759 429.946 241.759 429.76V424.734C241.775 424.369 241.932 424.022 242.196 423.771C242.46 423.517 242.812 423.376 243.178 423.376C243.544 423.376 243.896 423.517 244.16 423.771C244.425 424.022 244.581 424.369 244.597 424.734V429.76C244.597 430.136 244.448 430.495 244.182 430.763C243.916 431.028 243.555 431.177 243.179 431.177Z" fill="#193737"/>
<path d="M293.987 421.458C293.611 421.458 293.252 421.307 292.984 421.041C292.719 420.774 292.57 420.414 292.57 420.038V415.012C292.586 414.647 292.743 414.301 293.006 414.049C293.271 413.795 293.622 413.654 293.99 413.654C294.355 413.654 294.707 413.795 294.972 414.049C295.234 414.301 295.391 414.647 295.408 415.012V420.038C295.408 420.414 295.259 420.776 294.991 421.041C294.726 421.309 294.363 421.458 293.987 421.458Z" fill="#193737"/>
<path d="M271.371 440.915C270.995 440.915 270.635 440.764 270.37 440.498C270.104 440.233 269.954 439.874 269.954 439.498V434.472C269.97 434.107 270.126 433.76 270.39 433.509C270.654 433.254 271.006 433.114 271.374 433.114C271.739 433.114 272.091 433.254 272.356 433.509C272.618 433.76 272.775 434.107 272.791 434.472V439.498C272.791 439.874 272.64 440.233 272.375 440.501C272.107 440.766 271.747 440.915 271.371 440.915Z" fill="#193737"/>
<path d="M307.426 393.064C307.05 393.064 306.69 392.912 306.422 392.647C306.157 392.379 306.009 392.019 306.009 391.643V386.62C306.001 386.428 306.03 386.236 306.098 386.058C306.166 385.879 306.268 385.714 306.401 385.576C306.533 385.438 306.693 385.327 306.869 385.252C307.045 385.176 307.237 385.138 307.426 385.138C307.618 385.138 307.81 385.176 307.986 385.252C308.162 385.327 308.321 385.438 308.454 385.576C308.586 385.714 308.689 385.879 308.757 386.058C308.825 386.236 308.854 386.428 308.846 386.62V391.643C308.846 392.019 308.697 392.382 308.43 392.647C308.165 392.915 307.802 393.064 307.426 393.064Z" fill="#193737"/>
<path d="M331.027 408.796C330.84 408.796 330.656 408.758 330.483 408.688C330.313 408.617 330.156 408.512 330.023 408.382C329.894 408.249 329.788 408.093 329.718 407.922C329.647 407.749 329.61 407.565 329.61 407.378V402.353C329.61 401.977 329.758 401.617 330.023 401.349C330.291 401.084 330.651 400.935 331.027 400.935C331.403 400.935 331.763 401.084 332.031 401.349C332.296 401.617 332.444 401.977 332.444 402.353V407.373C332.444 407.56 332.409 407.744 332.336 407.917C332.266 408.09 332.163 408.247 332.031 408.379C331.898 408.509 331.741 408.615 331.571 408.688C331.398 408.758 331.214 408.796 331.027 408.796Z" fill="#193737"/>
<path d="M317.48 433.695C317.104 433.695 316.742 433.547 316.477 433.279C316.209 433.014 316.06 432.651 316.06 432.275V427.249C316.077 426.884 316.233 426.538 316.496 426.286C316.761 426.032 317.113 425.891 317.48 425.891C317.846 425.891 318.197 426.032 318.462 426.286C318.725 426.538 318.882 426.884 318.898 427.249V432.275C318.898 432.651 318.749 433.011 318.484 433.279C318.216 433.544 317.856 433.695 317.48 433.695Z" fill="#193737"/>
<path d="M298.467 455.557C298.091 455.557 297.731 455.408 297.463 455.143C297.198 454.876 297.05 454.516 297.05 454.14V449.114C297.066 448.749 297.223 448.402 297.485 448.151C297.75 447.897 298.102 447.756 298.47 447.756C298.835 447.756 299.187 447.897 299.452 448.151C299.714 448.402 299.871 448.749 299.887 449.114V454.14C299.887 454.326 299.849 454.51 299.779 454.683C299.709 454.854 299.603 455.011 299.471 455.143C299.338 455.276 299.184 455.379 299.011 455.449C298.838 455.522 298.654 455.557 298.467 455.557Z" fill="#193737"/>
<path d="M204.944 431.177C204.758 431.177 204.573 431.142 204.401 431.069C204.229 430.999 204.072 430.896 203.94 430.763C203.808 430.631 203.704 430.474 203.632 430.303C203.561 430.13 203.524 429.946 203.524 429.76V424.734C203.54 424.369 203.696 424.022 203.961 423.771C204.225 423.517 204.577 423.376 204.943 423.376C205.309 423.376 205.661 423.517 205.925 423.771C206.189 424.022 206.346 424.369 206.362 424.734V429.76C206.362 430.136 206.212 430.495 205.946 430.763C205.681 431.028 205.32 431.177 204.944 431.177Z" fill="#193737"/>
<path d="M253.837 462.014C253.651 462.014 253.467 461.979 253.294 461.906C253.122 461.836 252.966 461.733 252.834 461.6C252.702 461.468 252.598 461.311 252.527 461.14C252.456 460.967 252.419 460.783 252.42 460.597V455.571C252.42 455.195 252.569 454.835 252.835 454.567C253.101 454.302 253.461 454.153 253.837 454.153C254.213 454.153 254.574 454.302 254.839 454.567C255.105 454.835 255.255 455.195 255.255 455.571V460.597C255.255 460.973 255.105 461.332 254.839 461.6C254.574 461.865 254.213 462.014 253.837 462.014Z" fill="#193737"/>
<path d="M279.894 470.854C279.518 470.854 279.159 470.705 278.891 470.44C278.626 470.172 278.477 469.813 278.477 469.437V464.411C278.477 464.035 278.626 463.675 278.891 463.407C279.159 463.142 279.518 462.993 279.894 462.993C280.27 462.993 280.63 463.142 280.898 463.407C281.163 463.675 281.312 464.035 281.312 464.411V469.437C281.312 469.813 281.16 470.172 280.895 470.437C280.63 470.703 280.27 470.854 279.894 470.854Z" fill="#193737"/>
<path d="M230.717 470.854C230.341 470.854 229.981 470.705 229.715 470.44C229.449 470.172 229.3 469.813 229.3 469.437V464.411C229.3 464.035 229.449 463.675 229.715 463.407C229.981 463.142 230.341 462.993 230.717 462.993C231.093 462.993 231.454 463.142 231.72 463.407C231.986 463.675 232.135 464.035 232.135 464.411V469.437C232.134 469.813 231.984 470.172 231.719 470.437C231.453 470.703 231.093 470.854 230.717 470.854Z" fill="#193737"/>
<path d="M207.76 459.493C207.574 459.493 207.389 459.455 207.217 459.385C207.044 459.314 206.888 459.209 206.756 459.076C206.624 458.944 206.52 458.79 206.448 458.617C206.377 458.443 206.34 458.26 206.34 458.073V453.047C206.356 452.682 206.512 452.336 206.777 452.084C207.041 451.83 207.393 451.689 207.759 451.689C208.125 451.689 208.476 451.83 208.741 452.084C209.005 452.336 209.162 452.682 209.178 453.047V458.073C209.178 458.449 209.028 458.809 208.763 459.076C208.497 459.342 208.136 459.493 207.76 459.493Z" fill="#193737"/>
<path d="M192.926 473.375C192.55 473.375 192.189 473.226 191.923 472.961C191.657 472.693 191.507 472.334 191.506 471.958V466.932C191.522 466.567 191.678 466.22 191.943 465.969C192.207 465.714 192.559 465.574 192.925 465.574C193.291 465.574 193.642 465.714 193.907 465.969C194.171 466.22 194.327 466.567 194.343 466.932V471.958C194.343 472.334 194.193 472.693 193.927 472.958C193.662 473.224 193.302 473.375 192.926 473.375Z" fill="#193737"/>
<path d="M316.166 469.318C315.79 469.318 315.43 469.166 315.162 468.901C314.897 468.633 314.748 468.273 314.748 467.897V462.88C314.765 462.515 314.921 462.168 315.184 461.917C315.449 461.662 315.801 461.522 316.166 461.522C316.534 461.522 316.885 461.662 317.15 461.917C317.413 462.168 317.57 462.515 317.586 462.88V467.906C317.583 468.282 317.434 468.639 317.167 468.904C316.901 469.169 316.542 469.318 316.166 469.318Z" fill="#193737"/>
<path d="M340.641 443.417C340.265 443.417 339.905 443.266 339.64 443.001C339.375 442.735 339.223 442.376 339.223 442V436.974C339.239 436.609 339.396 436.262 339.659 436.011C339.924 435.757 340.275 435.616 340.643 435.616C341.008 435.616 341.36 435.757 341.625 436.011C341.888 436.262 342.044 436.609 342.061 436.974V441.997C342.061 442.373 341.912 442.735 341.644 443.001C341.379 443.268 341.017 443.417 340.641 443.417Z" fill="#193737"/>
<path d="M350.949 466.813C350.576 466.813 350.219 466.667 349.954 466.404C349.689 466.142 349.537 465.788 349.532 465.414L349.462 460.388C349.456 460.012 349.6 459.65 349.862 459.379C350.124 459.112 350.484 458.955 350.857 458.949C351.233 458.944 351.599 459.09 351.866 459.352C352.137 459.615 352.291 459.972 352.296 460.348L352.367 465.374C352.369 465.752 352.221 466.115 351.956 466.385C351.688 466.656 351.328 466.807 350.949 466.813Z" fill="#193737"/>
<path d="M444.791 213.851C447.18 213.49 448.906 211.819 448.649 210.118C448.389 208.418 446.247 207.333 443.858 207.695C441.472 208.056 439.746 209.727 440.003 211.427C440.26 213.127 442.405 214.213 444.791 213.851Z" fill="#FCCAC2"/>
<path d="M406.932 211.294C407.138 209.587 405.361 207.969 402.964 207.68C400.567 207.392 398.457 208.542 398.252 210.249C398.046 211.957 399.823 213.574 402.22 213.863C404.617 214.151 406.727 213.001 406.932 211.294Z" fill="#FCCAC2"/>
<path d="M316.299 150.731C318.687 150.369 320.413 148.697 320.156 146.996C319.899 145.295 317.754 144.21 315.365 144.573C312.977 144.935 311.251 146.607 311.508 148.307C311.768 150.008 313.913 151.093 316.299 150.731Z" fill="#FCCAC2"/>
<path d="M271.252 148.579C271.566 146.888 269.897 145.16 267.524 144.718C265.151 144.276 262.972 145.288 262.657 146.979C262.342 148.669 264.011 150.398 266.384 150.84C268.758 151.281 270.936 150.269 271.252 148.579Z" fill="#FCCAC2"/>
<path d="M180.208 228.355C182.595 227.994 184.321 226.322 184.064 224.622C183.807 222.922 181.663 221.837 179.276 222.198C176.889 222.56 175.162 224.231 175.42 225.931C175.677 227.631 177.821 228.717 180.208 228.355Z" fill="#FCCAC2"/>
<path d="M144.797 225.059C145.111 223.369 143.442 221.64 141.069 221.198C138.695 220.756 136.516 221.769 136.202 223.459C135.887 225.15 137.556 226.878 139.929 227.32C142.303 227.762 144.482 226.75 144.797 225.059Z" fill="#FCCAC2"/>
<path d="M298.491 321.492C300.88 321.13 302.606 319.461 302.349 317.759C302.089 316.06 299.947 314.973 297.558 315.335C295.172 315.698 293.447 317.367 293.704 319.068C293.961 320.767 296.106 321.854 298.491 321.492Z" fill="#FCCAC2"/>
<path d="M253.531 319.209C253.846 317.518 252.176 315.79 249.803 315.349C247.429 314.908 245.25 315.92 244.936 317.61C244.622 319.301 246.291 321.029 248.665 321.47C251.038 321.911 253.217 320.9 253.531 319.209Z" fill="#FCCAC2"/>
<path d="M456.888 357.328C459.274 356.968 461 355.296 460.743 353.598C460.486 351.896 458.341 350.811 455.955 351.171C453.566 351.534 451.841 353.205 452.098 354.904C452.357 356.606 454.5 357.69 456.888 357.328Z" fill="#FCCAC2"/>
<path d="M414.465 355.042C414.779 353.351 413.11 351.623 410.735 351.182C408.363 350.741 406.183 351.753 405.869 353.443C405.555 355.134 407.224 356.863 409.599 357.303C411.971 357.744 414.152 356.733 414.465 355.042Z" fill="#FCCAC2"/>
<path d="M123.005 355.048C125.393 354.685 127.119 353.013 126.861 351.315C126.604 349.613 124.46 348.528 122.073 348.891C119.686 349.251 117.96 350.922 118.217 352.621C118.475 354.323 120.619 355.407 123.005 355.048Z" fill="#FCCAC2"/>
<path d="M86.1011 352.764C86.4155 351.074 84.7459 349.345 82.3726 348.904C79.9989 348.461 77.8201 349.475 77.5057 351.166C77.1917 352.856 78.8609 354.585 81.2346 355.026C83.6079 355.467 85.7868 354.455 86.1011 352.764Z" fill="#FCCAC2"/>
<path d="M527.456 479.697C524.968 464.113 519.503 443.804 508.224 427.996C508.567 392.179 506.941 356.37 503.355 320.732C504.274 320.231 505.083 319.55 505.735 318.73C508.378 314.54 503.655 294.193 488.693 279.835C474.265 265.98 467.053 266.97 462.366 256.093C471.833 245.184 471.271 227.902 470.987 219.286C470.716 211.32 470.857 200.351 470.954 191.517C471.027 185.479 479.567 132.51 425.14 129.762C413.275 129.161 403.47 132.331 395.958 139.421C378.335 156.057 378.343 184.232 378.343 200.013C378.343 206.145 375.246 223.974 374.827 228.416C363.152 206.156 345.964 197.324 331.985 194.011C331.173 196.383 328.833 203.07 326.207 209.77C319.385 227.169 317.326 227.729 316.225 228.029C312.141 229.238 300.123 218.732 296.947 215.921V243.023C295.992 242.482 295.053 241.968 294.112 241.521V215.51C288.212 219.7 278.285 226.152 274.963 224.683C270.635 222.789 262.739 198.312 261.26 193.77C213.717 203.616 199.951 258.022 197.535 269.607C189.721 267.996 181.661 267.985 173.842 269.575L173.572 262.412C185.379 257.235 188.466 243.921 188.652 243.296C190.759 241.627 199.916 233.404 200.419 216.403C203.238 215.299 204.712 209.513 201.501 206.394C204.92 196.386 205.886 168.381 192.361 155.895C187.683 151.626 181.951 148.683 175.757 147.367C169.562 146.05 163.129 146.409 157.12 148.407C151.71 146.784 133.246 145.816 121.311 166.631C113.561 180.18 118.027 201.728 119.02 206.045C114.386 211.369 119.97 216.119 120.002 216.151C120.002 226.219 123.175 238.689 131.815 244.075C134.571 257.559 142.364 259.391 144.691 260.402L144.393 268.977C125.674 266.488 113.38 271.019 107.529 274.117C106.582 273.857 105.575 273.916 104.665 274.287C103.755 274.658 102.994 275.318 102.498 276.167C102.107 275.15 101.406 274.279 100.493 273.681C99.5809 273.086 98.5035 272.791 97.4139 272.84C96.3243 272.889 95.278 273.281 94.4233 273.957C93.5685 274.636 92.9488 275.564 92.6517 276.613C92.1189 275.91 91.4177 275.355 90.6127 274.996C89.808 274.636 88.9253 274.484 88.0468 274.555C87.1682 274.628 86.3218 274.92 85.5858 275.404C84.8497 275.891 84.2481 276.554 83.8362 277.333C83.1564 276.648 82.2992 276.167 81.3611 275.945C80.423 275.721 79.4411 275.764 78.526 276.067C77.6106 276.373 76.7986 276.924 76.1807 277.666C75.5629 278.407 75.1639 279.305 75.0287 280.26C74.3705 279.665 73.5712 279.248 72.7067 279.051C71.8422 278.853 70.9414 278.877 70.0902 279.126C69.2386 279.375 68.465 279.838 67.8426 280.471C67.2204 281.101 66.7703 281.883 66.535 282.737C65.6074 282.38 64.5909 282.321 63.6282 282.57C62.6652 282.816 61.8042 283.36 61.1656 284.122C60.5269 284.885 60.1425 285.827 60.0665 286.819C59.9902 287.809 60.2261 288.802 60.7409 289.651C60.0002 289.884 59.3272 290.293 58.7795 290.842C58.232 291.391 57.8262 292.067 57.5974 292.808C57.3683 293.549 57.3231 294.336 57.4657 295.099C57.6079 295.862 57.9336 296.579 58.4146 297.188C57.8895 297.545 57.4424 298.007 57.1002 298.543C56.758 299.078 56.5278 299.676 56.4234 300.304C56.319 300.931 56.3425 301.572 56.4929 302.189C56.6431 302.806 56.9168 303.387 57.2974 303.896C56.702 304.269 56.1973 304.772 55.8199 305.365C55.4426 305.957 55.2024 306.628 55.1164 307.326C55.0303 308.021 55.1007 308.73 55.3228 309.398C55.5448 310.063 55.9124 310.675 56.3993 311.18C55.7723 311.519 55.23 311.997 54.8126 312.574C54.3952 313.152 54.1136 313.818 53.9886 314.518C53.8639 315.222 53.8991 315.941 54.0917 316.628C54.2843 317.315 54.6292 317.948 55.1009 318.484C54.3146 319.369 53.8923 320.518 53.9197 321.703C53.9467 322.885 54.4209 324.016 55.247 324.862C54.8007 325.322 54.4531 325.869 54.2256 326.466C53.9978 327.067 53.8948 327.705 53.9229 328.346C53.951 328.988 54.1098 329.615 54.389 330.191C54.6684 330.767 55.0625 331.281 55.5473 331.701C54.953 332.22 54.4975 332.88 54.2218 333.618C53.9462 334.36 53.8591 335.155 53.9684 335.937C54.0776 336.718 54.3798 337.46 54.8478 338.095C55.3154 338.731 55.9344 339.242 56.6482 339.578C56.0753 340.229 55.6885 341.022 55.5291 341.874C55.3695 342.726 55.4431 343.608 55.742 344.422C56.0409 345.236 56.5541 345.953 57.2273 346.5C57.9003 347.046 58.7089 347.403 59.5669 347.528C58.8111 348.442 58.4048 349.594 58.4208 350.782C58.437 351.966 58.8744 353.108 59.6548 354.003C60.4352 354.896 61.508 355.483 62.6812 355.656C63.8543 355.832 65.0516 355.586 66.0589 354.958C63.784 360.468 56.1505 378.879 49.3501 395.011C46.9589 394.027 44.4162 394.876 43.0637 398.49C40.3154 397.532 37.4643 398.695 36.3445 403.432C31.1617 405.282 32.0489 414.731 33.4772 420.116C13.0085 445.005 13.5251 480.254 13.5251 480.254H48.6306V444.632C48.6279 444.448 48.6617 444.264 48.7304 444.091C48.7991 443.92 48.9011 443.763 49.0306 443.631C49.1605 443.501 49.3149 443.396 49.4854 443.322C49.6558 443.252 49.8389 443.214 50.0237 443.214C50.2092 443.214 50.3926 443.252 50.5636 443.325C50.7348 443.396 50.8901 443.501 51.0205 443.631C51.1511 443.763 51.2547 443.92 51.3248 444.091C51.3951 444.264 51.4311 444.445 51.4303 444.632V480.384H144.961V444.632C144.977 444.267 145.134 443.92 145.398 443.669C145.662 443.414 146.014 443.274 146.38 443.274C146.746 443.274 147.097 443.414 147.362 443.669C147.626 443.92 147.783 444.267 147.799 444.632V481.117H180.883C181.077 481.295 181.317 481.414 181.576 481.46C181.836 481.509 182.103 481.479 182.346 481.379C182.589 481.279 182.799 481.111 182.951 480.898C183.103 480.681 183.189 480.427 183.202 480.165C183.202 479.564 184.262 420.135 208.986 396.385C227.32 378.768 247.178 373.953 260.078 376.271L273.77 409.932C273.879 410.194 274.063 410.419 274.298 410.576C274.533 410.733 274.809 410.816 275.093 410.814C275.377 410.811 275.653 410.725 275.886 410.565C276.121 410.405 276.302 410.178 276.405 409.916L289.63 376.32C292.797 375.681 315.106 372.262 340.213 396.385C364.929 420.127 365.997 479.564 366.006 480.165C366.027 480.53 366.187 480.873 366.455 481.125C366.722 481.374 367.077 481.512 367.445 481.506C367.81 481.501 368.161 481.355 368.421 481.095C368.681 480.838 368.832 480.489 368.843 480.124C368.521 465.103 366.509 450.166 362.838 435.597C365.083 431.951 380.299 408.563 404.673 401.051C404.738 407.56 406.472 439.406 434.318 438.075C463.05 436.722 466.412 405.964 466.753 401.482C501.494 411.712 518.903 444.102 524.67 480.143C524.692 480.332 524.754 480.516 524.849 480.681C524.943 480.849 525.07 480.992 525.222 481.109C525.373 481.225 525.549 481.306 525.733 481.355C525.92 481.401 526.112 481.409 526.301 481.379C526.49 481.347 526.672 481.279 526.831 481.179C526.994 481.076 527.134 480.944 527.242 480.787C527.351 480.63 527.426 480.451 527.467 480.265C527.505 480.078 527.494 479.883 527.456 479.697ZM39.1252 425.326C38.3408 425.445 36.6907 422.351 35.7629 417.441C35.6331 416.721 34.3238 408.666 36.2552 406.965C36.5141 412.293 37.7473 417.533 39.8934 422.418C40.1639 423.535 40.1829 425.329 39.1252 425.326ZM42.5038 421.29C40.2586 416.043 39.056 410.411 38.9629 404.703C39.3362 402.701 39.9827 401.43 40.8104 401.097C41.3869 400.941 42.0017 401.019 42.52 401.317C42.5102 407.254 43.4565 413.154 45.3224 418.788C46.0446 421.902 43.6831 422.878 42.5038 421.29ZM49.6666 418.894C49.3258 418.991 48.517 418.431 48.0057 417.863C46.1858 412.315 45.2877 406.505 45.3467 400.667C45.8877 398.455 46.756 396.664 48.7036 397.849C48.8767 399.093 50.9623 415.088 50.9623 415.407C51.2869 418.331 49.6666 418.894 49.6666 418.894ZM232.476 244.781C232.496 244.405 232.666 244.052 232.946 243.8C233.227 243.549 233.596 243.419 233.972 243.439C234.348 243.46 234.701 243.629 234.952 243.909C235.204 244.19 235.334 244.559 235.313 244.935L234.772 254.884C234.486 255.214 232.37 258.06 231.686 259.247L232.476 244.781ZM236.166 257.64C239.043 253.998 242.8 251.148 247.084 249.361C251.367 247.573 256.036 246.907 260.648 247.424C270.927 237.81 292.814 241.984 301.919 250.034C316.864 263.248 315.53 287.12 314.816 293.482C313.412 293.165 311.979 292.984 310.54 292.941V285.561C310.54 285.188 310.393 284.834 310.131 284.569C309.871 284.304 309.517 284.149 309.144 284.144C302.295 284.028 271.836 281.085 263.64 263.545C263.275 262.766 262.918 261.684 261.96 261.546C261.642 261.507 261.319 261.574 261.042 261.737C260.765 261.9 260.55 262.149 260.429 262.447C258.14 267.676 254.832 272.396 250.699 276.335C246.565 280.27 241.689 283.346 236.355 285.378C236.082 285.478 235.846 285.659 235.679 285.897C235.512 286.135 235.422 286.419 235.422 286.708V292.93C233.697 293.181 232.019 293.685 230.442 294.426C229.384 288.456 226.793 269.437 236.166 257.64ZM189.856 238.118C190.853 231.966 191.469 225.758 191.701 219.53C193.691 219.31 195.642 218.824 197.503 218.085C197.135 225.403 194.458 232.417 189.856 238.118ZM122.886 218.045C124.931 218.89 127.107 219.371 129.318 219.467C129.316 226.277 129.834 233.076 130.868 239.806C124.43 233.777 123.132 222.914 122.886 218.045ZM134.56 243.991C133.016 235.447 132.211 226.786 132.156 218.104C132.157 217.912 132.121 217.722 132.047 217.545C131.973 217.367 131.864 217.207 131.727 217.072C131.589 216.939 131.426 216.834 131.246 216.765C131.067 216.696 130.876 216.663 130.684 216.671C127.531 216.863 124.411 215.935 121.874 214.052C116.172 208.215 126.875 203.843 129.802 204.882C129.91 204.92 129.881 204.882 129.881 204.882C130.248 204.882 130.602 204.74 130.866 204.484C131.131 204.229 131.285 203.881 131.298 203.513L131.744 190.697C139.719 187.451 144.155 179.117 146.335 173.445C147.349 177.336 149.343 180.903 152.127 183.805C154.911 186.707 158.392 188.847 162.238 190.021C162.423 190.106 162.624 190.15 162.828 190.15C163.032 190.15 163.233 190.107 163.419 190.023C163.604 189.939 163.77 189.816 163.904 189.663C164.038 189.51 164.138 189.329 164.197 189.134C164.255 188.939 164.271 188.734 164.243 188.532C164.216 188.33 164.145 188.136 164.037 187.964C163.928 187.792 163.784 187.645 163.613 187.533C163.443 187.421 163.251 187.347 163.049 187.316C159.871 186.375 149.4 182.157 148.134 167.375C148.103 167.038 147.953 166.723 147.71 166.487C147.468 166.251 147.149 166.109 146.812 166.088C146.474 166.066 146.14 166.165 145.869 166.368C145.598 166.571 145.408 166.863 145.334 167.193C145.299 167.364 141.466 184.365 129.916 188.379C129.645 188.472 129.409 188.646 129.239 188.876C129.069 189.107 128.973 189.383 128.964 189.669L128.528 202.112C126.076 202.237 123.679 202.883 121.495 204.006C120.267 197.8 117.438 179.528 123.835 168.056C131.652 154.055 147.16 148.083 156.741 151.285C157.061 151.372 157.4 151.345 157.702 151.21C163.265 149.287 169.245 148.9 175.01 150.09C180.774 151.28 186.112 154.003 190.459 157.972C202.756 169.333 201.82 195.017 199.137 204.498C197.276 203.509 195.245 202.883 193.151 202.653L193.567 190.751C193.58 190.375 193.443 190.009 193.187 189.735C192.93 189.46 192.574 189.298 192.198 189.285C191.822 189.272 191.457 189.409 191.182 189.666C190.907 189.922 190.745 190.278 190.732 190.654L190.27 203.908C190.256 204.282 190.39 204.646 190.644 204.92C190.897 205.195 191.249 205.358 191.622 205.374C191.712 205.374 205.039 207.373 198.758 214.366C196.375 217.019 190.324 216.8 190.254 216.8C189.896 216.817 189.558 216.968 189.308 217.224C189.057 217.479 188.912 217.82 188.901 218.177C188.901 218.358 188.36 236.414 185.414 244.023C182.217 252.298 177.583 257.722 171.643 260.153C167.611 261.419 163.353 261.8 159.16 261.271C158.79 261.205 158.409 261.289 158.101 261.503C157.793 261.718 157.582 262.045 157.515 262.415C157.374 263.186 157.996 263.643 158.656 264.062C162.38 266.22 166.609 267.35 170.913 267.335L171.167 274.482C163.284 277.114 154.714 276.797 147.047 273.592L147.293 266.524C147.377 264.181 148.012 258.777 146.211 257.96C143.522 256.74 136.873 255.33 134.56 243.991ZM55.3796 416.107C54.6465 416.324 53.954 416.14 53.7566 414.836C53.7566 414.341 51.9686 400.702 51.5276 397.559C52.0145 397.137 52.6096 396.748 53.0587 396.959C56.0964 398.325 57.4435 415.488 55.3796 416.107ZM64.2682 404.284C62.1042 404.974 62.088 401.579 61.0222 401.124C60.0597 401.008 59.0832 401.13 58.1792 401.482C58.025 400.751 57.8384 400.042 57.6382 399.372C57.7264 398.971 57.896 398.595 58.1362 398.265C58.3764 397.935 58.6821 397.657 59.0343 397.448C59.3867 397.243 59.7779 397.11 60.1836 397.059C60.5894 397.01 61.0011 397.045 61.3928 397.162C63.9815 397.789 65.8858 404.019 64.2682 404.284ZM85.14 395.92C78.7115 396.163 72.3331 397.151 66.1319 398.863C65.4278 397.267 64.229 395.939 62.7128 395.076C61.6803 394.424 60.4422 394.178 59.2388 394.386C58.0353 394.595 56.9522 395.241 56.1992 396.204C55.6582 395.36 54.5762 393.794 52.8179 394.064C52.5474 394.064 52.1227 395.977 67.498 358.859C69.5294 370.028 74.934 380.209 85.14 385.284V395.92ZM113.661 385.143V400.313L102.319 412.32C102.164 412.485 101.976 412.618 101.769 412.71C101.561 412.802 101.337 412.851 101.11 412.853C100.883 412.856 100.657 412.813 100.447 412.729C100.237 412.642 100.045 412.515 99.8849 412.356L87.9829 400.454V391.757C93.8685 391.7 99.6977 390.607 105.203 388.525C107.213 387.683 106.653 385.549 104.973 385.698C94.4857 386.544 86.1814 383.999 80.106 378.321C67.9335 366.96 69.7729 344.341 69.7729 344.341C70.2863 343.971 70.7193 343.5 71.0469 342.959C71.3745 342.415 71.5895 341.815 71.6791 341.187C71.7686 340.56 71.731 339.921 71.5687 339.31C71.4061 338.698 71.1218 338.125 70.7331 337.625C71.2915 337.165 71.737 336.583 72.0353 335.926C72.334 335.266 72.4773 334.549 72.4549 333.827C72.4324 333.105 72.2447 332.396 71.9058 331.757C71.5671 331.119 71.0861 330.567 70.5005 330.143C71.2249 329.788 71.8473 329.255 72.3088 328.593C72.7705 327.93 73.0562 327.162 73.1392 326.361C73.2223 325.558 73.1 324.746 72.7835 324.005C72.4673 323.261 71.9674 322.612 71.3309 322.117C72.0115 321.844 72.6201 321.419 73.1095 320.873C73.5985 320.326 73.9551 319.674 74.1514 318.965C74.3476 318.259 74.3784 317.518 74.241 316.799C74.1038 316.077 73.8022 315.398 73.3597 314.813C74.5499 314.794 75.6949 314.353 76.5905 313.569C77.4862 312.785 78.0742 311.708 78.2503 310.531C78.9179 310.915 79.6626 311.148 80.4308 311.21C81.1988 311.27 81.9711 311.162 82.6914 310.888C83.4117 310.612 84.062 310.182 84.5955 309.628C85.1289 309.071 85.5322 308.402 85.7756 307.672C86.3267 308.256 87.004 308.705 87.7557 308.987C88.5071 309.268 89.3132 309.374 90.112 309.295C90.9105 309.217 91.6807 308.957 92.3634 308.535C93.0461 308.113 93.6231 307.54 94.0502 306.861C94.6123 307.591 95.3578 308.162 96.211 308.511C97.0641 308.86 97.9949 308.979 98.9084 308.854C99.8219 308.727 100.686 308.362 101.413 307.794C102.14 307.226 102.704 306.477 103.047 305.622C103.374 306.436 103.901 307.155 104.579 307.713C105.258 308.27 106.065 308.646 106.927 308.808C107.789 308.973 108.679 308.916 109.513 308.643C110.348 308.373 111.101 307.897 111.703 307.258C112.061 307.894 112.548 308.448 113.132 308.887C113.716 309.322 114.385 309.633 115.096 309.798C115.807 309.963 116.544 309.977 117.261 309.839C117.977 309.704 118.658 309.417 119.258 309.003C118.888 311.638 121.016 314.262 125.561 313.65C125.79 314.746 126.378 315.736 127.233 316.461C128.087 317.186 129.159 317.605 130.278 317.654C129.888 318.259 129.641 318.949 129.554 319.663C129.468 320.38 129.544 321.108 129.779 321.79C130.013 322.474 130.398 323.093 130.907 323.605C131.415 324.119 132.032 324.508 132.713 324.749C132.205 325.249 131.817 325.855 131.577 326.526C131.337 327.197 131.252 327.914 131.327 328.622C131.403 329.331 131.638 330.013 132.014 330.616C132.39 331.222 132.898 331.733 133.5 332.115C132.934 332.628 132.5 333.27 132.235 333.986C131.97 334.703 131.882 335.474 131.978 336.232C132.074 336.989 132.352 337.711 132.787 338.341C133.223 338.969 133.803 339.483 134.479 339.837C134.479 340.146 133.127 373.582 114.427 383.888C114.198 384.01 114.006 384.188 113.872 384.41C113.737 384.632 113.664 384.884 113.661 385.143ZM158.023 414.395C146.106 404.809 131.701 398.823 116.499 397.137V385.968C130.871 378.86 135.026 357.025 135.366 355.499C136.152 356.359 137.221 356.911 138.378 357.049C139.536 357.19 140.704 356.909 141.673 356.259C142.641 355.61 143.344 354.636 143.655 353.514C143.965 352.388 143.863 351.193 143.365 350.138C144.312 349.959 145.183 349.502 145.867 348.823C146.55 348.144 147.014 347.276 147.199 346.332C147.383 345.385 147.279 344.406 146.9 343.521C146.521 342.634 145.886 341.882 145.075 341.363C146.048 341.266 146.969 340.876 147.714 340.243C148.46 339.61 148.995 338.766 149.249 337.822C149.503 336.875 149.463 335.877 149.135 334.955C148.806 334.035 148.206 333.234 147.412 332.664C148.02 332.239 148.52 331.676 148.871 331.022C149.222 330.367 149.414 329.639 149.431 328.896C149.449 328.154 149.292 327.419 148.973 326.748C148.653 326.077 148.181 325.493 147.593 325.038C148.283 324.649 148.864 324.094 149.284 323.423C149.703 322.75 149.949 321.984 149.997 321.194C150.045 320.405 149.894 319.615 149.559 318.898C149.224 318.181 148.714 317.559 148.077 317.088C148.614 316.536 149.009 315.866 149.229 315.127C149.448 314.389 149.486 313.61 149.338 312.855C149.19 312.1 148.861 311.394 148.38 310.794C147.898 310.193 147.278 309.72 146.573 309.411C147.166 308.849 147.606 308.146 147.849 307.364C148.093 306.585 148.132 305.754 147.963 304.956C147.795 304.156 147.424 303.412 146.887 302.798C146.349 302.181 145.663 301.716 144.893 301.44C145.415 300.834 145.776 300.106 145.944 299.324C146.112 298.545 146.082 297.734 145.856 296.966C145.631 296.2 145.217 295.502 144.652 294.937C144.087 294.372 143.39 293.955 142.624 293.728C142.916 292.903 142.985 292.016 142.823 291.158C142.662 290.298 142.275 289.497 141.703 288.835C141.131 288.172 140.394 287.674 139.568 287.39C138.74 287.106 137.853 287.044 136.995 287.214C137.32 286.162 137.294 285.031 136.921 283.995C136.547 282.959 135.847 282.075 134.926 281.471C134.004 280.868 132.912 280.579 131.813 280.652C130.714 280.725 129.668 281.152 128.834 281.872C128.713 280.936 128.34 280.051 127.753 279.316C127.166 278.577 126.389 278.012 125.506 277.684C124.622 277.357 123.665 277.276 122.739 277.452C121.813 277.628 120.953 278.052 120.251 278.683C119.915 277.86 119.376 277.135 118.683 276.578C117.989 276.021 117.166 275.648 116.289 275.499C115.413 275.347 114.512 275.423 113.673 275.718C112.834 276.01 112.083 276.513 111.492 277.179C111.288 276.667 110.997 276.194 110.632 275.78C121.244 271.293 132.915 269.918 144.279 271.82L144.187 274.463C144.178 274.744 144.251 275.02 144.398 275.258C144.546 275.496 144.76 275.686 145.015 275.802C149.092 277.744 153.511 278.861 158.021 279.091L158.023 414.395ZM207.022 394.338C192.869 407.936 186.331 431.791 183.172 451.199C178.661 438.08 170.996 426.273 160.85 416.811V279.126C165.072 279.021 169.247 278.223 173.209 276.762C173.468 276.646 173.687 276.456 173.837 276.216C173.987 275.972 174.061 275.694 174.051 275.41L173.932 272.448C179.033 271.39 192.596 269.388 204.046 274.833C216.36 281.815 222.846 294.499 225.167 299.944C223.844 304.107 225.5 308.329 231.875 310.637C230.096 311.34 196.191 328.357 225.897 345.355C210.29 366.671 233.052 373.612 238.678 375.11C226.713 378.835 215.845 385.438 207.022 394.338ZM259.707 373.325C255.008 372.681 250.237 372.763 245.563 373.571C210.284 366.582 229.663 345.545 229.684 345.523C229.898 345.339 230.053 345.096 230.128 344.825C230.203 344.552 230.195 344.265 230.106 343.998C230.017 343.73 229.85 343.494 229.628 343.321C229.404 343.151 229.135 343.048 228.854 343.029C228.348 342.999 198.417 330.078 235.844 312.238C236.655 317.359 239.585 332.937 246.626 340.546C250.233 344.663 254.843 347.779 260.007 349.592L259.707 373.325ZM286.565 348.439L286.89 375.53L275.066 405.572L262.526 374.759L262.767 355.743C267.327 355.743 277.644 351.785 278.09 349.697C278.142 349.5 278.136 349.291 278.082 349.096C278.025 348.899 277.917 348.721 277.768 348.58C277.62 348.439 277.438 348.342 277.238 348.293C277.041 348.247 276.832 348.255 276.638 348.315C269.976 349.521 263.103 348.48 257.097 345.358C251.091 342.234 246.291 337.208 243.45 331.062C240.661 324.649 238.993 317.805 238.519 310.826C238.486 309.625 237.867 309.117 236.715 308.933C235.976 308.819 227.842 307.675 227.62 302.538C227.35 296.317 236.704 295.613 236.942 295.597C237.302 295.575 237.641 295.416 237.888 295.153C238.135 294.891 238.273 294.542 238.273 294.182V287.677C247.09 284.187 254.573 277.987 259.642 269.973C259.165 273.043 257.83 275.918 255.793 278.266C255.583 278.458 255.436 278.71 255.37 278.988C255.304 279.267 255.324 279.556 255.426 279.824C255.527 280.089 255.707 280.319 255.94 280.484C256.174 280.646 256.452 280.736 256.737 280.741C258.869 280.306 261.795 276.63 262.891 267.706C267.522 274.249 279.719 286.084 307.707 286.933C307.707 294.915 307.553 294.807 308.151 295.372C308.289 295.505 308.454 295.608 308.635 295.675C308.816 295.743 309.008 295.773 309.201 295.762C309.247 295.762 319.409 295.329 319.672 301.691C319.942 308.302 308.99 308.995 308.884 308.995C308.53 309.014 308.194 309.165 307.943 309.42C307.694 309.674 307.548 310.009 307.532 310.366C307.532 310.445 306.655 340.622 287.528 347.087C287.244 347.184 286.998 347.368 286.825 347.611C286.652 347.858 286.562 348.139 286.565 348.439ZM312.674 346.876C312.798 346.916 325.117 351.036 325.022 360.59C324.987 364.12 322.101 376.55 305.094 373.753C300.014 372.814 294.818 372.695 289.7 373.404L289.411 349.421C307.872 343.778 310.069 314.797 310.283 312.035C344.149 323.667 324.911 344.225 312.923 344.122C312.598 344.16 312.298 344.306 312.071 344.539C311.841 344.774 311.7 345.077 311.673 345.401C311.643 345.726 311.724 346.051 311.908 346.321C312.089 346.592 312.363 346.781 312.674 346.876ZM381.178 199.994C381.178 164.978 389.718 130.565 424.972 132.577C442.825 133.603 455.381 140.565 462.301 153.273C467.8 163.382 469.082 178.971 468.122 191.471C467.662 200.763 467.673 210.073 468.157 219.365C468.582 232.454 468.59 256.234 448.411 261.563C448.048 261.667 447.745 261.911 447.564 262.24C447.38 262.569 447.337 262.957 447.442 263.318C447.548 263.679 447.791 263.984 448.118 264.166C448.448 264.348 448.835 264.391 449.198 264.287C453.293 263.156 457.069 261.086 460.226 258.241C465.379 269.034 472.94 268.65 486.719 281.866C501.274 295.838 504.799 314.867 503.325 317.207C496.2 321.449 488.558 324.757 480.589 327.048C482.664 317.18 485.234 296.876 474.59 285.708C457.77 268.066 437.29 265.737 413.727 269.959C411.877 270.29 410.048 270.719 408.244 271.247C404.438 269.292 400.427 267.771 396.283 266.713C383.515 263.467 377.556 253.786 377.247 240.612C377.001 230.377 381.178 206.378 381.178 199.994ZM351.28 244.594C351.653 244.563 352.026 244.68 352.313 244.921C352.602 245.163 352.783 245.508 352.819 245.882L355.708 278.913C354.774 279.74 353.903 280.603 353.078 281.488L349.981 246.125C349.965 245.939 349.987 245.752 350.043 245.574C350.1 245.397 350.192 245.232 350.311 245.09C350.433 244.947 350.579 244.83 350.747 244.745C350.912 244.66 351.093 244.609 351.28 244.594ZM343.727 307.307C344.777 301.732 348.428 287.844 359.635 279.367C368.816 272.418 375.963 271.325 381.546 261.244C385.3 265.315 390.18 268.179 395.566 269.472C398.593 270.248 401.547 271.284 404.395 272.572C385.043 280.243 384.594 297.902 391.873 305.622C400.922 315.216 421.672 311.992 436.122 308.943C445.954 306.866 457.099 306.647 458.465 315.208C460.342 326.978 462.371 329.937 463.762 330.061L458.319 335.009C456.642 333.14 454.391 331.885 451.919 331.444C450.761 328.855 447.813 328.417 446.596 331.771C444.891 332.307 443.339 333.24 442.067 334.492C440.793 335.745 439.833 337.281 439.268 338.974C436.741 337.733 433.909 337.254 431.115 337.598C431.226 331.081 430.736 324.424 428.44 321.097C425.897 317.397 421.553 315.925 415.867 316.839C413.259 317.283 410.727 318.081 408.336 319.212C408.168 319.296 408.022 319.409 407.898 319.55C407.776 319.69 407.684 319.855 407.625 320.031C407.565 320.21 407.543 320.394 407.554 320.58C407.568 320.767 407.619 320.948 407.703 321.116C407.784 321.281 407.901 321.43 408.041 321.551C408.182 321.673 408.344 321.768 408.523 321.825C408.698 321.884 408.885 321.909 409.072 321.895C409.256 321.881 409.437 321.833 409.605 321.749C409.724 321.689 421.463 315.952 426.105 322.704C428.039 325.514 428.394 332.02 428.253 338.212C427.552 338.425 426.868 338.685 426.2 338.985C425.616 337.308 424.647 335.791 423.368 334.56C422.088 333.326 420.538 332.415 418.84 331.893C418.207 329.767 415.566 327.992 413.381 331.622C411.26 332.044 409.304 333.069 407.752 334.573L403.045 327.154C403.045 323.502 402.504 317.102 402.323 315.051C402.304 314.862 402.225 314.686 402.101 314.546C401.974 314.405 401.803 314.31 401.62 314.272C397.386 313.182 393.464 311.135 390.15 308.283C390.031 308.186 389.891 308.118 389.739 308.091C389.588 308.067 389.431 308.081 389.287 308.132C389.141 308.186 389.014 308.275 388.914 308.392C388.817 308.511 388.749 308.651 388.722 308.803C387.654 315.536 387.505 322.385 388.273 329.158C383.428 328.2 358.518 322.785 344.647 310.12C344.265 309.768 343.981 309.325 343.819 308.833C343.66 308.34 343.627 307.816 343.727 307.307ZM458.389 342.521C458.389 344.016 457.994 345.485 457.24 346.776C456.485 348.066 455.403 349.134 454.099 349.867C452.798 350.603 451.324 350.976 449.828 350.952C448.332 350.93 446.871 350.509 445.592 349.735C444.315 348.959 443.266 347.858 442.552 346.546C441.84 345.231 441.489 343.751 441.537 342.256C441.583 340.762 442.03 339.307 442.825 338.041C443.62 336.775 444.737 335.745 446.063 335.052C446.268 337.411 447.661 339.239 449.352 339.239C451.164 339.239 452.633 337.146 452.668 334.544C454.335 335.112 455.782 336.186 456.807 337.616C457.832 339.045 458.387 340.76 458.389 342.521ZM438.727 341.88C438.727 342.093 438.702 342.61 438.702 342.659C438.456 342.699 430.441 349.521 430.441 349.521C430.476 348.98 430.866 344.652 431.039 340.486C433.685 340.07 436.395 340.562 438.727 341.88ZM424.003 342.653C424.006 344.198 423.581 345.713 422.781 347.035C421.98 348.355 420.833 349.429 419.462 350.143C418.09 350.855 416.551 351.177 415.009 351.074C413.467 350.971 411.985 350.444 410.722 349.556C409.459 348.666 408.466 347.446 407.846 346.032C407.23 344.614 407.013 343.056 407.224 341.525C407.433 339.994 408.057 338.552 409.031 337.351C410.002 336.153 411.287 335.244 412.742 334.725C412.843 337.24 414.284 339.239 416.053 339.239C417.728 339.239 419.107 337.446 419.335 335.12C420.736 335.818 421.915 336.894 422.737 338.222C423.562 339.553 424.001 341.087 424.003 342.653ZM368.613 423.311V358.413C368.613 356.157 365.765 356.925 365.765 358.396V426.833C364.209 428.826 362.746 430.568 361.853 431.899C357.285 415.342 350.825 402.88 342.569 394.743C341.623 367.853 342.394 340.927 344.877 314.134C359.059 326.824 384.048 331.197 386.756 331.757C386.066 333.811 386.02 336.023 386.623 338.103C387.229 340.181 388.452 342.026 390.134 343.389C390.183 346.264 390.946 358.331 400.5 362.359C406.526 383.031 417.144 387.156 419.638 388.289V395.915C395.855 395.988 378.305 411.901 368.613 423.311ZM412.418 409.672C412.088 409.672 411.771 409.559 411.514 409.35C411.26 409.142 411.087 408.853 411.022 408.531C410.96 408.209 411.009 407.873 411.165 407.584C411.32 407.295 411.571 407.067 411.877 406.943L416.137 405.193C416.486 405.049 416.876 405.049 417.225 405.196C417.571 405.339 417.847 405.617 417.993 405.964C418.136 406.313 418.134 406.705 417.99 407.051C417.844 407.4 417.568 407.676 417.219 407.819C412.642 409.705 412.783 409.672 412.418 409.672ZM420.863 415.136L416.494 418.742C416.191 418.945 415.826 419.037 415.464 419.002C415.099 418.967 414.76 418.807 414.501 418.547C414.382 418.404 414.29 418.239 414.236 418.063C414.179 417.885 414.16 417.698 414.176 417.511C414.195 417.327 414.249 417.146 414.336 416.981C414.425 416.816 414.544 416.673 414.687 416.554L419.064 412.948C419.356 412.726 419.721 412.626 420.087 412.669C420.452 412.71 420.784 412.894 421.017 413.175C421.25 413.459 421.363 413.822 421.334 414.187C421.307 414.552 421.136 414.893 420.863 415.136ZM427.014 420.509L423.998 425.304C423.776 425.594 423.46 425.797 423.103 425.881C422.746 425.964 422.372 425.921 422.045 425.759C421.888 425.659 421.75 425.529 421.642 425.378C421.534 425.226 421.455 425.053 421.415 424.872C421.374 424.688 421.369 424.501 421.401 424.317C421.431 424.133 421.499 423.955 421.599 423.798L424.615 419.002C424.709 418.837 424.839 418.693 424.991 418.58C425.142 418.466 425.315 418.382 425.502 418.339C425.686 418.293 425.878 418.285 426.065 418.315C426.254 418.344 426.433 418.412 426.595 418.515C426.754 418.615 426.895 418.748 427.003 418.904C427.111 419.059 427.187 419.237 427.228 419.421C427.266 419.608 427.268 419.8 427.23 419.986C427.195 420.173 427.12 420.352 427.014 420.509ZM433.187 428.472L432.589 421.317C432.557 420.941 432.676 420.571 432.919 420.284C433.163 419.997 433.509 419.819 433.885 419.786C434.261 419.754 434.631 419.873 434.918 420.116C435.205 420.36 435.383 420.706 435.416 421.082L436.016 428.239C436.035 428.607 435.911 428.97 435.667 429.248C435.424 429.527 435.083 429.697 434.715 429.73C434.347 429.76 433.982 429.646 433.695 429.411C433.411 429.175 433.227 428.84 433.187 428.472ZM433.839 412.626C422.659 412.626 422.186 400.064 422.313 393.748C423.722 393.761 431.707 394.814 437.401 390.542C438.029 390.072 438.729 389.731 438.632 388.955C438.583 388.581 438.391 388.243 438.096 388.013C437.799 387.783 437.426 387.678 437.052 387.721C433.092 388.422 429.027 388.241 425.142 387.194C421.261 386.147 417.655 384.259 414.582 381.662C400.911 369.644 400.621 344.474 400.621 344.222C400.621 344.027 400.581 343.835 400.502 343.657C400.424 343.478 400.31 343.316 400.167 343.186C400.024 343.054 399.853 342.951 399.669 342.889C399.485 342.824 399.291 342.799 399.096 342.813C396.191 342.77 393.356 341.92 390.905 340.359C386.39 336.946 387.624 325.328 400.951 329.144C400.951 329.144 405.839 336.775 405.929 336.856C404.903 338.566 404.349 340.514 404.322 342.507C404.295 344.501 404.798 346.465 405.78 348.198C406.759 349.932 408.182 351.377 409.902 352.383C411.623 353.389 413.578 353.92 415.572 353.922C426.876 353.841 426.819 342.109 426.803 341.834C427.241 341.606 427.693 341.406 428.156 341.233C428.009 344.36 427.514 350.665 427.458 351.242C427.358 351.666 427.404 352.113 427.59 352.51C427.774 352.905 428.088 353.227 428.477 353.422C428.87 353.619 429.313 353.676 429.741 353.589C430.171 353.5 430.555 353.27 430.836 352.935L439.168 345.74C439.617 347.241 440.374 348.629 441.391 349.821C442.408 351.012 443.663 351.977 445.073 352.656C446.485 353.335 448.021 353.711 449.587 353.763C451.153 353.811 452.712 353.535 454.164 352.951C455.617 352.364 456.929 351.482 458.021 350.36C459.114 349.237 459.961 347.901 460.505 346.432C461.051 344.963 461.284 343.4 461.192 341.836C461.097 340.273 460.678 338.747 459.961 337.354L466.994 330.954C475.35 329.258 478.055 334.898 478.055 336.31C478.055 343.181 466.767 344.225 466.653 344.233C466.293 344.265 465.961 344.433 465.72 344.704C465.479 344.974 465.349 345.323 465.357 345.685C465.33 351.296 464.549 356.879 463.031 362.281C459.726 373.999 453.564 381.995 444.71 386.055C444.464 386.169 444.253 386.35 444.107 386.577C443.961 386.804 443.882 387.072 443.882 387.342C443.882 387.342 445.459 412.626 433.839 412.626ZM446.972 423.506C446.679 423.73 446.317 423.844 445.949 423.828C445.584 423.811 445.232 423.665 444.962 423.416L441.242 419.359C441.11 419.224 441.007 419.061 440.937 418.885C440.869 418.707 440.837 418.518 440.842 418.328C440.847 418.139 440.891 417.952 440.969 417.779C441.048 417.606 441.161 417.452 441.299 417.322C441.44 417.195 441.605 417.095 441.783 417.033C441.962 416.968 442.151 416.941 442.341 416.951C442.53 416.962 442.717 417.011 442.887 417.095C443.057 417.179 443.209 417.295 443.333 417.438L447.053 421.496C447.185 421.631 447.288 421.791 447.356 421.966C447.426 422.142 447.456 422.329 447.448 422.518C447.44 422.708 447.394 422.892 447.312 423.062C447.231 423.232 447.115 423.381 446.972 423.506ZM453.615 415.353C453.426 415.672 453.123 415.91 452.768 416.016C452.414 416.124 452.03 416.097 451.694 415.937L446.671 413.248C446.501 413.164 446.349 413.045 446.225 412.902C446.101 412.759 446.009 412.591 445.949 412.41C445.892 412.229 445.871 412.036 445.887 411.847C445.906 411.658 445.96 411.474 446.049 411.306C446.138 411.138 446.26 410.992 446.409 410.873C446.555 410.752 446.725 410.665 446.909 410.611C447.091 410.559 447.283 410.543 447.472 410.565C447.661 410.589 447.843 410.649 448.008 410.743L453.042 413.448C453.209 413.53 453.358 413.646 453.48 413.787C453.602 413.93 453.693 414.095 453.748 414.273C453.802 414.452 453.821 414.639 453.799 414.825C453.78 415.012 453.707 415.19 453.615 415.353ZM455.252 405.344H450.653C450.288 405.328 449.942 405.171 449.69 404.909C449.436 404.644 449.295 404.292 449.295 403.927C449.295 403.559 449.436 403.207 449.69 402.942C449.942 402.68 450.288 402.523 450.653 402.507H455.252C455.444 402.499 455.636 402.528 455.814 402.596C455.993 402.664 456.158 402.766 456.296 402.899C456.434 403.031 456.545 403.191 456.62 403.367C456.696 403.543 456.734 403.735 456.734 403.927C456.734 404.116 456.696 404.308 456.62 404.484C456.545 404.66 456.434 404.819 456.296 404.952C456.158 405.085 455.993 405.187 455.814 405.255C455.636 405.323 455.444 405.352 455.252 405.344ZM483.776 405.653L482.123 366.885C482.101 366.511 481.936 366.162 481.66 365.911C481.385 365.656 481.022 365.521 480.649 365.532C480.276 365.548 479.921 365.713 479.667 365.989C479.415 366.265 479.28 366.63 479.296 367.006L480.868 404.081C470.313 398.612 458.614 395.72 446.728 395.636V388.23C455.592 383.845 462.068 375.443 465.52 363.847C469.085 361.767 472.039 358.783 474.089 355.199C476.137 351.615 477.205 347.555 477.189 343.427C478.869 342.066 480.019 340.159 480.432 338.036C480.846 335.915 480.497 333.713 479.451 331.822C479.553 331.425 479.691 330.916 479.845 330.308C486.938 328.022 493.887 325.311 500.655 322.193C504.006 356.105 505.589 390.169 505.397 424.247C499.432 416.738 492.096 410.419 483.776 405.653Z" fill="#193737"/>
<path d="M128.98 403.061C125.295 401.784 121.45 401.027 117.557 400.813C117.043 400.784 117.924 400.002 104.767 414.403C104.69 414.487 104.633 414.59 104.602 414.701C104.571 414.812 104.566 414.928 104.587 415.039C104.609 415.153 104.657 415.258 104.728 415.35C104.798 415.442 104.888 415.515 104.992 415.564L120.87 423.205C120.961 423.249 121.06 423.273 121.161 423.278C121.262 423.281 121.363 423.265 121.457 423.23C121.551 423.192 121.637 423.138 121.708 423.065C121.78 422.994 121.836 422.911 121.874 422.816L129.391 404.022C129.427 403.932 129.446 403.835 129.445 403.738C129.444 403.64 129.424 403.545 129.385 403.456C129.347 403.367 129.292 403.286 129.222 403.218C129.152 403.151 129.07 403.096 128.98 403.061Z" fill="white"/>
<path d="M83.3141 399.545C79.4241 399.758 75.5829 400.516 71.9017 401.79C71.8111 401.825 71.7283 401.879 71.6585 401.947C71.5887 402.017 71.5333 402.098 71.4954 402.188C71.4573 402.277 71.4375 402.374 71.4373 402.472C71.4367 402.569 71.4559 402.666 71.4933 402.756L79.657 422.821C79.6948 422.913 79.7511 423 79.8228 423.07C79.8944 423.14 79.9799 423.195 80.0738 423.232C80.1674 423.268 80.2677 423.284 80.3681 423.281C80.4687 423.276 80.5672 423.251 80.6578 423.208L96.5578 415.556C96.6606 415.507 96.7507 415.434 96.8207 415.345C96.8908 415.255 96.9389 415.15 96.9616 415.039C96.9841 414.928 96.9803 414.812 96.9508 414.704C96.9211 414.593 96.8662 414.49 96.7904 414.406C82.9543 398.717 83.8551 399.529 83.3141 399.545Z" fill="white"/>
<path d="M280.43 194.333V189.539C284.539 189.349 288.564 188.299 292.24 186.456C292.935 186.093 293.625 185.547 293.593 184.765C293.557 184.437 293.395 184.136 293.144 183.923C292.892 183.711 292.57 183.602 292.24 183.621C290.942 183.621 273.781 183.08 265.85 171.908C258.663 161.791 257.935 145.015 257.93 144.858C257.924 144.663 257.879 144.472 257.797 144.296C257.714 144.119 257.596 143.962 257.449 143.833C257.303 143.704 257.132 143.607 256.947 143.548C256.761 143.488 256.565 143.467 256.372 143.487C254.616 143.66 245.914 144.406 245.709 137.046C245.517 130.259 256.28 131.547 256.337 131.555C256.536 131.58 256.739 131.562 256.931 131.503C257.123 131.444 257.301 131.344 257.451 131.211C257.602 131.078 257.723 130.915 257.806 130.732C257.889 130.548 257.932 130.349 257.933 130.148V113.421C257.917 113.055 257.76 112.71 257.496 112.457C257.231 112.204 256.88 112.062 256.514 112.062C256.148 112.062 255.796 112.204 255.532 112.457C255.267 112.71 255.111 113.055 255.095 113.421V128.623C251.776 128.49 248.495 129.374 245.692 131.157C241.162 134.444 242.639 141.063 245.151 143.281C248.044 145.428 251.586 146.516 255.184 146.365C255.482 150.828 256.924 164.524 263.57 173.585C267.143 178.289 272.023 181.836 277.598 183.783V192.261C273.07 192.193 268.543 192.524 264.073 193.251C268.471 206.841 274.046 221.036 276.113 222.091C277.749 222.592 294.507 211.342 294.507 211.342L280.43 194.333Z" fill="#193737"/>
<path d="M329.661 137.893C329.323 137.891 328.998 137.77 328.741 137.55C328.487 137.33 328.317 137.027 328.265 136.693C328.211 136.36 328.279 136.019 328.455 135.731C328.633 135.443 328.904 135.228 329.226 135.123C329.496 135.02 330.648 134.466 331.606 133.998C331.944 133.833 332.334 133.809 332.688 133.931C333.045 134.053 333.337 134.312 333.502 134.649C333.667 134.987 333.691 135.377 333.57 135.733C333.448 136.088 333.188 136.381 332.85 136.546C330.408 137.739 330.083 137.893 329.661 137.893Z" fill="#193737"/>
</svg>
