<svg width="89" height="16" viewBox="0 0 89 16" fill="none" xmlns="http://www.w3.org/2000/svg">
<path d="M80.0383 1.10997C80.2091 0.699319 80.7909 0.699318 80.9617 1.10996L82.4987 4.80556C82.5707 4.97868 82.7336 5.09696 82.9204 5.11194L86.9102 5.4318C87.3535 5.46734 87.5332 6.02059 87.1955 6.30993L84.1557 8.91378C84.0133 9.03576 83.9512 9.22715 83.9947 9.40952L84.9234 13.3028C85.0265 13.7354 84.5559 14.0773 84.1764 13.8455L80.7606 11.7592C80.6006 11.6615 80.3994 11.6615 80.2394 11.7592L76.8236 13.8455C76.4441 14.0773 75.9735 13.7354 76.0766 13.3028L77.0053 9.40952C77.0488 9.22715 76.9867 9.03576 76.8443 8.91378L73.8045 6.30993C73.4668 6.02059 73.6465 5.46734 74.0898 5.4318L78.0796 5.11194C78.2664 5.09696 78.4293 4.97868 78.5013 4.80556L80.0383 1.10997Z" fill="#FD7E14"/>
<path d="M62.0383 1.10997C62.2091 0.699319 62.7909 0.699318 62.9617 1.10996L64.4987 4.80556C64.5707 4.97868 64.7336 5.09696 64.9204 5.11194L68.9102 5.4318C69.3535 5.46734 69.5332 6.02059 69.1955 6.30993L66.1557 8.91378C66.0133 9.03576 65.9512 9.22715 65.9947 9.40952L66.9234 13.3028C67.0265 13.7354 66.5559 14.0773 66.1764 13.8455L62.7606 11.7592C62.6006 11.6615 62.3994 11.6615 62.2394 11.7592L58.8236 13.8455C58.4441 14.0773 57.9735 13.7354 58.0766 13.3028L59.0053 9.40952C59.0488 9.22715 58.9867 9.03576 58.8443 8.91378L55.8045 6.30993C55.4668 6.02059 55.6465 5.46734 56.0898 5.4318L60.0796 5.11194C60.2664 5.09696 60.4293 4.97868 60.5013 4.80556L62.0383 1.10997Z" fill="#FD7E14"/>
<path d="M44.0383 1.10997C44.2091 0.699319 44.7909 0.699318 44.9617 1.10996L46.4987 4.80556C46.5707 4.97868 46.7336 5.09696 46.9204 5.11194L50.9102 5.4318C51.3535 5.46734 51.5332 6.02059 51.1955 6.30993L48.1557 8.91378C48.0133 9.03576 47.9512 9.22715 47.9947 9.40952L48.9234 13.3028C49.0265 13.7354 48.5559 14.0773 48.1764 13.8455L44.7606 11.7592C44.6006 11.6615 44.3994 11.6615 44.2394 11.7592L40.8236 13.8455C40.4441 14.0773 39.9735 13.7354 40.0766 13.3028L41.0053 9.40952C41.0488 9.22715 40.9867 9.03576 40.8443 8.91378L37.8045 6.30993C37.4668 6.02059 37.6465 5.46734 38.0898 5.4318L42.0796 5.11194C42.2664 5.09696 42.4293 4.97868 42.5013 4.80556L44.0383 1.10997Z" fill="#FD7E14"/>
<path d="M26.0383 1.10997C26.2091 0.699319 26.7909 0.699318 26.9617 1.10996L28.4987 4.80556C28.5707 4.97868 28.7336 5.09696 28.9204 5.11194L32.9102 5.4318C33.3535 5.46734 33.5332 6.02059 33.1955 6.30993L30.1557 8.91378C30.0133 9.03576 29.9512 9.22715 29.9947 9.40952L30.9234 13.3028C31.0265 13.7354 30.5559 14.0773 30.1764 13.8455L26.7606 11.7592C26.6006 11.6615 26.3994 11.6615 26.2394 11.7592L22.8236 13.8455C22.4441 14.0773 21.9735 13.7354 22.0766 13.3028L23.0053 9.40952C23.0488 9.22715 22.9867 9.03576 22.8443 8.91378L19.8045 6.30993C19.4668 6.02059 19.6465 5.46734 20.0898 5.4318L24.0796 5.11194C24.2664 5.09696 24.4293 4.97868 24.5013 4.80556L26.0383 1.10997Z" fill="#FD7E14"/>
<path d="M8.03834 1.10997C8.20914 0.699319 8.79086 0.699318 8.96166 1.10996L10.4987 4.80556C10.5707 4.97868 10.7336 5.09696 10.9204 5.11194L14.9102 5.4318C15.3535 5.46734 15.5332 6.02059 15.1955 6.30993L12.1557 8.91378C12.0133 9.03576 11.9512 9.22715 11.9947 9.40952L12.9234 13.3028C13.0265 13.7354 12.5559 14.0773 12.1764 13.8455L8.76063 11.7592C8.60062 11.6615 8.39938 11.6615 8.23937 11.7592L4.82363 13.8455C4.44408 14.0773 3.97345 13.7354 4.07665 13.3028L5.00534 9.40952C5.04884 9.22715 4.98665 9.03576 4.84426 8.91378L1.80453 6.30993C1.46676 6.02059 1.64652 5.46734 2.08985 5.4318L6.07955 5.11194C6.26645 5.09696 6.42925 4.97868 6.50126 4.80556L8.03834 1.10997Z" fill="#FD7E14"/>
</svg>
