<svg width="555" height="555" viewBox="0 0 555 555" fill="none" xmlns="http://www.w3.org/2000/svg">
<path d="M364.08 267.324C361.245 269.012 358.293 270.496 355.247 271.764C328.125 283.311 291.031 281.23 263.517 274.348C254.815 316.872 280.55 493.084 280.55 493.084C304.24 499.1 319.891 492.685 319.891 492.685L315.09 321.639C317.507 358.98 332.759 470.313 332.759 470.313C350.03 482.364 368.085 469.114 368.085 469.114C374.328 399.878 364.577 273.693 364.08 267.324Z" fill="#5F6980"/>
<path d="M104.282 463.827C103.607 464.311 102.774 464.522 101.951 464.418C102.192 471.356 103.804 480.73 107.431 486.394C108.647 488.292 111.316 491.744 108.799 493.728L108.73 493.778C108.67 491.901 108.094 490.077 107.065 488.505C106.986 488.372 106.881 488.255 106.757 488.162C106.633 488.068 106.491 488 106.341 487.962C106.191 487.923 106.034 487.914 105.88 487.936C105.726 487.958 105.578 488.01 105.444 488.089C105.311 488.168 105.194 488.273 105.101 488.397C105.007 488.521 104.939 488.663 104.901 488.813C104.862 488.964 104.853 489.12 104.875 489.274C104.897 489.428 104.949 489.576 105.028 489.71C106.047 491.144 106.532 492.889 106.399 494.644C105.871 494.691 105.34 494.691 104.812 494.644C104.783 492.482 104.459 490.335 103.849 488.261C103.756 487.97 103.554 487.727 103.285 487.582C103.016 487.437 102.702 487.402 102.407 487.484C102.113 487.566 101.863 487.76 101.708 488.023C101.553 488.287 101.507 488.6 101.579 488.897C102.09 490.582 102.387 492.324 102.464 494.083C93.6285 490.856 91.7915 479.098 90.1265 469.627C88.8912 462.473 88.0694 455.253 87.6651 448.004C86.9073 448.311 86.1338 448.578 85.3479 448.804C85.9279 458.491 88.2672 480.68 93.3288 489.08C100.635 501.14 113.439 497.816 112.063 490.448C111.111 485.259 104.74 482.85 104.282 463.827ZM71.9475 511.738L72.6967 506.388C72.7806 506.087 72.7417 505.765 72.5884 505.493C72.4351 505.221 72.1801 505.022 71.8795 504.938C71.5788 504.854 71.2572 504.893 70.9853 505.046C70.7133 505.199 70.5134 505.454 70.4295 505.755L69.5304 512.107C67.767 512.335 65.9869 512.407 64.2108 512.323C63.5586 506.887 66.9469 505.458 65.0627 504.323C64.7917 504.169 64.4715 504.126 64.1696 504.204C63.8678 504.282 63.6079 504.474 63.4449 504.739C62.2035 506.955 61.6572 509.493 61.877 512.024C60.2058 511.748 58.5814 511.24 57.0513 510.514C57.0846 510.384 57.0901 510.47 57.1262 510.364C58.6774 505.397 62.4792 500.33 68.2262 500.53C73.6208 500.724 77.7555 505.189 81.0939 509.362C78.09 510.318 75.0368 511.111 71.9475 511.738Z" fill="#FFD35C"/>
<path d="M100.2 355.478C105.336 345.124 116.636 321.689 119.703 310.02C120.278 306.753 120.191 303.403 119.447 300.171C118.703 296.938 117.317 293.887 115.371 291.2C105.034 294.969 98.8263 292.651 95.5407 290.268C75.4664 309.046 71.4565 300.885 60.9032 309.812C61.1204 309.708 61.3426 309.616 61.5692 309.535C63.0205 309.032 63.6365 311.319 62.2046 311.802C59.5091 312.873 57.0923 314.543 55.1367 316.686C53.2547 319.711 51.8349 323.001 50.9243 326.445C49.7452 330.806 49.1903 335.313 49.2759 339.829C49.2926 340.351 49.7948 343.12 50.2527 345.693C57.2096 343.623 60.9365 335.275 63.3535 328.471C64.4137 325.794 64.9242 322.931 64.8548 320.052C64.7549 318.534 67.1192 318.553 67.2052 320.052C67.5632 326.115 61.8106 345.179 50.6412 348.057L51.2933 351.748C45.8627 356.684 41.5738 362.745 38.7254 369.508C26.2379 358.172 18.9202 326.645 33.1559 300.23C33.2865 299.983 33.3259 299.698 33.2671 299.425C33.2082 299.152 33.055 298.908 32.8343 298.737C32.6136 298.565 32.3395 298.477 32.0604 298.488C31.7812 298.499 31.5147 298.608 31.3078 298.795C20.9543 306.843 16.2368 319.885 14.6023 332.487C11.794 353.987 16.8056 376.67 34.8237 387.909C34.5296 396.742 35.3983 405.576 37.4072 414.183C36.3722 437.493 49.262 461.036 47.708 483.86C47.6081 485.722 47.6054 485.767 45.957 486.56C43.8813 487.574 42.1278 489.144 40.8921 491.095C39.6564 493.047 38.9869 495.303 38.9585 497.613C39.5135 501.454 48.2741 502.164 51.926 500.865C61.7357 497.369 62.7485 484.523 63.5033 474.139C62.926 471.691 62.294 469.256 61.608 466.835C61.4491 469.767 61.2641 472.698 61.053 475.627C60.3898 484.171 59.4768 495.562 51.3405 498.529C51.3405 494.28 53.924 493.223 52.1897 492.279C51.9178 492.131 51.5996 492.091 51.2993 492.167C50.999 492.244 50.739 492.432 50.5718 492.693C49.2839 494.554 48.754 496.837 49.09 499.075C47.8767 499.248 46.6429 499.214 45.4409 498.976C45.3639 498.895 45.2794 498.823 45.1883 498.759C45.2501 496.592 45.9521 494.492 47.2058 492.723C47.3647 492.454 47.41 492.132 47.3317 491.829C47.2534 491.526 47.0579 491.266 46.7881 491.107C46.5184 490.948 46.1966 490.903 45.8934 490.981C45.5903 491.059 45.3307 491.255 45.1717 491.525C43.7765 493.52 42.9628 495.863 42.8213 498.293C41.2506 497.768 41.2312 497.385 41.4199 496.325C41.6851 494.816 42.2741 493.381 43.1464 492.121C44.0187 490.861 45.1537 489.804 46.4732 489.024C48.8541 487.637 49.8503 487.67 50.1223 484.224C51.6263 463.966 41.6391 442.923 40.0241 422.43C42.7543 430.179 47.5618 437.028 53.9213 442.23C52.8113 439.033 51.7235 436.069 50.8688 434.165C50.2499 432.8 52.284 431.599 52.9028 432.983C55.2449 437.959 60.2899 454.073 61.855 459.401C66.8028 476.448 69.5001 485.173 66.1868 498.393C72.6719 497.602 77.3978 501.653 81.6074 506.526C83.3617 481.986 83.5063 457.357 82.0403 432.797C81.9432 431.29 84.3047 431.299 84.4074 432.797C84.6405 436.499 85.0068 445.651 85.0401 446.517C86.8139 446.004 88.5079 445.247 90.074 444.269C90.1592 444.218 90.2533 444.183 90.3515 444.166C87.4599 433.558 86.3499 413.783 96.6535 409.929C98.145 409.305 99.7919 409.155 101.372 409.498C102.951 409.841 104.388 410.66 105.486 411.846C106.438 413.012 104.773 414.699 103.821 413.511C102.747 412.409 101.293 411.759 99.756 411.694C98.2188 411.629 96.7149 412.154 95.5518 413.161C92.8518 415.825 91.2723 419.42 91.1368 423.21C89.7797 434.082 91.8972 445.105 97.1863 454.7C98.5411 457.156 100.103 459.492 101.854 461.682C102.806 462.659 103.713 461.649 104.837 460.253C102.339 458.408 100.484 455.824 99.5367 452.866C99.4524 452.565 99.4911 452.244 99.6441 451.971C99.7971 451.699 100.052 451.499 100.353 451.415C100.653 451.331 100.975 451.369 101.247 451.522C101.519 451.675 101.72 451.93 101.804 452.231C101.92 452.564 102.037 452.916 102.17 453.249C103.048 455.267 104.432 457.024 106.188 458.35C106.889 457.289 107.523 456.187 108.089 455.05C105.961 453.416 104.249 451.303 103.094 448.881C102.362 447.316 104.526 446.406 105.128 447.682C106.022 449.567 108.37 452.752 109.08 452.752C110.555 449.241 110.639 445.3 109.313 441.73C107.989 438.4 102.695 431.302 105.028 419.561C105.306 418.079 107.595 418.711 107.296 420.193C106.987 421.77 106.828 423.373 106.821 424.98C108.28 421.621 109.248 418.07 109.696 414.435C110.415 403.765 107.962 377.028 100.697 364.643L100.661 364.71C100.661 364.71 82.7924 373.276 50.4692 363.844C50.4692 363.844 50.0723 356.607 52.6697 353.81C52.6586 353.774 77.1813 365.123 100.2 355.478ZM107.645 313.078C107.645 313.078 105.769 324.056 100.952 324.056C96.1346 324.056 94.7915 310.947 94.7915 310.947C96.6358 312.246 98.7496 313.112 100.975 313.48C103.201 313.848 105.481 313.709 107.645 313.073V313.078ZM81.1496 306.915C81.7329 306.916 82.3029 307.089 82.7876 307.413C83.2724 307.738 83.65 308.199 83.8729 308.738C84.0957 309.277 84.1537 309.87 84.0396 310.442C83.9255 311.014 83.6443 311.539 83.2317 311.952C82.819 312.364 82.2934 312.645 81.7213 312.758C81.1491 312.872 80.5562 312.813 80.0173 312.59C79.4785 312.366 79.0179 311.988 78.6939 311.503C78.3699 311.018 78.197 310.448 78.197 309.865C78.1962 309.477 78.2721 309.093 78.4203 308.734C78.5684 308.376 78.7859 308.05 79.0603 307.776C79.3347 307.502 79.6605 307.285 80.019 307.137C80.3775 306.989 80.7617 306.914 81.1496 306.915ZM34.9652 385.195C23.0327 377.103 14.0834 360.497 16.6641 335.02C17.7741 324.02 21.1041 312.887 28.4495 304.698C17.122 331.563 24.9752 360.683 37.8068 371.775C36.2269 376.091 35.2701 380.609 34.9652 385.195ZM52.3673 368.007C46.0008 384.162 44.85 401.905 49.0761 418.747C49.4424 420.213 47.1752 420.845 46.8089 419.38C42.4625 402.125 43.6102 383.943 50.0918 367.371C50.644 365.984 52.9084 366.608 52.3589 368.007H52.3673Z" fill="#FFD35C"/>
<path d="M235.973 248.981C208.996 255.153 180.988 255.273 153.96 249.331C144.625 273.818 125.289 347.039 159.31 477.824C159.31 477.824 163.528 486.26 191.223 480.241L195.175 301.315L197.592 301.182L212.299 481.177C223.091 485.406 235.026 485.713 246.021 482.042C246.021 482.042 268.745 315.576 235.973 248.981ZM158.195 282.076C155.321 284.308 151.889 285.709 148.274 286.127C147.972 286.113 147.688 285.983 147.479 285.764C147.271 285.545 147.155 285.254 147.155 284.952C147.155 284.65 147.271 284.36 147.479 284.141C147.688 283.922 147.972 283.792 148.274 283.777C149.932 283.709 151.546 283.232 152.975 282.39C157.008 280.602 160.487 277.763 163.046 274.17C166.051 269.712 167.232 264.271 166.345 258.969C166.068 257.484 168.354 256.86 168.621 258.344C169.441 262.888 168.888 267.574 167.03 271.802C165.173 276.029 162.097 279.607 158.195 282.076ZM239.525 284.721C234.014 281.682 229.649 276.923 227.096 271.171C224.544 265.418 223.944 258.989 225.389 252.864C225.738 251.382 228.006 252.014 227.656 253.496C226.294 259.119 226.836 265.035 229.196 270.317C231.556 275.599 235.602 279.949 240.698 282.686C242.041 283.402 240.854 285.442 239.525 284.715V284.721ZM100.05 355.478C77.0345 365.137 52.509 353.776 52.509 353.776C49.8922 356.596 50.3084 363.814 50.3084 363.814C82.6316 373.249 100.5 364.679 100.5 364.679C101.327 363.261 101.747 361.642 101.711 360C101.676 358.359 101.188 356.759 100.3 355.378C100.2 355.405 100.134 355.439 100.05 355.478Z" fill="#FFD35C"/>
<path d="M473.812 295.329C439.804 313.533 399.165 301.112 390.598 298.146C390.099 319.283 388.964 396.012 397.183 455.322C398.851 456.084 400.59 456.679 402.375 457.098C410.804 459.215 419.725 458.006 427.286 453.721L432.9 335.686L437.318 337.687L435.72 479.811C435.72 479.811 452.589 486.227 467.84 479.009C472.461 429.157 476.515 346.875 473.812 295.329Z" fill="#B2EACD"/>
<path d="M500.249 259.185C499.8 258.117 497.713 253.166 497.563 252.802C496.969 251.415 493.939 252.678 518.77 239.186C520.052 242.135 521.267 245.135 522.377 248.152C515.356 252.501 507.949 256.195 500.249 259.185Z" fill="#3B8363"/>
<path d="M483.683 182.637C482.742 185.473 480.256 189.932 477.317 189.322C474.442 188.706 474.126 184.138 474.85 181.052C473.498 184.468 470.518 185.054 468.983 183.769C466.933 182.012 467.829 176.931 468.834 174.367C468.062 175.856 466.988 177.168 465.681 178.219C465.015 178.727 464.209 179.019 463.372 179.055C462.535 179.091 461.707 178.869 461 178.419C458.452 176.429 459.546 170.457 460.764 167.452C459.295 168.051 457.677 168.179 456.132 167.818C455.616 167.715 455.138 167.471 454.751 167.115C454.363 166.759 454.081 166.303 453.934 165.797C453.788 165.292 453.783 164.756 453.92 164.247C454.057 163.739 454.331 163.278 454.712 162.915C450.019 161.113 445.116 159.915 440.121 159.349C440.25 159.483 440.342 159.65 440.386 159.831C440.43 160.012 440.424 160.202 440.37 160.381C436.949 172.783 420.155 178.84 415.776 161.891C415.752 161.776 415.745 161.658 415.756 161.541C411.442 163.384 407.411 165.828 403.782 168.8C394.605 174.547 382.223 183.15 368.209 194.12C368.232 197.344 367.915 212.501 367.577 227.367L382.437 218.251C382.217 218.187 382.02 218.061 381.871 217.887C381.722 217.713 381.627 217.499 381.597 217.272C381.568 217.045 381.605 216.814 381.705 216.608C381.805 216.402 381.963 216.229 382.159 216.111C385.518 214.485 388.77 212.648 391.897 210.611C392.184 210.519 392.493 210.515 392.783 210.601C393.073 210.688 393.33 210.859 393.52 211.094C394.172 212.01 393.345 220.027 393.243 221.045C393.238 221.344 393.121 221.629 392.915 221.845C392.709 222.061 392.43 222.191 392.133 222.211C391.342 245.848 388.966 273.962 388.966 297.58C414.244 307.459 450.324 308.794 475.693 294.378L474.361 213.547C474.361 213.547 487.362 235.167 495.13 250.505C496.6 248.387 517.998 236.888 518.884 236.444C512.734 222.691 500.888 199.939 483.683 182.637Z" fill="#3B8363"/>
<path d="M225.422 154.548C219.379 151.232 212.807 148.99 205.997 147.921C206.039 149.365 205.753 150.8 205.159 152.117C204.566 153.434 203.681 154.599 202.572 155.525C201.463 156.45 200.158 157.112 198.756 157.459C197.354 157.807 195.891 157.831 194.478 157.531C187.771 157.462 183.395 154.79 182.493 148.196C177.846 148.95 173.293 150.202 168.915 151.931C168.679 153.793 166.711 155.428 163.148 154.548C162.829 154.715 162.529 154.856 162.213 155.023C163.209 157.886 164.103 163.295 161.697 165.176C160.99 165.629 160.161 165.853 159.323 165.817C158.485 165.781 157.678 165.488 157.013 164.977C155.701 163.931 154.627 162.618 153.863 161.125C154.834 163.622 155.78 168.823 153.713 170.527C152.253 171.767 149.245 171.359 147.844 167.81C149.573 174.825 144.875 179.543 140.832 173.077C135.291 179.974 130.189 187.211 125.555 194.747C150.669 204.751 149.048 203.904 149.384 204.59L151.293 205.397L156.344 196.631C158.417 214.118 155.391 231.831 147.63 247.638C169.847 254.798 207.035 256.518 241.595 247.638C241.595 247.638 230.772 228.319 233.444 194.996L239.061 200.313C239.591 199.88 239.519 200.019 239.463 199.731C239.211 198.857 238.539 199.889 253.563 185.362C253.722 185.209 253.919 185.103 254.134 185.054C254.348 185.005 254.572 185.016 254.781 185.084C255.224 184.468 255.603 183.809 255.914 183.117C248.161 171.309 237.709 161.516 225.422 154.548Z" fill="#67A67D"/>
<path d="M537.362 295.496C535.447 295.399 534.587 293.112 533.946 291.611C533.828 291.413 533.655 291.254 533.448 291.153C533.24 291.053 533.008 291.015 532.78 291.044C532.551 291.074 532.337 291.169 532.162 291.319C531.987 291.469 531.86 291.667 531.796 291.888C531.149 295.643 534.232 298.984 532.195 301.124C530.253 303.158 527.777 294.891 527.494 293.756C527.114 292.274 524.964 292.907 525.227 294.391C525.64 296.64 525.629 298.946 525.194 301.19C524.705 303.688 524.339 305.278 522.744 302.578C521.038 298.438 520.133 294.012 520.077 289.535C520.062 289.233 519.932 288.949 519.713 288.74C519.494 288.532 519.204 288.416 518.902 288.416C518.599 288.416 518.309 288.532 518.09 288.74C517.871 288.949 517.741 289.233 517.726 289.535C517.449 294.472 513.766 298.232 512.692 297.821C511.619 297.411 511.627 295.254 511.627 294.372C511.668 289.457 514.327 283.98 513.458 278.069C512.404 270.621 509.421 265.698 506.693 259.032C511.456 257.006 516.089 254.689 520.568 252.095C528.31 266.192 529.795 277.347 537.473 291.2C538.073 292.28 540.032 295.632 537.362 295.496ZM451.523 111.516C450.465 105.254 449.009 99.0649 447.164 92.9875C433.913 106.84 424.686 100.821 417.26 103.424C409.834 106.027 415.06 119.275 415.06 119.275C406.785 116.689 399.198 117.124 399.198 125.719C399.198 129.551 406.083 130.27 409.912 130.353C409.435 128.743 407.448 129.193 407.817 127.578C408.347 125.258 413.425 128.18 412.221 132.115L415.67 146.381C415.522 151.123 416.032 155.862 417.185 160.464C417.208 160.55 417.837 160.586 418.018 161.297C419.575 167.21 423.188 171.34 428.788 169.622C431.026 168.847 433.044 167.542 434.668 165.817C436.292 164.092 437.473 161.999 438.112 159.718C438.889 154.948 438.769 150.075 437.756 145.349C439.266 146.709 447.555 142.066 448.224 141.567C455.933 135.853 452.839 119.519 451.523 111.516ZM410.6 125.635C409.612 124.593 408.368 123.828 406.993 123.415C406.699 123.321 406.451 123.119 406.3 122.85C406.149 122.581 406.105 122.264 406.177 121.964C406.267 121.668 406.467 121.418 406.736 121.266C407.006 121.114 407.323 121.072 407.623 121.148C409.376 121.691 410.968 122.658 412.257 123.965C413.345 125.125 411.66 126.743 410.6 125.635ZM427.303 116.042C426.709 117.618 424.528 116.75 425.039 115.409C425.484 114.05 426.295 112.839 427.383 111.909C428.47 110.979 429.792 110.366 431.205 110.137C431.5 110.068 431.811 110.115 432.072 110.27C432.333 110.424 432.525 110.673 432.607 110.966C432.688 111.258 432.654 111.571 432.51 111.838C432.367 112.106 432.126 112.308 431.837 112.401C429.318 113.22 428.252 113.675 427.303 116.042ZM431.063 117.233C432.345 117.635 433.613 118.051 434.895 118.468C435.195 118.555 435.449 118.755 435.604 119.026C435.759 119.296 435.803 119.616 435.728 119.919C435.642 120.219 435.442 120.473 435.17 120.626C434.898 120.778 434.577 120.818 434.277 120.735C432.994 120.332 431.726 119.919 430.444 119.503C430.163 119.404 429.929 119.202 429.79 118.938C429.652 118.674 429.618 118.367 429.697 118.079C429.775 117.792 429.96 117.544 430.213 117.387C430.467 117.23 430.77 117.175 431.063 117.233ZM444.156 135.037C443.13 135.558 442.007 135.857 440.859 135.914C439.71 135.971 438.563 135.785 437.491 135.368C436.419 134.951 435.448 134.312 434.64 133.494C433.832 132.676 433.206 131.696 432.803 130.619C432.644 130.349 432.599 130.028 432.677 129.725C432.755 129.421 432.951 129.162 433.221 129.003C433.49 128.844 433.812 128.799 434.115 128.877C434.418 128.955 434.678 129.151 434.837 129.42C435.084 130.225 435.502 130.966 436.062 131.594C436.623 132.222 437.312 132.721 438.083 133.058C438.853 133.395 439.688 133.562 440.529 133.546C441.371 133.531 442.199 133.334 442.957 132.97C443.23 132.827 443.548 132.795 443.844 132.88C444.14 132.966 444.391 133.163 444.546 133.429C444.701 133.696 444.746 134.012 444.674 134.312C444.601 134.611 444.415 134.871 444.156 135.037ZM444.808 104.79C447.23 102.753 450.949 104.332 450.008 106.105C449.545 106.976 448.088 106.679 445.64 106.804C445.41 106.8 445.186 106.728 444.996 106.598C444.806 106.469 444.658 106.287 444.57 106.074C444.482 105.862 444.457 105.628 444.499 105.402C444.542 105.176 444.649 104.967 444.808 104.801V104.79ZM451.407 112.682C451.107 113.531 450.807 114.363 450.508 115.199C450.42 115.501 450.216 115.756 449.941 115.908C449.666 116.061 449.342 116.099 449.04 116.014C448.741 115.922 448.489 115.717 448.337 115.444C448.185 115.171 448.145 114.849 448.224 114.546C448.523 113.697 448.812 112.859 449.123 112.03C449.211 111.727 449.415 111.471 449.692 111.319C449.968 111.167 450.293 111.131 450.596 111.219C450.899 111.307 451.155 111.512 451.307 111.788C451.459 112.064 451.495 112.39 451.407 112.693V112.682Z" fill="#FCCAC2"/>
<path d="M162.01 492.36C169.13 498.67 175.496 505.782 180.98 513.555C180.98 513.555 187.918 503.915 186.064 495.079C186.064 495.079 174.145 486.643 162.01 492.36Z" fill="#193737"/>
<path d="M254.368 187.867C254.09 188.145 246.015 195.915 242.283 199.536L255.453 213.156C255.605 205.245 255.961 197.003 256.368 189.968L254.368 187.867ZM195.008 155.189C187.338 155.239 183.311 152.37 185.173 140.088C187.963 141.414 191 142.144 194.088 142.23C197.176 142.316 200.248 141.756 203.108 140.587C204.637 149.312 203.938 155.098 195.008 155.189Z" fill="#FCCAC2"/>
<path d="M214.402 119.602C213.503 119.486 213.137 120.385 213.336 121.101C212.346 125.146 210.862 129.053 208.919 132.737C206.629 135.915 203.342 138.236 199.581 139.329C195.82 140.423 191.801 140.227 188.164 138.772C175.227 134.349 177.311 122.566 176.546 118.701C176.493 118.505 176.39 118.327 176.247 118.183C176.104 118.04 175.925 117.937 175.73 117.885C172.211 116.966 168.262 113.867 168.096 109.948C168.057 108.935 168.309 107.931 168.823 107.057C169.337 106.182 170.091 105.474 170.996 105.014C173.03 104.149 174.628 107.032 175.397 108.466C175.517 108.661 175.691 108.817 175.897 108.915C176.104 109.013 176.335 109.05 176.561 109.021C176.788 108.992 177.002 108.897 177.177 108.75C177.352 108.602 177.48 108.408 177.547 108.189C178.038 105.173 178.686 102.185 179.49 99.2368C186.827 99.4033 195.16 97.8853 200.444 92.4852C200.746 95.0601 201.556 97.5495 202.827 99.8092C204.098 102.069 205.804 104.054 207.848 105.65C207.091 105.128 206.213 104.812 205.297 104.731C204.985 104.736 204.686 104.862 204.465 105.083C204.244 105.305 204.119 105.604 204.115 105.916C204.215 107.723 206.738 106.624 207.698 108.933C208.53 110.528 211.899 108.791 208.081 105.833C209.907 107.347 211.932 108.602 214.1 109.565C214.033 110.398 213.983 111.23 213.916 112.032C213.833 113.167 215.215 113.45 215.934 112.865C217.337 111.638 218.953 110.678 220.701 110.032C222.727 109.388 223.707 109.821 224.284 111.863C225.755 117.702 219.084 120.196 214.402 119.602ZM102.517 270.41C98.3659 274.407 93.3279 277.365 87.8147 279.043C82.3016 280.72 76.4697 281.069 70.7958 280.061C66.0312 279.32 68.487 278.338 70.7625 278.227C71.5802 278.223 72.3915 278.082 73.1629 277.811C73.38 277.742 73.5729 277.612 73.7189 277.438C73.8649 277.263 73.958 277.05 73.9871 276.824C74.0163 276.598 73.9803 276.368 73.8834 276.162C73.7866 275.956 73.6329 275.782 73.4404 275.66C71.1011 274.092 67.1162 274.628 66.8054 272.208C66.6555 270.959 69.3223 271.409 70.041 271.409C71.9391 271.409 73.8234 271.392 75.7242 271.392C76.0052 271.385 76.2743 271.278 76.4835 271.09C76.6927 270.902 76.8285 270.646 76.8665 270.368C76.9045 270.09 76.8423 269.807 76.691 269.57C76.5397 269.333 76.3092 269.158 76.0406 269.075C73.8762 268.216 71.9212 266.902 70.3074 265.223C69.8745 264.774 68.5897 263.758 69.5388 263.325C75.7166 262.793 81.9208 263.987 87.4597 266.775C88.5697 267.307 90.0099 265.826 88.8944 264.924C84.1991 261.15 82.7561 256.216 87.7594 258.305C91.982 260.451 95.9011 263.148 99.4144 266.325C100.547 267.341 102.214 265.676 101.079 264.66C97.8453 261.789 94.3322 259.248 90.5927 257.076C129.076 196.603 128.055 198.523 128.116 198.415C133.883 200.682 146.187 205.533 146.587 205.683C121.459 244.938 114.402 259.965 102.517 270.41Z" fill="#FCCAC2"/>
<path d="M456.843 83.1279C457.093 81.1854 455.555 78.9127 453.657 79.279C452.825 79.4482 452.825 79.5731 445.54 84.3628C446.848 82.3002 447.569 79.9198 447.624 77.478C447.458 75.0443 445.404 72.594 442.99 72.927C438.439 73.5597 435.295 83.9826 420.535 88.7806C412.915 91.2642 399.425 91.9302 400.033 106.882C400.367 110.956 401.337 114.952 402.908 118.726C405.325 117.56 409.127 117.427 415.06 119.281C415.06 119.281 409.843 106.03 417.26 103.43C424.678 100.83 433.93 106.846 447.164 92.993C447.533 94.1779 447.866 95.3601 448.199 96.5617C450.525 94.04 452.527 91.2367 454.157 88.2172C455.451 86.7633 456.373 85.0168 456.843 83.1279Z" fill="#193737"/>
<path d="M381.613 179.928L383.489 182.603C396.742 173.027 400.827 170.921 405.658 167.341L400.766 160.514C393.71 166.287 387.289 172.795 381.613 179.928ZM229.215 150.441L225.433 154.548C233.966 159.312 241.612 165.514 248.033 172.882L248.743 172.05C241.065 165.996 234.463 158.691 229.215 150.441ZM167.194 149.04C165.64 148.043 161.261 148.59 159.424 148.707L158.869 148.74C155.696 147.777 152.302 147.82 149.154 148.861C146.005 149.903 143.256 151.893 141.284 154.559C139.311 157.224 138.211 160.435 138.134 163.75C138.058 167.065 139.009 170.323 140.856 173.077C144.783 179.359 149.598 175.219 147.874 167.804C149.231 171.229 152.215 171.797 153.744 170.521C155.792 168.764 154.895 163.681 153.893 161.119C154.663 162.609 155.736 163.921 157.043 164.971C157.71 165.479 158.516 165.77 159.354 165.806C160.191 165.841 161.019 165.62 161.727 165.171C164.308 163.156 163.129 157.298 161.969 154.201C163.437 154.792 165.05 154.923 166.595 154.576C167.198 154.448 167.746 154.132 168.16 153.674C168.574 153.216 168.833 152.639 168.899 152.025C168.966 151.411 168.836 150.792 168.53 150.256C168.224 149.72 167.756 149.294 167.194 149.04ZM334.08 78.7517C332.944 78.7113 331.813 78.927 330.772 79.3829C329.73 79.8388 328.805 80.5231 328.064 81.3852C327.712 78.5674 327.311 75.7559 326.862 72.952C325.694 65.7675 318.967 62.407 311.71 61.8825C305.739 61.1496 299.685 61.4661 293.823 62.8177C290.06 63.4135 286.595 65.222 283.955 67.9681C280.422 72.2332 280.839 78.4021 281.405 83.9187C281.654 86.2192 282.623 95.213 282.856 97.4302C297.208 111.666 314.594 104.645 328.829 90.3956L328.896 90.329C328.946 90.329 328.979 90.3123 329.013 90.3123C340.018 88.9914 340.018 78.7517 334.08 78.7517ZM481.74 168.209C479.754 165.471 476.976 163.407 473.781 162.295C470.586 161.183 467.127 161.077 463.869 161.991C458.364 161.669 456.51 161.244 454.712 162.915C454.332 163.279 454.059 163.739 453.922 164.248C453.786 164.756 453.791 165.291 453.937 165.797C454.084 166.302 454.366 166.757 454.753 167.114C455.14 167.47 455.617 167.714 456.133 167.818C457.677 168.179 459.295 168.051 460.764 167.452C459.554 170.452 458.45 176.432 461 178.419C461.706 178.872 462.534 179.097 463.372 179.061C464.21 179.025 465.017 178.731 465.681 178.219C466.994 177.173 468.068 175.86 468.834 174.367C467.857 176.865 466.919 182.07 468.984 183.769C470.438 185.006 473.449 184.601 474.85 181.052C473.21 187.77 477.403 192.36 481.368 187.121C483.353 184.383 484.452 181.104 484.519 177.723C484.585 174.343 483.616 171.023 481.74 168.209Z" fill="#FCCAC2"/>
<path d="M283.955 67.9681C286.596 65.2232 290.061 63.4149 293.823 62.8177C301.684 61.0028 314.383 60.6726 321.378 64.7851C322.836 65.6607 324.082 66.8463 325.03 68.2577C325.978 69.6691 326.603 71.2718 326.862 72.952C327.311 75.7519 327.714 78.5713 328.063 81.3852C330.356 78.7323 335.295 77.5668 337.257 80.2613C338.727 78.7274 339.637 76.7421 339.838 74.6268C340.04 72.5115 339.521 70.3902 338.367 68.6063C337.799 68.0336 337.435 67.2894 337.332 66.489C337.374 65.4678 340.384 59.8651 336.999 54.1042C336.027 52.4119 334.581 51.0413 332.839 50.1615C331.098 49.2817 329.136 48.9313 327.198 49.1536C326.929 47.4929 326.063 45.9873 324.764 44.9189C321.987 41.861 318.223 39.8784 314.13 39.319C312.091 39.0997 310.038 39.5698 308.298 40.6543C306.557 41.7387 305.23 43.375 304.529 45.3019C297.092 37.8898 284.524 40.4761 281.824 45.6848C281.469 46.3288 281.299 47.0582 281.332 47.7926C281.365 48.5271 281.601 49.2381 282.012 49.8473C280.07 47.533 276.165 48.1268 273.54 49.7724C267.879 53.3299 267.638 58.7467 270.341 61.3414C271.107 62.074 272.172 62.6734 272.408 63.7084C272.449 64.2659 272.315 64.8222 272.025 65.3C271.735 65.7779 271.303 66.1537 270.79 66.3752C269.805 66.8941 268.673 67.0912 267.674 67.5768C266.907 68.0306 266.244 68.6389 265.725 69.3631C265.207 70.0873 264.845 70.9115 264.662 71.7833C264.479 72.6551 264.48 73.5554 264.664 74.4268C264.848 75.2983 265.212 76.1219 265.731 76.8453C266.897 78.2272 268.504 79.163 270.282 79.4939C272.059 79.8247 273.896 79.5301 275.48 78.6601C274.282 79.7323 273.482 81.1782 273.209 82.7629C272.937 84.3475 273.209 85.9777 273.981 87.3882C274.753 88.7987 275.979 89.9066 277.46 90.5317C278.942 91.1568 280.591 91.2624 282.14 90.8313C281.16 81.7876 279.57 73.26 283.955 67.9681ZM328.896 90.329C314.655 104.568 297.261 111.724 282.856 97.4302C283.908 107.229 283.947 107.587 284.046 109.748C284.252 114.405 284.479 120.693 288.095 122.969C293.035 126.082 305.739 125.991 311.699 124.786C317.987 123.518 326.235 120.252 329.054 114C329.714 112.47 330.081 110.831 330.136 109.166C330.2 107.739 329.282 90.329 328.896 90.329ZM319.985 108.6C319.876 110.096 319.243 111.505 318.197 112.581C317.152 113.657 315.761 114.33 314.269 114.483C312.291 114.945 310.219 114.789 308.333 114.035C306.447 113.281 304.838 111.966 303.724 110.267C306.795 110.488 309.873 109.954 312.691 108.713C315.509 107.472 317.98 105.561 319.891 103.147C320.235 104.945 320.267 106.79 319.985 108.6Z" fill="#193737"/>
<path d="M402.375 457.098C399.745 460.825 394.17 479.512 399.65 492.143C402.703 499.178 410.251 503.013 415.568 495.779C418.384 491.944 418.065 487.293 418.343 482.775C419.686 461.657 420.16 459.995 418.978 457.106C413.526 458.456 407.826 458.453 402.375 457.098ZM346.109 478.876C341.275 482.586 340.559 489.407 341.392 490.878C333.73 493.781 331.874 501.257 336.058 503.263C337.92 504.154 347.688 503.818 349.561 503.762C367.521 503.266 369.392 503.485 369.314 494.73C369.12 478.829 355.056 472.027 346.109 478.876ZM353.308 501.279C349.339 501.464 345.372 501.536 341.406 501.495C338.819 501.451 337.199 501.617 336.572 500.679C336.339 500.142 336.247 499.554 336.306 498.971C336.364 498.388 336.57 497.83 336.905 497.349C337.868 495.968 339.108 494.803 340.546 493.927C341.984 493.051 343.588 492.485 345.257 492.263C349.56 491.693 353.93 491.902 358.158 492.882C358.41 492.926 358.67 492.89 358.901 492.78C359.132 492.67 359.323 492.491 359.448 492.267C359.572 492.044 359.624 491.787 359.596 491.532C359.568 491.278 359.461 491.038 359.291 490.848C360.119 490.824 360.945 490.954 361.727 491.23C362.027 491.308 362.346 491.267 362.616 491.114C362.886 490.962 363.086 490.711 363.176 490.415C363.944 487.687 356.413 488.292 352.925 489.86C349.833 489.504 346.705 489.639 343.656 490.259C343.474 488.684 343.649 487.088 344.169 485.59C344.689 484.092 345.54 482.73 346.659 481.607C353.219 475.194 364.946 479.367 366.777 491.81C368.19 502.136 365.307 500.679 353.308 501.279ZM334.388 396.797C342.76 398.908 351.519 398.965 359.918 396.964C361.402 396.614 360.775 394.33 359.293 394.694C351.304 396.609 342.969 396.553 335.007 394.53C334.712 394.466 334.404 394.517 334.146 394.673C333.888 394.829 333.7 395.079 333.62 395.37C333.541 395.661 333.576 395.971 333.719 396.237C333.862 396.502 334.101 396.703 334.388 396.797ZM311.586 81.646C311.835 81.7625 312.105 81.8284 312.379 81.8399C312.654 81.8513 312.929 81.808 313.187 81.7126C314.375 81.5212 315.592 81.6682 316.701 82.1369C317.809 82.6056 318.763 83.377 319.453 84.3628C319.618 84.6194 319.877 84.8021 320.174 84.8723C320.471 84.9426 320.784 84.8951 321.047 84.7397C321.31 84.5844 321.503 84.3332 321.585 84.0389C321.667 83.7447 321.632 83.4301 321.487 83.1612C320.394 81.6223 318.876 80.4352 317.119 79.7452C316.174 79.3265 315.144 79.1336 314.111 79.1818C313.079 79.2299 312.071 79.5178 311.169 80.0227C311.01 80.2933 310.964 80.616 311.042 80.9203C311.12 81.2245 311.316 81.4855 311.586 81.646ZM286.13 88.8305C286.638 88.6196 288.969 84.3128 293.481 84.3128C293.793 84.3057 294.091 84.1786 294.311 83.9579C294.532 83.7372 294.659 83.4399 294.666 83.1279C294.666 80.9384 288.658 81.9846 285.528 85.9029C284.496 87.1544 284.08 87.69 284.479 88.3699C284.65 88.6355 284.913 88.8291 285.217 88.914C285.522 88.9989 285.847 88.9692 286.13 88.8305ZM292.999 93.7478C292.981 93.3002 292.79 92.8769 292.467 92.5665C292.144 92.2561 291.714 92.0828 291.266 92.0828C290.818 92.0828 290.387 92.2561 290.064 92.5665C289.741 92.8769 289.551 93.3002 289.533 93.7478C289.551 94.1954 289.741 94.6188 290.064 94.9291C290.387 95.2395 290.818 95.4128 291.266 95.4128C291.714 95.4128 292.144 95.2395 292.467 94.9291C292.79 94.6188 292.981 94.1954 292.999 93.7478ZM313.603 87.7205C313.143 87.7205 312.702 87.9032 312.377 88.2285C312.051 88.5538 311.869 88.9949 311.869 89.4549C311.869 89.9149 312.051 90.356 312.377 90.6813C312.702 91.0065 313.143 91.1893 313.603 91.1893C314.063 91.1893 314.504 91.0065 314.829 90.6813C315.155 90.356 315.337 89.9149 315.337 89.4549C315.337 88.9949 315.155 88.5538 314.829 88.2285C314.504 87.9032 314.063 87.7205 313.603 87.7205ZM306.319 97.8798C307.176 97.5938 307.964 97.1339 308.635 96.5289C309.306 95.9238 309.845 95.1868 310.217 94.3639C310.3 94.0621 310.26 93.7398 310.105 93.4679C309.95 93.196 309.694 92.9967 309.392 92.9139C309.09 92.8311 308.768 92.8716 308.496 93.0264C308.224 93.1812 308.025 93.4377 307.942 93.7395C307.737 94.1852 307.4 94.5572 306.976 94.8051C305.164 96.0511 304.52 96.4534 303.508 93.6951C302.376 90.6424 301.692 87.442 301.476 84.1935C301.376 82.6922 299.009 82.6756 299.126 84.1935C299.467 89.577 301.274 99.9 306.319 97.8798ZM403.449 155.006C394.763 144.122 378.938 116.786 349.423 109.515C343.058 108.136 336.601 107.228 330.103 106.799C330.15 107.581 330.15 108.366 330.103 109.149C350.547 110.77 364.269 114.458 381.013 130.902C388.053 137.818 389.416 140.179 397.347 150.957C386.011 156.659 376.547 165.492 370.08 176.41C366.331 171.478 367.219 170.987 356.91 153.674C356.749 153.411 356.493 153.222 356.194 153.147C355.896 153.071 355.58 153.115 355.314 153.27C355.048 153.424 354.853 153.677 354.771 153.973C354.689 154.27 354.727 154.587 354.876 154.856C358.326 160.641 361.621 166.515 364.76 172.477C364.602 173.424 366.031 177.503 365.778 207.048C365.778 208.561 364.613 262.115 364.161 263.542C363.178 266.561 350.441 271.179 347.957 272.008C323.171 280.272 291.783 278.471 266.611 272.71C263.12 271.878 262.468 272.033 261.494 267.457C256.882 246.012 257.332 214.349 258.608 192.313C259.865 172.205 260.101 171.312 262.343 150.874C262.51 149.373 260.143 149.373 259.993 150.874C259.527 155.139 259.044 159.424 258.575 163.692C250.905 157.884 237.582 146.134 233.738 137.221C248.413 125.126 265.644 116.525 284.13 112.066C284.107 111.788 284.01 110.015 283.996 109.732C266.796 113.742 250.636 121.337 236.572 132.021C233.055 134.194 230.03 137.078 227.692 140.487C227.054 141.408 226.652 142.472 226.521 143.585C226.391 144.698 226.535 145.826 226.942 146.87C233.575 157.97 244.924 171.933 257.115 176.69C257.057 177.162 256.987 177.411 257.232 177.8C256.954 180.783 256.732 183.749 256.532 186.735C256.08 186.266 255.647 185.8 255.198 185.334C254.97 185.126 254.673 185.01 254.365 185.01C254.057 185.01 253.76 185.126 253.533 185.334C238.561 199.808 239.177 198.82 239.43 199.703C239.627 200.485 247.838 208.563 255.367 216.489C255.178 232.101 255.869 253.951 259.435 269.197C259.534 270.355 259.97 271.458 260.69 272.371C261.41 273.283 262.381 273.965 263.484 274.331C268.382 276.168 285.945 278.663 295.274 279.398C311.322 280.946 327.516 279.757 343.165 275.882C350.486 273.986 357.514 271.097 364.052 267.296C367.08 265.168 366.653 262.645 366.802 259.046C366.886 256.826 368.251 200.386 368.19 194.086C368.16 188.333 367.921 182.584 367.474 176.848C369.824 179.993 372.174 183.121 374.525 186.233C374.633 186.406 374.783 186.548 374.961 186.647C375.139 186.745 375.339 186.797 375.542 186.797C375.746 186.797 375.946 186.745 376.124 186.647C376.302 186.548 376.452 186.406 376.559 186.233C383.577 176.729 391.689 168.086 400.73 160.481C405.247 157.023 405.911 157.975 403.449 155.006ZM255.453 213.15C251.058 208.615 246.668 204.076 242.283 199.531C246.032 195.923 254.085 188.153 254.368 187.862L256.369 189.963C255.919 197.686 255.614 205.416 255.453 213.15ZM230.048 147.352C228.938 145.571 228.244 144.999 229.448 142.385C230.067 141.086 230.927 139.915 231.982 138.936C237.621 151.232 258.028 166.111 258.306 166.389C258.028 169.022 257.72 171.661 257.44 174.289C246.473 169.766 236.325 157.365 230.048 147.352ZM375.588 183.741C374.273 181.976 372.955 180.225 371.623 178.469C377.952 167.446 387.407 158.547 398.793 152.897C399.792 154.232 400.827 155.55 401.895 156.832C392.774 162.892 382.265 175.022 375.577 183.744L375.588 183.741Z" fill="#193737"/>
<path d="M269.614 154.24C269.059 154.085 267.671 154.654 267.693 155.628C268.126 170.56 266.902 183.189 275.996 189.949C283.716 195.71 295.538 191.506 299.029 176.029C300.416 169.924 301.598 161.158 299.664 155.217C299.583 154.983 299.432 154.78 299.231 154.635C299.031 154.49 298.791 154.41 298.543 154.406C298.296 154.402 298.053 154.475 297.848 154.613C297.643 154.752 297.486 154.95 297.397 155.181C275.003 155.014 273.893 155.428 269.614 154.24ZM290.901 186.846C289.266 188.517 287.119 189.594 284.802 189.904C282.485 190.215 280.131 189.742 278.113 188.561C269.295 183.075 270.724 168.995 270.327 165.759C279.562 167.243 288.967 167.344 298.232 166.059C297.525 173.437 296.048 182.148 290.901 186.846ZM297.799 157.456C298.252 159.513 298.439 161.62 298.354 163.725C289.022 165.026 279.546 164.908 270.249 163.375C270.183 161.175 270.133 158.958 270.069 156.757C274.301 157.424 278.59 157.658 282.87 157.456C293.407 157.528 297.461 157.603 297.799 157.456ZM147.525 487.595C136.289 493.478 153.411 512.481 161.178 514.632C167.736 516.28 174.639 515.905 180.98 513.555C174.853 504.773 157.007 482.631 147.525 487.595ZM226.221 488.4C213.903 490.534 206.685 506.071 206.685 506.071C220.066 508.419 233.761 508.325 247.108 505.794C247.108 505.794 238.523 486.263 226.221 488.4ZM311.735 500.579C296.284 493.875 280.453 498.654 276.246 504.265C273.668 507.692 274.251 511.935 279.898 514.149C287.668 517.03 303.188 515.376 311.336 513.73C323.776 511.224 322.455 505.225 311.735 500.579ZM301.834 512.789C255.8 517.574 283.092 491.242 310.034 502.392C317.679 505.569 318.001 508.139 317.702 507.542C319.064 510.911 305.528 512.39 301.834 512.778V512.789ZM115.371 291.195C112.63 286.985 109.313 283.181 105.517 279.892C102.368 283.515 99.0387 286.976 95.5407 290.262C98.7902 292.646 105.034 294.982 115.371 291.195ZM60.6534 339.96C63.1509 336.053 67.5659 326.154 67.2052 320.041C67.1192 318.542 64.7549 318.526 64.8548 320.041C65.1323 324.861 62.3906 331.615 60.2205 335.928C54.171 348.029 41.4504 350.283 43.2431 337.021C44.1816 331.954 46.3825 327.206 49.6422 323.215C52.7724 319.011 57.2735 313.481 62.2046 311.791C63.6365 311.308 63.0205 309.016 61.5692 309.523C56.1274 311.43 52.1619 316.12 48.6932 320.582C44.8764 325.02 42.2344 330.345 41.0092 336.069C38.5727 351.432 52.9306 352.07 60.6534 339.96ZM52.3589 368.007C52.9139 366.591 50.644 365.981 50.0918 367.382C43.6102 383.954 42.4625 402.136 46.8089 419.391C46.8928 419.692 47.0927 419.947 47.3646 420.1C47.6366 420.253 47.9582 420.292 48.2589 420.209C48.5595 420.125 48.8145 419.925 48.9678 419.653C49.121 419.381 49.16 419.059 49.0761 418.759C44.8442 401.914 45.9921 384.166 52.3589 368.007ZM108.586 434.684C106.795 430.063 106.344 425.031 107.285 420.166C107.584 418.684 105.303 418.051 105.017 419.533C104.281 423.372 104.298 427.317 105.067 431.149C106.047 434.822 107.469 438.363 109.302 441.694C110.628 445.264 110.544 449.205 109.069 452.716C108.358 452.716 106.016 449.531 105.117 447.646C104.512 446.362 102.342 447.283 103.083 448.845C104.237 451.267 105.949 453.381 108.078 455.014C107.511 456.151 106.877 457.253 106.177 458.313C104.422 457.013 103.041 455.272 102.176 453.266C102.165 453.25 102.159 453.232 102.159 453.213C102.026 452.88 101.909 452.528 101.793 452.195C101.751 452.046 101.68 451.907 101.585 451.785C101.489 451.663 101.371 451.562 101.236 451.486C101.101 451.41 100.953 451.362 100.799 451.343C100.646 451.325 100.49 451.337 100.341 451.379C100.193 451.42 100.053 451.491 99.9318 451.587C99.8103 451.682 99.7087 451.801 99.6329 451.935C99.5572 452.07 99.5087 452.219 99.4903 452.372C99.4719 452.526 99.4839 452.681 99.5256 452.83C100.471 455.789 102.326 458.374 104.826 460.217C104.497 460.634 104.141 461.029 103.76 461.399C103.111 462.015 102.542 462.365 101.843 461.646C100.091 459.456 98.5294 457.12 97.1752 454.664C91.8878 445.068 89.7703 434.046 91.1257 423.174C91.2612 419.384 92.8407 415.789 95.5407 413.125C96.7041 412.119 98.2078 411.594 99.7448 411.659C101.282 411.724 102.736 412.374 103.81 413.475C104.759 414.657 106.427 412.975 105.475 411.81C101.89 407.37 93.0321 408.433 89.9352 417.61C87.3767 425.102 88.2008 436.305 90.3348 444.13C90.2367 444.147 90.1425 444.182 90.0573 444.233C88.4915 445.212 86.7973 445.968 85.0234 446.481C84.9902 445.615 84.6238 436.463 84.3907 432.761C84.3723 432.567 84.3089 432.379 84.2053 432.214C84.1018 432.048 83.9611 431.909 83.7944 431.807C83.6277 431.705 83.4395 431.643 83.2449 431.627C83.0502 431.611 82.8544 431.64 82.673 431.712C81.5186 432.165 82.2457 431.796 82.723 448.731C83.4277 467.99 83.0497 487.274 81.5908 506.49C77.3534 501.584 72.6303 497.566 66.1701 498.357C68.9839 487.135 67.3522 479.748 64.7826 469.918C61.4944 457.387 57.5221 445.044 52.8834 432.947C52.2673 431.56 50.2305 432.764 50.8493 434.129C53.9379 441.047 65.0962 474.686 65.2516 486.172C65.3903 494.549 63.3757 497.827 63.9168 498.909C61.675 499.929 59.6879 501.435 58.0993 503.317C56.5108 505.199 55.3604 507.411 54.7316 509.792C55.0171 510.682 55.268 511.583 55.4836 512.493C63.8668 516.591 73.152 514.158 81.6213 511.66C81.7767 511.616 83.5638 510.292 83.6359 509.679C83.6359 507.134 84.807 503.155 85.2371 480.389C85.7006 454.989 84.7071 448.851 85.1872 448.851C87.2034 448.282 89.1371 447.454 90.9398 446.387C92.4188 451.018 98.0882 463.511 101.79 464.388C104.423 464.987 106.974 461.258 108.425 459.002C116.517 446.448 110.387 439.299 108.586 434.684ZM71.956 511.738L72.7052 506.388C72.7891 506.087 72.7502 505.765 72.5969 505.493C72.4436 505.221 72.1886 505.022 71.888 504.938C71.5873 504.854 71.2657 504.893 70.9938 505.046C70.7218 505.199 70.5219 505.454 70.438 505.755L69.5389 512.107C67.7755 512.335 65.9954 512.407 64.2193 512.323C63.5672 506.887 66.9554 505.458 65.0712 504.323C64.8002 504.169 64.48 504.126 64.1781 504.204C63.8763 504.282 63.6164 504.474 63.4534 504.739C62.212 506.955 61.6657 509.493 61.8855 512.024C60.2143 511.748 58.59 511.24 57.0598 510.514C57.0931 510.384 57.0986 510.47 57.1347 510.364C58.6859 505.397 62.4877 500.33 68.2347 500.53C73.6293 500.724 77.764 505.189 81.1024 509.362C78.0958 510.318 75.0397 511.111 71.9477 511.738H71.956ZM81.1496 306.915C81.7329 306.916 82.3029 307.089 82.7876 307.413C83.2724 307.738 83.65 308.199 83.8729 308.738C84.0957 309.277 84.1537 309.87 84.0396 310.442C83.9254 311.014 83.6443 311.539 83.2316 311.952C82.819 312.364 82.2934 312.645 81.7212 312.758C81.1491 312.872 80.5561 312.813 80.0173 312.59C79.4784 312.367 79.0179 311.988 78.6939 311.503C78.3699 311.018 78.197 310.448 78.197 309.865C78.197 309.477 78.2733 309.093 78.4218 308.735C78.5702 308.377 78.7877 308.052 79.0619 307.778C79.3361 307.504 79.6616 307.287 80.0199 307.139C80.3781 306.991 80.7619 306.915 81.1496 306.915ZM100.952 324.051C105.769 324.051 107.645 313.073 107.645 313.073C105.48 313.704 103.201 313.84 100.976 313.471C98.7506 313.102 96.6371 312.238 94.7915 310.942C94.7915 310.942 96.1346 324.051 100.952 324.051ZM149.342 205.647C149.428 205.49 149.477 205.316 149.486 205.138C149.496 204.96 149.466 204.782 149.398 204.617C149.33 204.452 149.227 204.304 149.095 204.184C148.963 204.064 148.805 203.975 148.635 203.924C143.756 202.006 128.1 195.835 127.889 195.746C127.636 195.677 127.368 195.694 127.126 195.794C126.884 195.895 126.683 196.073 126.554 196.301C125.272 198.299 89.7326 253.777 88.4145 256.008C84.2354 254.44 81.7045 256.749 82.2817 259.615C83.1475 263.88 86.0835 262.945 79.3153 261.558C76.2132 260.881 73.0336 260.629 69.8636 260.808C66.2256 261.363 64.888 264.546 71.1623 269.042C70.1966 269.042 69.2198 269.042 68.2625 269.058C62.9012 269.108 63.4589 274.936 67.985 276.326C65.1545 277.27 64.4579 281.357 68.8674 282.154C94.7082 286.671 108.608 270.604 122.278 248.984C123.865 246.445 148.429 207.473 149.342 205.647ZM102.517 270.41C98.3661 274.407 93.3281 277.365 87.8149 279.043C82.3018 280.72 76.4699 281.069 70.796 280.061C66.0313 279.32 68.4872 278.338 70.7627 278.227C71.5804 278.223 72.3917 278.082 73.1631 277.811C73.3802 277.742 73.5731 277.612 73.7191 277.438C73.8651 277.263 73.9581 277.05 73.9873 276.824C74.0164 276.598 73.9805 276.368 73.8836 276.162C73.7868 275.956 73.6331 275.782 73.4406 275.66C71.1013 274.092 67.1164 274.628 66.8056 272.208C66.6557 270.959 69.3225 271.409 70.0412 271.409C71.9393 271.409 73.8236 271.392 75.7244 271.392C76.0053 271.385 76.2744 271.278 76.4837 271.09C76.6929 270.902 76.8286 270.646 76.8667 270.368C76.9047 270.09 76.8425 269.807 76.6912 269.57C76.5399 269.333 76.3094 269.158 76.0408 269.075C73.8764 268.216 71.9214 266.902 70.3076 265.223C69.8747 264.774 68.5899 263.758 69.5389 263.325C75.7168 262.793 81.921 263.987 87.4599 266.775C88.5699 267.307 90.0101 265.826 88.8946 264.924C84.1993 261.15 82.7563 256.216 87.7596 258.305C91.9821 260.451 95.9013 263.148 99.4146 266.325C100.547 267.341 102.215 265.676 101.08 264.66C97.8455 261.789 94.3324 259.248 90.5929 257.076C129.077 196.603 128.055 198.523 128.116 198.415C133.883 200.682 146.187 205.533 146.587 205.683C121.459 244.938 114.402 259.965 102.517 270.41ZM431.837 112.387C432.126 112.294 432.367 112.092 432.511 111.824C432.654 111.557 432.688 111.244 432.607 110.952C432.525 110.66 432.334 110.41 432.072 110.256C431.811 110.101 431.5 110.054 431.205 110.123C429.792 110.352 428.47 110.965 427.383 111.895C426.295 112.825 425.484 114.036 425.039 115.396C424.536 116.744 426.704 117.616 427.303 116.028C428.249 113.675 429.332 113.275 431.837 112.387ZM435.714 119.919C435.79 119.616 435.745 119.296 435.59 119.026C435.435 118.755 435.181 118.555 434.882 118.468C433.6 118.051 432.331 117.635 431.049 117.233C430.753 117.164 430.442 117.212 430.181 117.367C429.92 117.522 429.728 117.772 429.647 118.065C429.565 118.358 429.6 118.67 429.743 118.938C429.887 119.206 430.128 119.408 430.417 119.503C431.699 119.919 432.967 120.335 434.249 120.735C434.399 120.778 434.555 120.791 434.71 120.773C434.865 120.756 435.015 120.707 435.151 120.632C435.287 120.556 435.407 120.454 435.504 120.331C435.6 120.209 435.672 120.069 435.714 119.919ZM450.591 111.225C449.164 110.908 448.995 112.376 448.224 114.555C448.143 114.856 448.184 115.177 448.337 115.448C448.491 115.719 448.745 115.919 449.045 116.005C449.344 116.09 449.666 116.055 449.94 115.905C450.213 115.756 450.417 115.505 450.508 115.207C450.807 114.374 451.107 113.542 451.407 112.69C451.487 112.388 451.447 112.066 451.295 111.793C451.143 111.519 450.89 111.316 450.591 111.225ZM450.008 106.116C450.982 104.384 447.258 102.75 444.808 104.801C444.646 104.967 444.537 105.177 444.494 105.404C444.45 105.632 444.474 105.867 444.562 106.081C444.651 106.295 444.8 106.479 444.992 106.609C445.183 106.74 445.409 106.811 445.64 106.815C448.091 106.693 449.567 106.998 450.008 106.116ZM442.957 132.97C442.199 133.334 441.371 133.531 440.529 133.546C439.688 133.562 438.854 133.395 438.083 133.058C437.312 132.721 436.623 132.222 436.062 131.594C435.502 130.966 435.084 130.225 434.837 129.42C434.307 128.183 432.062 128.979 432.803 130.619C433.207 131.696 433.833 132.675 434.641 133.493C435.449 134.311 436.42 134.949 437.492 135.366C438.563 135.783 439.71 135.97 440.859 135.913C442.007 135.856 443.13 135.558 444.156 135.037C444.415 134.871 444.601 134.611 444.674 134.312C444.746 134.012 444.701 133.696 444.546 133.429C444.391 133.163 444.14 132.966 443.844 132.88C443.548 132.795 443.23 132.827 442.957 132.97ZM407.631 121.151C407.331 121.072 407.013 121.113 406.743 121.265C406.473 121.418 406.273 121.669 406.185 121.967C406.111 122.267 406.154 122.584 406.306 122.854C406.457 123.124 406.706 123.325 407.001 123.418C408.377 123.829 409.621 124.595 410.609 125.638C410.83 125.858 411.129 125.982 411.441 125.982C411.753 125.982 412.053 125.858 412.274 125.638C413.817 123.976 409.54 121.745 407.631 121.151ZM411.119 134.071C411.648 133.531 412.029 132.863 412.226 132.133C412.422 131.403 412.428 130.635 412.242 129.901C412.056 129.168 411.685 128.496 411.165 127.947C410.644 127.399 409.991 126.994 409.268 126.77C408.968 126.69 408.648 126.731 408.377 126.883C408.106 127.036 407.905 127.288 407.817 127.586C407.426 129.29 409.685 128.68 409.984 130.669C409.984 133.269 406.915 133.355 406.915 130.136C406.144 130.059 405.377 129.943 404.617 129.787C404.432 130.611 404.502 131.473 404.819 132.257C405.135 133.041 405.682 133.71 406.388 134.175C407.094 134.64 407.925 134.879 408.77 134.861C409.615 134.842 410.434 134.567 411.119 134.071ZM536.854 284.879C531.41 273.548 529.884 263.989 522.602 250.821C523.99 249.919 525.408 249.348 524.836 248.071C524.411 246.373 521.506 239.469 520.371 236.921C520.225 236.673 519.993 236.486 519.719 236.398C519.444 236.31 519.147 236.326 518.884 236.444C518.606 236.541 496.589 248.31 495.096 250.471C494.186 251.812 494.622 251.859 498.399 260.842C498.519 261.142 498.735 261.394 499.015 261.558C499.611 262.154 499.978 261.849 504.534 259.956C507.248 266.458 510.933 272.827 511.283 279.936C511.483 284.118 509.868 288.187 509.382 292.305C508.352 300.868 513.786 303.33 518.301 295.587C518.856 298.876 519.866 303.793 522.302 305.622C522.707 305.963 523.198 306.186 523.722 306.266C524.245 306.346 524.781 306.28 525.269 306.074C525.807 305.723 526.261 305.257 526.597 304.708C526.933 304.16 527.143 303.544 527.211 302.905C527.902 300.161 527.367 300.383 528.044 301.44C531.124 306.551 536.596 302.8 534.898 297.055C535.668 297.621 536.608 297.906 537.563 297.864C538.517 297.822 539.429 297.454 540.146 296.822C542.818 294.15 539.485 290.393 536.854 284.879ZM500.249 259.185C499.8 258.117 497.713 253.166 497.563 252.802C496.969 251.415 493.939 252.678 518.77 239.186C520.052 242.135 521.267 245.135 522.377 248.152C515.356 252.501 507.949 256.195 500.249 259.185ZM537.362 295.507C535.448 295.41 534.587 293.123 533.946 291.622C533.828 291.424 533.655 291.265 533.448 291.165C533.241 291.064 533.008 291.026 532.78 291.056C532.552 291.085 532.337 291.181 532.162 291.33C531.987 291.48 531.86 291.678 531.796 291.899C531.149 295.654 534.232 298.995 532.195 301.135C530.253 303.169 527.777 294.902 527.494 293.767C527.114 292.285 524.964 292.918 525.227 294.403C525.641 296.651 525.629 298.957 525.194 301.201C524.706 303.699 524.339 305.289 522.744 302.589C521.038 298.449 520.133 294.023 520.077 289.546C520.062 289.244 519.932 288.96 519.713 288.751C519.494 288.543 519.204 288.427 518.902 288.427C518.599 288.427 518.309 288.543 518.09 288.751C517.871 288.96 517.741 289.244 517.726 289.546C517.449 294.483 513.766 298.243 512.693 297.832C511.619 297.422 511.627 295.266 511.627 294.383C511.669 289.469 514.327 283.991 513.458 278.08C512.404 270.632 509.421 265.709 506.693 259.043C511.456 257.017 516.089 254.7 520.568 252.106C528.31 266.203 529.795 277.358 537.473 291.211C538.073 292.28 540.032 295.632 537.362 295.496V295.507ZM419.203 173.56C417.577 174.289 411.619 176.912 411.486 176.962C412.554 173.989 413.379 170.933 413.953 167.826C414.037 167.526 413.998 167.204 413.845 166.932C413.692 166.66 413.437 166.459 413.137 166.375C412.836 166.291 412.514 166.329 412.242 166.482C411.97 166.635 411.77 166.89 411.685 167.191C409.848 177.32 407.614 177.8 409.302 178.993C411.13 180.281 412.945 178.879 420.435 175.594C421.636 175.08 420.884 172.805 419.203 173.56ZM443.34 167.76C444.061 170.783 444.203 173.916 443.756 176.992C441.204 176.045 438.758 174.836 436.455 173.385C435.173 172.569 433.988 174.617 435.27 175.419C438.136 177.21 441.202 178.659 444.405 179.737C444.708 179.816 445.03 179.773 445.301 179.617C445.573 179.462 445.772 179.206 445.857 178.904C446.617 175 446.532 170.979 445.607 167.11C445.257 165.651 442.982 166.289 443.34 167.76ZM440.365 160.395C440.428 160.104 440.377 159.799 440.224 159.544C440.07 159.288 439.825 159.1 439.539 159.019C439.252 158.937 438.945 158.968 438.68 159.104C438.415 159.241 438.212 159.473 438.112 159.754C437.474 162.035 436.292 164.128 434.668 165.853C433.044 167.578 431.026 168.883 428.788 169.658C423.082 171.398 419.533 167.077 418.018 161.333C417.922 161.047 417.72 160.808 417.454 160.666C417.188 160.524 416.878 160.488 416.586 160.567C416.295 160.645 416.044 160.832 415.886 161.089C415.728 161.346 415.673 161.653 415.734 161.949C420.135 178.84 437.016 172.833 440.365 160.395Z" fill="#193737"/>
<path d="M500.333 252.93C500.145 253.045 499.984 253.198 499.862 253.381C499.739 253.564 499.658 253.771 499.623 253.988C499.588 254.205 499.601 254.427 499.66 254.638C499.72 254.85 499.824 255.047 499.967 255.214C500.204 255.415 500.492 255.546 500.8 255.592C501.107 255.637 501.421 255.596 501.706 255.472C503.46 253.81 501.396 252.284 500.333 252.93ZM429.218 182.404C430.228 182.331 430.666 180.658 429.698 179.856C429.527 179.748 429.335 179.676 429.134 179.646C428.934 179.615 428.729 179.627 428.534 179.679C428.338 179.731 428.155 179.823 427.996 179.949C427.837 180.075 427.706 180.232 427.611 180.411C427.073 181.671 428.052 182.484 429.218 182.404ZM429.848 195.013C430.858 194.944 431.296 193.27 430.328 192.466C430.156 192.358 429.965 192.286 429.764 192.256C429.564 192.225 429.359 192.236 429.164 192.288C428.968 192.34 428.785 192.432 428.626 192.558C428.467 192.684 428.336 192.842 428.241 193.021C427.678 194.281 428.671 195.083 429.848 195.013ZM391.897 210.623C388.776 212.668 385.523 214.506 382.159 216.123C380.827 216.855 382.01 218.898 383.344 218.157C385.051 217.219 391.184 213.905 391.406 213.747C391.406 215.47 391.078 219.222 390.881 221.048C390.881 221.361 391.006 221.661 391.227 221.882C391.448 222.103 391.748 222.228 392.061 222.228C392.373 222.228 392.673 222.103 392.895 221.882C393.116 221.661 393.24 221.361 393.24 221.048C393.348 220.008 394.175 212.016 393.518 211.097C393.326 210.865 393.069 210.695 392.78 210.611C392.491 210.526 392.184 210.53 391.897 210.623ZM450.991 488.245C446.563 488.841 442.342 490.487 438.68 493.045C435.018 495.603 432.02 499 429.937 502.952C444.646 502.101 459.4 502.418 474.059 503.901C468.345 496.312 459.263 487.592 450.991 488.245ZM401.615 394.097C406.359 395.331 411.301 395.608 416.153 394.91C416.444 394.818 416.688 394.616 416.833 394.348C416.978 394.079 417.013 393.765 416.93 393.471C416.848 393.177 416.654 392.927 416.391 392.773C416.127 392.619 415.814 392.573 415.518 392.646C411.085 393.258 406.574 392.98 402.25 391.827C401.954 391.756 401.64 391.802 401.377 391.956C401.113 392.111 400.92 392.362 400.838 392.656C400.756 392.95 400.791 393.264 400.935 393.533C401.08 393.802 401.324 394.004 401.615 394.097Z" fill="#193737"/>
<path d="M240.707 282.686C235.613 279.946 231.57 275.596 229.21 270.314C226.85 265.033 226.307 259.119 227.664 253.496C228.014 252.014 225.747 251.398 225.397 252.864C223.959 258.989 224.561 265.416 227.113 271.167C229.665 276.918 234.026 281.677 239.533 284.721C240.87 285.45 242.042 283.416 240.707 282.686ZM166.345 258.974C167.018 262.954 166.522 267.044 164.918 270.748C163.315 274.452 160.672 277.612 157.31 279.845C154.679 281.899 151.57 283.252 148.274 283.777C147.972 283.792 147.688 283.922 147.479 284.141C147.271 284.36 147.155 284.65 147.155 284.952C147.155 285.254 147.271 285.545 147.479 285.764C147.688 285.983 147.972 286.113 148.274 286.127C151.89 285.712 155.322 284.311 158.195 282.076C162.098 279.609 165.175 276.033 167.033 271.806C168.89 267.579 169.443 262.893 168.621 258.35C168.338 256.848 166.07 257.489 166.345 258.974Z" fill="#193737"/>
<path d="M232.073 106.299C230.891 101.292 228.632 96.6017 225.454 92.5553C222.276 88.509 218.255 85.2034 213.67 82.8684C209.085 80.5333 204.047 79.2248 198.905 79.0338C193.763 78.8429 188.642 79.7741 183.897 81.7626C159.477 92.0578 144.666 134.554 182.448 142.987C182.055 145.029 182.123 147.133 182.648 149.144C183.173 151.156 184.141 153.025 185.481 154.615C189.644 158.6 200.505 158.872 204.318 153.541C205.783 159.146 209.23 159.063 206.102 161.092C204.822 161.944 203.808 163.14 203.175 164.542C202.543 165.944 202.319 167.496 202.528 169.019C202.736 170.543 203.37 171.977 204.356 173.158C205.342 174.338 206.641 175.217 208.103 175.694C206.73 176.912 205.652 178.426 204.95 180.122C204.248 181.818 203.941 183.651 204.051 185.483C204.162 187.315 204.688 189.098 205.589 190.697C206.489 192.296 207.742 193.67 209.252 194.713C208.031 196.438 207.272 198.446 207.047 200.547C206.822 202.648 207.139 204.771 207.967 206.715C208.969 208.999 210.703 211.533 209.518 213.717C213.278 215.104 218.495 208.386 216.952 200.746C216.673 199.936 216.617 199.066 216.79 198.227C216.963 197.388 217.36 196.612 217.937 195.979C220.532 191.861 222.536 186.974 220.021 182.778C219.56 182.294 219.283 181.663 219.239 180.996C219.195 180.329 219.386 179.667 219.78 179.126C221.97 174.437 223.005 168.859 219.464 165.076C217.799 163.328 217.363 162.998 218.581 160.309C219.424 158.828 219.831 157.138 219.754 155.436C219.678 153.733 219.121 152.087 218.148 150.688C217.435 149.9 217.194 149.678 217.593 148.64C218.717 146.57 219.286 144.244 219.244 141.889C228.602 135.933 235.514 121.026 232.073 106.299ZM195.008 155.189C187.338 155.239 183.311 152.37 185.173 140.088C187.963 141.414 190.999 142.144 194.088 142.23C197.176 142.316 200.248 141.756 203.108 140.587C204.637 149.312 203.938 155.098 195.008 155.189ZM214.402 119.602C213.503 119.486 213.137 120.385 213.337 121.101C212.346 125.146 210.862 129.053 208.919 132.737C206.629 135.915 203.342 138.236 199.581 139.329C195.82 140.423 191.801 140.227 188.164 138.772C175.227 134.349 177.311 122.566 176.546 118.701C176.493 118.505 176.39 118.327 176.247 118.183C176.104 118.04 175.925 117.937 175.73 117.885C172.211 116.966 168.262 113.867 168.096 109.948C168.057 108.935 168.309 107.931 168.823 107.057C169.337 106.182 170.091 105.474 170.996 105.014C173.03 104.149 174.628 107.032 175.397 108.466C175.517 108.661 175.691 108.817 175.897 108.915C176.104 109.013 176.335 109.05 176.561 109.021C176.788 108.992 177.002 108.897 177.177 108.75C177.352 108.602 177.48 108.408 177.547 108.189C178.038 105.173 178.686 102.185 179.49 99.2368C186.827 99.4033 195.16 97.8853 200.444 92.4852C200.746 95.0601 201.556 97.5495 202.827 99.8092C204.098 102.069 205.804 104.054 207.848 105.65C207.091 105.128 206.213 104.812 205.297 104.731C204.985 104.736 204.686 104.862 204.465 105.083C204.244 105.305 204.119 105.604 204.115 105.916C204.215 107.723 206.738 106.624 207.698 108.933C208.53 110.528 211.899 108.791 208.081 105.833C209.907 107.347 211.932 108.602 214.1 109.565C214.033 110.398 213.983 111.23 213.916 112.032C213.833 113.167 215.215 113.45 215.934 112.865C217.337 111.638 218.953 110.678 220.701 110.032C222.727 109.388 223.707 109.821 224.284 111.863C225.755 117.702 219.084 120.196 214.402 119.602Z" fill="#193737"/>
<path d="M186.999 112.232C186.999 111.772 186.816 111.331 186.491 111.006C186.166 110.68 185.725 110.498 185.265 110.498C184.805 110.498 184.364 110.68 184.038 111.006C183.713 111.331 183.53 111.772 183.53 112.232C183.53 112.692 183.713 113.133 184.038 113.458C184.364 113.784 184.805 113.966 185.265 113.966C185.725 113.966 186.166 113.784 186.491 113.458C186.816 113.133 186.999 112.692 186.999 112.232ZM204.734 113.417C204.287 113.435 203.863 113.625 203.553 113.948C203.242 114.271 203.069 114.702 203.069 115.15C203.069 115.598 203.242 116.029 203.553 116.352C203.863 116.675 204.287 116.865 204.734 116.883C205.182 116.865 205.605 116.675 205.915 116.352C206.226 116.029 206.399 115.598 206.399 115.15C206.399 114.702 206.226 114.271 205.915 113.948C205.605 113.625 205.182 113.435 204.734 113.417ZM186.999 104.798C187.303 104.783 187.59 104.652 187.8 104.432C188.01 104.211 188.127 103.919 188.127 103.614C188.127 103.31 188.01 103.017 187.8 102.797C187.59 102.577 187.303 102.446 186.999 102.431C186.064 102.478 185.154 102.754 184.349 103.233C183.544 103.712 182.869 104.381 182.382 105.181C182.228 105.452 182.185 105.772 182.263 106.074C182.34 106.376 182.532 106.636 182.798 106.799C184.438 107.689 184.724 104.798 186.999 104.798ZM201.585 122.419C198.576 126.709 189.81 126.074 188.664 121.267C188.314 119.786 186.047 120.418 186.397 121.9C187.934 128.471 199.245 129.914 203.619 123.635C204.501 122.353 202.45 121.184 201.585 122.419ZM210.251 216.816C211.316 215.731 209.651 214.066 208.586 215.151C206.954 216.834 205.734 218.871 205.022 221.104C204.311 223.338 204.127 225.705 204.484 228.022C204.526 228.171 204.597 228.31 204.692 228.431C204.788 228.553 204.906 228.654 205.041 228.73C205.176 228.806 205.324 228.854 205.478 228.873C205.631 228.891 205.787 228.879 205.936 228.838C206.085 228.796 206.224 228.725 206.345 228.63C206.467 228.534 206.568 228.416 206.644 228.281C206.72 228.146 206.768 227.998 206.787 227.844C206.805 227.691 206.793 227.535 206.752 227.386C206.495 225.474 206.676 223.529 207.282 221.698C207.889 219.866 208.904 218.197 210.251 216.816ZM211.835 216.417C211.682 216.449 211.538 216.516 211.414 216.612C211.29 216.709 211.189 216.831 211.119 216.972C208.943 220.95 208.254 225.574 209.177 230.014C209.261 230.315 209.461 230.57 209.734 230.723C210.006 230.876 210.328 230.914 210.628 230.83C210.929 230.746 211.184 230.546 211.337 230.273C211.49 230.001 211.528 229.679 211.444 229.379C210.807 226.227 211.114 222.958 212.327 219.98C213.295 222.365 213.767 224.923 213.714 227.497C213.729 227.799 213.859 228.084 214.078 228.292C214.297 228.5 214.587 228.617 214.889 228.617C215.191 228.617 215.482 228.5 215.701 228.292C215.92 228.084 216.05 227.799 216.064 227.497C216.125 223.762 215.218 220.075 213.431 216.794C213.361 216.655 213.261 216.532 213.138 216.435C213.015 216.339 212.873 216.27 212.721 216.234C212.569 216.198 212.411 216.196 212.258 216.227C212.105 216.259 211.961 216.323 211.835 216.417ZM213.986 215.384C216.224 218.22 217.529 221.679 217.721 225.286C217.736 225.59 217.867 225.876 218.087 226.086C218.308 226.296 218.6 226.413 218.905 226.413C219.209 226.413 219.502 226.296 219.722 226.086C219.942 225.876 220.073 225.59 220.088 225.286C219.861 221.062 218.316 217.016 215.67 213.717C214.83 212.665 212.843 213.969 213.986 215.384Z" fill="#193737"/>
</svg>
